<?xml version="1.0" encoding="utf-8"?>
<!-- Generator: Adobe Illustrator 28.3.0, SVG Export Plug-In . SVG Version: 6.00 Build 0)  -->
<svg version="1.0" xmlns="http://www.w3.org/2000/svg" xmlns:xlink="http://www.w3.org/1999/xlink" x="0px" y="0px"
	 viewBox="0 0 1147.13 1169.29" style="enable-background:new 0 0 1147.13 1169.29;" xml:space="preserve">
<style type="text/css">
	.st0{fill:#0077AA;}
	.st1{fill:none;stroke:#231F20;stroke-width:9;}
	.st2{fill:none;stroke:#C945E5;stroke-width:6;stroke-miterlimit:10;}
	.st3{fill:none;stroke:#C1272D;stroke-width:6;stroke-miterlimit:10;}
	.st4{fill:none;stroke:#DD1F95;stroke-width:6;stroke-miterlimit:10;}
	.st5{fill:none;stroke:#475AC6;stroke-width:6;stroke-miterlimit:10;}
	.st6{fill:none;stroke:#0000FF;stroke-width:6;stroke-miterlimit:10;}
	.st7{fill:none;stroke:#A67C52;stroke-width:6;stroke-miterlimit:10;}
	.st8{fill:none;stroke:#2AB74B;stroke-width:6;stroke-miterlimit:10;}
	.st9{fill:none;stroke:#ED1C24;stroke-width:6;stroke-miterlimit:10;}
	.st10{fill:none;stroke:#11C7F2;stroke-width:6;stroke-miterlimit:10;}
	.st11{fill:none;stroke:#11C7F2;stroke-width:6.5227;stroke-miterlimit:10;}
	.st12{fill:none;stroke:#EAD61C;stroke-width:6;stroke-miterlimit:10;}
	.st13{fill:none;stroke:#F7EA08;stroke-width:6;stroke-miterlimit:10;}
	.st14{font-family:'ArialMT';}
	.st15{font-size:12px;}
	.st16{font-family:'Niramit-Regular';}
	.st17{font-family:'TrebuchetMS';}
</style>
<g id="Decors">
	<polygon class="st0" points="552.76,777.36 552.76,936.81 717.52,936.81 717.52,1096.26 664.37,1096.26 664.37,989.96 
		499.61,989.96 499.61,830.51 31.89,829.2 31.89,775.98 	"/>
</g>
<g id="Routes">
	<g id="Quad_SEC_Direct">
		<g id="Connections">
			<g>
				<line class="st1" x1="201.97" y1="712.2" x2="201.97" y2="861.02"/>
				
					<line id="_x35_054_00000077293206690267391040000011988653001368101013_" class="st1" x1="201.97" y1="951.38" x2="201.97" y2="861.02"/>
				<polyline class="st1" points="201.97,951.38 201.97,1089.57 276.38,1089.57 276.38,1041.73 				"/>
				<polyline class="st1" points="356.1,951.38 356.1,977.95 276.38,977.95 276.38,1041.73 				"/>
				<line class="st1" x1="356.1" y1="861.02" x2="356.1" y2="951.38"/>
				<line class="st1" x1="356.1" y1="861.02" x2="356.1" y2="712.2"/>
				<line class="st1" x1="356.1" y1="632.48" x2="356.1" y2="712.2"/>
				<polyline class="st1" points="201.97,143.5 201.97,100.98 558.07,100.98 558.07,313.58 				"/>
				<polyline class="st1" points="558.07,308.27 558.07,595.28 356.1,595.28 356.1,632.48 				"/>
				
					<line id="_x35_049_x5F_01_00000051371035198565659300000000437810768391048876_" class="st1" x1="201.97" y1="302.95" x2="201.97" y2="148.82"/>
				
					<line id="_x32_3509_x5F_01_00000023962889705203530810000011971098392049582224_" class="st1" x1="201.97" y1="403.94" x2="201.97" y2="308.27"/>
				
					<line id="_x35_050_x5F_01_00000089566347081319315810000001012267468138192778_" class="st1" x1="201.97" y1="632.48" x2="201.97" y2="409.25"/>
				
					<line id="_x35_8344_00000049939010979441579450000015350004346486210718_" class="st1" x1="201.97" y1="712.2" x2="201.97" y2="632.48"/>
				<path class="st1" d="M287.01,956.69"/>
				<path class="st1" d="M233.86,951.38"/>
			</g>
			<g>
				<line class="st2" x1="201.97" y1="712.2" x2="201.97" y2="861.02"/>
				
					<line id="_x35_054_00000003100493733517278590000013132964369760355769_" class="st2" x1="201.97" y1="951.38" x2="201.97" y2="861.02"/>
				<polyline class="st2" points="201.97,951.38 201.97,1089.57 276.38,1089.57 276.38,1041.73 				"/>
				<polyline class="st2" points="356.1,951.38 356.1,977.95 276.38,977.95 276.38,1041.73 				"/>
				<line class="st2" x1="356.1" y1="861.02" x2="356.1" y2="951.38"/>
				<line class="st2" x1="356.1" y1="861.02" x2="356.1" y2="712.2"/>
				<line class="st2" x1="356.1" y1="632.48" x2="356.1" y2="712.2"/>
				<polyline class="st2" points="201.97,143.5 201.97,100.98 558.07,100.98 558.07,313.58 				"/>
				<polyline class="st2" points="558.07,308.27 558.07,595.28 356.1,595.28 356.1,632.48 				"/>
				
					<line id="_x35_049_x5F_01_00000072263980332286413880000016753031115196278950_" class="st2" x1="201.97" y1="302.95" x2="201.97" y2="148.82"/>
				
					<line id="_x32_3509_x5F_01_00000181077944779375811750000007229591039833291708_" class="st2" x1="201.97" y1="403.94" x2="201.97" y2="308.27"/>
				
					<line id="_x35_050_x5F_01_00000173845412481030943110000007264409225432792451_" class="st2" x1="201.97" y1="632.48" x2="201.97" y2="409.25"/>
				
					<line id="_x35_8344_00000117672950804556034680000014429130540272869032_" class="st2" x1="201.97" y1="712.2" x2="201.97" y2="632.48"/>
				<path class="st2" d="M287.01,956.69"/>
				<path class="st2" d="M233.86,951.38"/>
			</g>
		</g>
	</g>
	<g id="Allston_Loop">
		<g id="Connections_00000075883866712509860230000010570915475464463779_">
			<g>
				<polyline class="st1" points="287.01,1041.73 287.01,1089.57 536.81,1089.57 536.81,1062.99 				"/>
				<polyline class="st1" points="366.73,951.38 366.73,988.58 287.01,988.58 287.01,1041.73 				"/>
				<line class="st1" x1="366.73" y1="861.02" x2="366.73" y2="951.38"/>
				<line class="st1" x1="366.73" y1="861.02" x2="366.73" y2="706.89"/>
				<line class="st1" x1="366.73" y1="712.2" x2="366.73" y2="627.17"/>
				<polyline class="st1" points="568.7,313.58 568.7,605.91 366.73,605.91 366.73,632.48 				"/>
				<polyline class="st1" points="728.15,186.02 728.15,170.08 568.7,170.08 568.7,313.58 				"/>
				<line class="st1" x1="728.15" y1="186.02" x2="728.15" y2="302.95"/>
				<polyline class="st1" points="728.15,302.95 728.15,372.05 845.08,372.05 845.08,393.31 				"/>
				<polyline class="st1" points="935.43,499.61 935.43,446.46 845.08,446.46 845.08,393.31 				"/>
				<polyline class="st1" points="834.45,754.72 834.45,563.39 935.43,563.39 935.43,499.61 				"/>
				<polyline class="st1" points="536.81,1062.99 536.81,1036.42 834.45,1036.42 834.45,749.41 				"/>
				<path class="st1" d="M370.88,1004.57"/>
				<path class="st1" d="M524.36,951.19"/>
				<path class="st1" d="M760.04,313.58"/>
				<path class="st1" d="M356.1,605.91"/>
			</g>
			<g>
				<polyline class="st3" points="287.01,1041.73 287.01,1089.57 536.81,1089.57 536.81,1062.99 				"/>
				<polyline class="st3" points="366.73,951.38 366.73,988.58 287.01,988.58 287.01,1041.73 				"/>
				<line class="st3" x1="366.73" y1="861.02" x2="366.73" y2="951.38"/>
				<line class="st3" x1="366.73" y1="861.02" x2="366.73" y2="706.89"/>
				<line class="st3" x1="366.73" y1="712.2" x2="366.73" y2="627.17"/>
				<polyline class="st3" points="568.7,313.58 568.7,605.91 366.73,605.91 366.73,632.48 				"/>
				<polyline class="st3" points="728.15,186.02 728.15,170.08 568.7,170.08 568.7,313.58 				"/>
				<line class="st3" x1="728.15" y1="186.02" x2="728.15" y2="302.95"/>
				<polyline class="st3" points="728.15,302.95 728.15,372.05 845.08,372.05 845.08,393.31 				"/>
				<polyline class="st3" points="935.43,499.61 935.43,446.46 845.08,446.46 845.08,393.31 				"/>
				<polyline class="st3" points="834.45,754.72 834.45,563.39 935.43,563.39 935.43,499.61 				"/>
				<polyline class="st3" points="536.81,1062.99 536.81,1036.42 834.45,1036.42 834.45,749.41 				"/>
				<path class="st3" d="M370.88,1004.57"/>
				<path class="st3" d="M524.36,951.19"/>
				<path class="st3" d="M760.04,313.58"/>
				<path class="st3" d="M356.1,605.91"/>
			</g>
		</g>
	</g>
	<g id="Mather_Express">
		<g id="Connections_00000165933145928840793960000005240245280742489523_">
			<g>
				<polyline class="st1" points="882.28,675 882.28,488.98 547.44,488.98 547.44,318.9 				"/>
				<polyline class="st1" points="738.78,180.71 738.78,159.45 547.44,159.45 547.44,313.58 				"/>
				<polyline class="st1" points="738.78,302.95 738.78,361.42 855.71,361.42 855.71,393.31 				"/>
				<polyline class="st1" points="855.71,393.31 855.71,435.83 946.06,435.83 946.06,499.61 				"/>
				<polyline class="st1" points="946.06,494.29 946.06,574.02 823.82,574.02 823.82,754.72 				"/>
				<polyline class="st1" points="823.82,754.72 823.82,940.75 882.28,940.75 882.28,669.68 				"/>
				<line class="st1" x1="738.78" y1="180.71" x2="738.78" y2="302.95"/>
				<path class="st1" d="M850.39,653.74"/>
				<path class="st1" d="M882.28,669.68"/>
			</g>
			<g>
				<polyline class="st4" points="882.28,675 882.28,488.98 547.44,488.98 547.44,318.9 				"/>
				<polyline class="st4" points="738.78,180.71 738.78,159.45 547.44,159.45 547.44,313.58 				"/>
				<polyline class="st4" points="738.78,302.95 738.78,361.42 855.71,361.42 855.71,393.31 				"/>
				<polyline class="st4" points="855.71,393.31 855.71,435.83 946.06,435.83 946.06,499.61 				"/>
				<polyline class="st4" points="946.06,494.29 946.06,574.02 823.82,574.02 823.82,754.72 				"/>
				<polyline class="st4" points="823.82,754.72 823.82,940.75 882.28,940.75 882.28,669.68 				"/>
				<line class="st4" x1="738.78" y1="180.71" x2="738.78" y2="302.95"/>
				<path class="st4" d="M850.39,653.74"/>
				<path class="st4" d="M882.28,669.68"/>
			</g>
		</g>
	</g>
	<g id="Quad_Express">
		<g id="Connections_00000005234672524359849940000006617707159109608335_">
			<g>
				
					<line id="_x35_049_x5F_01_00000140734823898881939380000013114397416121173675_" class="st1" x1="191.34" y1="297.64" x2="191.34" y2="148.82"/>
				
					<line id="_x32_3509_x5F_01_00000078743663327415083790000012273336965414842530_" class="st1" x1="191.34" y1="308.27" x2="191.34" y2="403.94"/>
				<polyline id="_x35_050_x5F_01_00000055697359074505227720000002252243312677033385_" class="st1" points="536.81,313.58 
					536.81,467.72 191.34,467.72 191.34,409.25 				"/>
				<polyline class="st1" points="191.34,138.19 191.34,90.35 473.03,90.35 473.03,409.25 659.05,409.25 659.05,467.72 
					866.34,467.72 866.34,393.31 				"/>
				<polyline class="st1" points="536.81,313.58 536.81,148.82 749.41,148.82 749.41,180.71 				"/>
				<line class="st1" x1="749.41" y1="302.95" x2="749.41" y2="180.71"/>
				<polyline class="st1" points="749.41,302.95 749.41,350.79 866.34,350.79 866.34,393.31 				"/>
				<path class="st1" d="M462.4,249.8"/>
			</g>
			<g>
				
					<line id="_x35_049_x5F_01_00000011016441725785547820000009523740046074401674_" class="st5" x1="191.34" y1="297.64" x2="191.34" y2="148.82"/>
				
					<line id="_x32_3509_x5F_01_00000073706035969785999970000000252861906372438941_" class="st5" x1="191.34" y1="308.27" x2="191.34" y2="403.94"/>
				<polyline id="_x35_050_x5F_01_00000131337376850005256190000002987114940074385594_" class="st5" points="536.81,313.58 
					536.81,467.72 191.34,467.72 191.34,409.25 				"/>
				<polyline class="st5" points="191.34,138.19 191.34,90.35 473.03,90.35 473.03,409.25 659.05,409.25 659.05,467.72 
					866.34,467.72 866.34,393.31 				"/>
				<polyline class="st5" points="536.81,313.58 536.81,148.82 749.41,148.82 749.41,180.71 				"/>
				<line class="st5" x1="749.41" y1="302.95" x2="749.41" y2="180.71"/>
				<polyline class="st5" points="749.41,302.95 749.41,350.79 866.34,350.79 866.34,393.31 				"/>
				<path class="st5" d="M462.4,249.8"/>
			</g>
		</g>
	</g>
	<g id="Quad_Stadium_Express">
		<g id="Connections_00000062900159522537297690000006150731245249459622_">
			<g>
				
					<line id="_x32_3509_x5F_01_00000007395613251015787880000005414149754133435797_" class="st1" x1="212.6" y1="409.25" x2="212.6" y2="302.95"/>
				<polyline id="_x35_050_x5F_01_00000081645684404452612660000003855243663788486830_" class="st1" points="212.6,409.25 
					212.6,457.09 430.51,457.09 430.51,58.46 999.21,58.46 999.21,531.5 				"/>
				<polyline class="st1" points="712.2,690.94 712.2,627.17 999.21,627.17 999.21,531.5 				"/>
				<polyline class="st1" points="924.8,914.17 924.8,983.27 781.3,983.27 781.3,754.72 				"/>
				<polyline class="st1" points="712.2,690.94 712.2,728.15 781.3,728.15 781.3,754.72 				"/>
				<polyline class="st1" points="377.36,861.02 377.36,898.23 924.8,898.23 924.8,914.17 				"/>
				<line class="st1" x1="377.36" y1="706.89" x2="377.36" y2="632.48"/>
				<line class="st1" x1="377.36" y1="706.89" x2="377.36" y2="861.02"/>
				<polyline class="st1" points="377.36,632.48 377.36,616.54 271.06,616.54 271.06,111.61 212.6,111.61 212.6,143.5 				"/>
				<path class="st1" d="M382.68,722.83"/>
				
					<line id="_x35_049_x5F_01_00000078749372565695279600000017718913648134873250_" class="st1" x1="212.6" y1="302.95" x2="212.6" y2="143.5"/>
			</g>
			<g>
				
					<line id="_x32_3509_x5F_01_00000101808839606042052860000007815407928072645792_" class="st6" x1="212.6" y1="409.25" x2="212.6" y2="302.95"/>
				<polyline id="_x35_050_x5F_01_00000160177352643420357740000003698189230503946662_" class="st6" points="212.6,409.25 
					212.6,457.09 430.51,457.09 430.51,58.46 999.21,58.46 999.21,531.5 				"/>
				<polyline class="st6" points="712.2,690.94 712.2,627.17 999.21,627.17 999.21,531.5 				"/>
				<polyline class="st6" points="924.8,914.17 924.8,983.27 781.3,983.27 781.3,754.72 				"/>
				<polyline class="st6" points="712.2,690.94 712.2,728.15 781.3,728.15 781.3,754.72 				"/>
				<polyline class="st6" points="377.36,861.02 377.36,898.23 924.8,898.23 924.8,914.17 				"/>
				<line class="st6" x1="377.36" y1="706.89" x2="377.36" y2="632.48"/>
				<line class="st6" x1="377.36" y1="706.89" x2="377.36" y2="861.02"/>
				<polyline class="st6" points="377.36,632.48 377.36,616.54 271.06,616.54 271.06,111.61 212.6,111.61 212.6,143.5 				"/>
				<path class="st6" d="M382.68,722.83"/>
				
					<line id="_x35_049_x5F_01_00000099658982781883422920000011226898913321507235_" class="st6" x1="212.6" y1="302.95" x2="212.6" y2="143.5"/>
			</g>
		</g>
	</g>
	<g id="SEC_Express">
		<g id="Connections_00000152961395975834618130000009848257464571780513_">
			<g>
				<polyline class="st1" points="845.08,749.41 845.08,637.8 1009.84,637.8 1009.84,531.5 				"/>
				<polyline class="st1" points="845.08,749.41 845.08,1047.05 547.44,1047.05 547.44,1062.99 				"/>
				<line class="st1" x1="387.99" y1="632.48" x2="387.99" y2="712.2"/>
				<line class="st1" x1="387.99" y1="712.2" x2="387.99" y2="861.02"/>
				<path class="st1" d="M393.31,733.46"/>
				<polyline class="st1" points="1009.84,403.94 1009.84,47.83 451.77,47.83 451.77,616.54 387.99,616.54 387.99,632.48 				"/>
				<polyline class="st1" points="377.36,951.38 377.36,999.21 297.64,999.21 297.64,1041.73 				"/>
				<polyline class="st1" points="387.99,861.02 387.99,908.86 377.36,908.86 377.36,951.38 				"/>
				<polyline class="st1" points="297.64,1041.73 297.64,1078.94 547.44,1078.94 547.44,1062.99 				"/>
				<line class="st1" x1="1009.84" y1="403.94" x2="1009.84" y2="531.5"/>
			</g>
			<g>
				<polyline class="st7" points="845.08,749.41 845.08,637.8 1009.84,637.8 1009.84,531.5 				"/>
				<polyline class="st7" points="845.08,749.41 845.08,1047.05 547.44,1047.05 547.44,1062.99 				"/>
				<line class="st7" x1="387.99" y1="632.48" x2="387.99" y2="712.2"/>
				<line class="st7" x1="387.99" y1="712.2" x2="387.99" y2="861.02"/>
				<path class="st7" d="M393.31,733.46"/>
				<polyline class="st7" points="1009.84,403.94 1009.84,47.83 451.77,47.83 451.77,616.54 387.99,616.54 387.99,632.48 				"/>
				<polyline class="st7" points="377.36,951.38 377.36,999.21 297.64,999.21 297.64,1041.73 				"/>
				<polyline class="st7" points="387.99,861.02 387.99,908.86 377.36,908.86 377.36,951.38 				"/>
				<polyline class="st7" points="297.64,1041.73 297.64,1078.94 547.44,1078.94 547.44,1062.99 				"/>
				<line class="st7" x1="1009.84" y1="403.94" x2="1009.84" y2="531.5"/>
			</g>
		</g>
	</g>
	<g id="Quad_Yard_Express">
		<g id="Connections_00000067214389350451797780000013732721897712994729_">
			<g>
				
					<line id="_x35_049_x5F_01_00000084523722016273380950000002275072835156811437_" class="st1" x1="159.45" y1="297.64" x2="159.45" y2="148.82"/>
				
					<line id="_x32_3509_x5F_01_00000112596313578579516730000001820050670660412604_" class="st1" x1="159.45" y1="403.94" x2="159.45" y2="308.27"/>
				<polyline id="_x35_050_x5F_01_00000074421176518912532230000017736829163062716343_" class="st1" points="159.45,414.57 
					159.45,499.61 441.14,499.61 441.14,69.09 988.58,69.09 988.58,499.61 				"/>
				<polyline class="st1" points="675,547.44 675,616.54 988.58,616.54 988.58,499.61 				"/>
				<polyline class="st1" points="387.99,419.88 387.99,520.87 675,520.87 675,547.44 				"/>
				<polyline class="st1" points="387.99,414.57 387.99,58.46 159.45,58.46 159.45,138.19 				"/>
			</g>
			<g>
				
					<line id="_x35_049_x5F_01_00000024709009861067957450000011141500613190522533_" class="st8" x1="159.45" y1="297.64" x2="159.45" y2="148.82"/>
				
					<line id="_x32_3509_x5F_01_00000101098648400186885070000002223885163678227632_" class="st8" x1="159.45" y1="403.94" x2="159.45" y2="308.27"/>
				<polyline id="_x35_050_x5F_01_00000175309687067740593710000005985820086100396709_" class="st8" points="159.45,414.57 
					159.45,499.61 441.14,499.61 441.14,69.09 988.58,69.09 988.58,499.61 				"/>
				<polyline class="st8" points="675,547.44 675,616.54 988.58,616.54 988.58,499.61 				"/>
				<polyline class="st8" points="387.99,419.88 387.99,520.87 675,520.87 675,547.44 				"/>
				<polyline class="st8" points="387.99,414.57 387.99,58.46 159.45,58.46 159.45,138.19 				"/>
			</g>
		</g>
	</g>
	<g id="Crimson_Cruiser">
		<g id="Connections_00000121966445311389274800000013852891330534931589_">
			<g>
				<polyline class="st1" points="802.56,749.41 802.56,595.28 967.32,595.28 967.32,499.61 				"/>
				<polyline class="st1" points="903.54,669.68 903.54,510.24 696.26,510.24 696.26,552.76 				"/>
				<polyline class="st1" points="377.36,419.88 377.36,568.7 696.26,568.7 696.26,552.76 				"/>
				<polyline class="st1" points="170.08,138.19 170.08,69.09 377.36,69.09 377.36,419.88 				"/>
				<path class="st1" d="M170.08,148.82"/>
				<polyline id="_x35_050_x5F_01_00000103967605703087919620000003930470599649445249_" class="st1" points="170.08,414.57 
					170.08,488.98 515.55,488.98 515.55,313.58 				"/>
				<polyline class="st1" points="770.67,180.71 770.67,127.56 515.55,127.56 515.55,313.58 				"/>
				<line class="st1" x1="770.67" y1="180.71" x2="770.67" y2="302.95"/>
				<line class="st1" x1="903.54" y1="919.49" x2="903.54" y2="669.68"/>
				
					<line id="_x35_049_x5F_01_00000078731914502919644620000010726914199811505595_" class="st1" x1="170.08" y1="297.64" x2="170.08" y2="148.82"/>
				
					<line id="_x32_3509_x5F_01_00000110461994486287914210000014526714559907696554_" class="st1" x1="170.08" y1="409.25" x2="170.08" y2="302.95"/>
				<polyline class="st1" points="770.67,302.95 770.67,329.53 887.6,329.53 887.6,393.31 				"/>
				<polyline class="st1" points="887.6,393.31 887.6,414.57 967.32,414.57 967.32,499.61 				"/>
				<polyline class="st1" points="903.54,914.17 903.54,962.01 802.56,962.01 802.56,754.72 				"/>
			</g>
			<g>
				<polyline class="st9" points="802.56,749.41 802.56,595.28 967.32,595.28 967.32,499.61 				"/>
				<polyline class="st9" points="903.54,669.68 903.54,510.24 696.26,510.24 696.26,552.76 				"/>
				<polyline class="st9" points="377.36,419.88 377.36,568.7 696.26,568.7 696.26,552.76 				"/>
				<polyline class="st9" points="170.08,138.19 170.08,69.09 377.36,69.09 377.36,419.88 				"/>
				<path class="st9" d="M170.08,148.82"/>
				<polyline id="_x35_050_x5F_01_00000028320216052930324540000006491336618763314049_" class="st9" points="170.08,414.57 
					170.08,488.98 515.55,488.98 515.55,313.58 				"/>
				<polyline class="st9" points="770.67,180.71 770.67,127.56 515.55,127.56 515.55,313.58 				"/>
				<line class="st9" x1="770.67" y1="180.71" x2="770.67" y2="302.95"/>
				<line class="st9" x1="903.54" y1="919.49" x2="903.54" y2="669.68"/>
				
					<line id="_x35_049_x5F_01_00000183948780132788022930000013843690716320327579_" class="st9" x1="170.08" y1="297.64" x2="170.08" y2="148.82"/>
				
					<line id="_x32_3509_x5F_01_00000026873777635041273430000005125546700636805038_" class="st9" x1="170.08" y1="409.25" x2="170.08" y2="302.95"/>
				<polyline class="st9" points="770.67,302.95 770.67,329.53 887.6,329.53 887.6,393.31 				"/>
				<polyline class="st9" points="887.6,393.31 887.6,414.57 967.32,414.57 967.32,499.61 				"/>
				<polyline class="st9" points="903.54,914.17 903.54,962.01 802.56,962.01 802.56,754.72 				"/>
			</g>
		</g>
	</g>
	<g id="_x31_636_x27_er">
		<g id="Connections_00000123437167232906839730000015407020479262319781_">
			<g>
				
					<line id="_x35_049_x5F_01_00000158741380358500659180000012781347587277669529_" class="st1" x1="180.71" y1="297.64" x2="180.71" y2="148.82"/>
				
					<line id="_x32_3509_x5F_01_00000065043063094603157600000004586992022353910460_" class="st1" x1="180.71" y1="409.25" x2="180.71" y2="302.95"/>
				<polyline id="_x35_050_x5F_01_00000105411727622333325960000016383942314636600752_" class="st1" points="180.71,409.25 
					180.71,478.35 526.18,478.35 526.18,313.58 				"/>
				<polyline class="st1" points="760.04,186.02 760.04,138.19 526.18,138.19 526.18,313.58 				"/>
				<line class="st1" x1="760.04" y1="302.95" x2="760.04" y2="180.71"/>
				<polyline class="st1" points="813.19,754.72 813.19,584.65 956.69,584.65 956.69,499.61 				"/>
				<polyline class="st1" points="892.91,669.68 892.91,520.87 706.89,520.87 706.89,552.76 				"/>
				<polyline class="st1" points="366.73,419.88 366.73,579.33 706.89,579.33 706.89,552.76 				"/>
				<polyline class="st1" points="366.73,419.88 366.73,79.72 180.71,79.72 180.71,143.5 				"/>
				<polyline class="st1" points="892.91,919.49 892.91,951.38 813.19,951.38 813.19,754.72 				"/>
				<polyline class="st1" points="876.97,393.31 876.97,425.2 956.69,425.2 956.69,499.61 				"/>
				<polyline class="st1" points="876.97,393.31 876.97,340.16 760.04,340.16 760.04,297.64 				"/>
				<line class="st1" x1="892.91" y1="669.68" x2="892.91" y2="919.49"/>
			</g>
			<g>
				
					<line id="_x35_049_x5F_01_00000134242502905528331140000011312884777878258332_" class="st10" x1="180.71" y1="297.64" x2="180.71" y2="148.82"/>
				
					<line id="_x32_3509_x5F_01_00000058555021434650626540000007075165431425429918_" class="st10" x1="180.71" y1="409.25" x2="180.71" y2="302.95"/>
				<polyline id="_x35_050_x5F_01_00000013192155610711238830000000794729837968494251_" class="st10" points="180.71,409.25 
					180.71,478.35 526.18,478.35 526.18,313.58 				"/>
				<polyline class="st10" points="760.04,186.02 760.04,138.19 526.18,138.19 526.18,313.58 				"/>
				<line class="st10" x1="760.04" y1="302.95" x2="760.04" y2="180.71"/>
				<polyline class="st10" points="813.19,754.72 813.19,584.65 956.69,584.65 956.69,499.61 				"/>
				<polyline class="st10" points="892.91,669.68 892.91,520.87 706.89,520.87 706.89,552.76 				"/>
				<polyline class="st10" points="366.73,419.88 366.73,579.33 706.89,579.33 706.89,552.76 				"/>
				<polyline class="st10" points="366.73,419.88 366.73,79.72 180.71,79.72 180.71,143.5 				"/>
				<polyline class="st10" points="892.91,919.49 892.91,951.38 813.19,951.38 813.19,754.72 				"/>
				<polyline class="st11" points="876.97,393.31 876.97,425.2 956.69,425.2 956.69,499.61 				"/>
				<polyline class="st10" points="876.97,393.31 876.97,340.16 760.04,340.16 760.04,297.64 				"/>
				<line class="st10" x1="892.91" y1="669.68" x2="892.91" y2="919.49"/>
			</g>
		</g>
	</g>
	<g id="HUIT_Route">
		<g id="Connections_00000020399184246613370060000016137604236843476658_">
			<g>
				<polyline class="st1" points="664.37,552.76 664.37,1025.79 983.27,1025.79 				"/>
				<path class="st1" d="M690.94,648.43"/>
			</g>
			<g>
				<polyline class="st12" points="664.37,552.76 664.37,1025.79 983.27,1025.79 				"/>
				<path class="st12" d="M690.94,648.43"/>
			</g>
		</g>
	</g>
	<g id="Overnight">
		<g id="Connections_00000062194632396488075190000002147496796735448505_">
			<g>
				<polyline class="st1" points="791.93,749.41 791.93,717.52 722.83,717.52 722.83,690.94 				"/>
				<polyline class="st1" points="914.17,914.17 914.17,972.64 791.93,972.64 791.93,754.72 				"/>
				<polyline class="st1" points="148.92,143.59 148.82,47.83 398.62,47.83 398.62,531.5 685.63,531.5 685.63,552.76 				"/>
				
					<line id="_x35_049_x5F_01_00000072995477165808727780000015770499564009880509_" class="st1" x1="148.82" y1="302.95" x2="148.82" y2="143.5"/>
				
					<line id="_x32_3509_x5F_01_00000015323439547629460320000012925523273931225790_" class="st1" x1="148.82" y1="297.64" x2="148.82" y2="409.25"/>
				<polyline class="st1" points="504.92,313.58 504.92,116.93 781.3,116.93 781.3,186.02 				"/>
				<line class="st1" x1="781.3" y1="302.95" x2="781.3" y2="186.02"/>
				<polyline class="st1" points="898.23,393.31 898.23,403.94 977.95,403.94 977.95,499.61 				"/>
				<polyline class="st1" points="914.17,664.37 914.17,648.43 685.63,648.43 685.63,552.76 				"/>
				<line class="st1" x1="914.17" y1="664.37" x2="914.17" y2="919.49"/>
				<polyline id="_x35_050_x5F_01_00000150791152829461674640000006896991350890033287_" class="st1" points="504.92,313.58 
					504.92,510.24 148.82,510.24 148.82,409.25 				"/>
				<polyline class="st1" points="781.3,302.95 781.3,318.9 898.23,318.9 898.23,393.31 				"/>
				<polyline class="st1" points="977.95,499.61 977.95,605.91 722.83,605.91 722.83,690.94 				"/>
			</g>
			<g>
				<polyline class="st13" points="791.93,749.41 791.93,717.52 722.83,717.52 722.83,690.94 				"/>
				<polyline class="st13" points="914.17,914.17 914.17,972.64 791.93,972.64 791.93,754.72 				"/>
				<polyline class="st13" points="148.92,143.59 148.82,47.83 398.62,47.83 398.62,531.5 685.63,531.5 685.63,552.76 				"/>
				
					<line id="_x35_049_x5F_01_00000037657867007191431570000014595626610723057082_" class="st13" x1="148.82" y1="302.95" x2="148.82" y2="143.5"/>
				
					<line id="_x32_3509_x5F_01_00000104683210860192619360000001118727211570394553_" class="st13" x1="148.82" y1="297.64" x2="148.82" y2="409.25"/>
				<polyline class="st13" points="504.92,313.58 504.92,116.93 781.3,116.93 781.3,186.02 				"/>
				<line class="st13" x1="781.3" y1="302.95" x2="781.3" y2="186.02"/>
				<polyline class="st13" points="898.23,393.31 898.23,403.94 977.95,403.94 977.95,499.61 				"/>
				<polyline class="st13" points="914.17,664.37 914.17,648.43 685.63,648.43 685.63,552.76 				"/>
				<line class="st13" x1="914.17" y1="664.37" x2="914.17" y2="919.49"/>
				<polyline id="_x35_050_x5F_01_00000074408868235378064070000007907758961248221608_" class="st13" points="504.92,313.58 
					504.92,510.24 148.82,510.24 148.82,409.25 				"/>
				<polyline class="st13" points="781.3,302.95 781.3,318.9 898.23,318.9 898.23,393.31 				"/>
				<polyline class="st13" points="977.95,499.61 977.95,605.91 722.83,605.91 722.83,690.94 				"/>
			</g>
		</g>
	</g>
</g>
<g id="Stops">
	<g id="_x32_3509">
		<path d="M148.82,305.27c-1.28,0-2.31-1.04-2.31-2.32c0-1.28,1.04-2.31,2.31-2.31h63.78c1.28,0,2.31,1.04,2.31,2.31
			c0,1.28-1.04,2.32-2.31,2.32H148.82z"/>
		<path d="M212.6,297.64h-63.78c-2.94,0-5.31,2.38-5.31,5.31v0c0,2.94,2.38,5.31,5.31,5.31h63.78c2.94,0,5.31-2.38,5.31-5.31v0
			C217.91,300.02,215.53,297.64,212.6,297.64L212.6,297.64z"/>
	</g>
	<g id="_x35_050">
		<path d="M148.82,411.57c-1.28,0-2.31-1.04-2.31-2.31s1.04-2.31,2.31-2.31h63.78c1.28,0,2.31,1.04,2.31,2.31s-1.04,2.31-2.31,2.31
			H148.82z"/>
		<path d="M212.6,403.94h-63.78c-2.94,0-5.31,2.38-5.31,5.31c0,2.94,2.38,5.31,5.31,5.31h63.78c2.94,0,5.31-2.38,5.31-5.31
			C217.91,406.32,215.53,403.94,212.6,403.94L212.6,403.94z"/>
	</g>
	<g id="_x35_049">
		<path d="M148.82,145.82c-1.28,0-2.31-1.04-2.31-2.31s1.04-2.31,2.31-2.31h63.78c1.28,0,2.31,1.04,2.31,2.31s-1.04,2.31-2.31,2.31
			H148.82z"/>
		<path d="M212.6,138.19h-63.78c-2.94,0-5.31,2.38-5.31,5.31c0,2.94,2.38,5.31,5.31,5.31h63.78c2.94,0,5.31-2.38,5.31-5.31
			C217.91,140.57,215.53,138.19,212.6,138.19L212.6,138.19z"/>
	</g>
	<g id="_x35_040">
		<path d="M356.1,714.52c-1.28,0-2.31-1.04-2.31-2.31s1.04-2.32,2.31-2.32h31.89c1.28,0,2.32,1.04,2.32,2.32s-1.04,2.31-2.32,2.31
			H356.1z"/>
		<path d="M387.99,706.89H356.1c-2.94,0-5.31,2.38-5.31,5.31s2.38,5.31,5.31,5.31h31.89c2.94,0,5.31-2.38,5.31-5.31
			S390.93,706.89,387.99,706.89L387.99,706.89z"/>
	</g>
	<g id="_x35_039">
		<path d="M356.1,863.53c-1.38,0-2.51-1.12-2.51-2.51c0-1.38,1.13-2.51,2.51-2.51h31.89c1.38,0,2.51,1.12,2.51,2.51
			c0,1.38-1.13,2.51-2.51,2.51H356.1z"/>
		<path d="M387.99,855.71H356.1c-2.94,0-5.31,2.38-5.31,5.32c0,2.94,2.38,5.31,5.31,5.31h31.89c2.94,0,5.31-2.38,5.31-5.31
			C393.31,858.09,390.93,855.71,387.99,855.71L387.99,855.71z"/>
	</g>
	<g id="_x36_3189">
		<path d="M356.1,953.69c-1.28,0-2.31-1.04-2.31-2.32s1.04-2.31,2.31-2.31h21.26c1.28,0,2.31,1.04,2.31,2.31s-1.04,2.32-2.31,2.32
			H356.1z"/>
		<path d="M377.36,946.06H356.1c-2.94,0-5.31,2.38-5.31,5.31s2.38,5.31,5.31,5.31h21.26c2.94,0,5.31-2.38,5.31-5.31
			S380.3,946.06,377.36,946.06L377.36,946.06z"/>
	</g>
	<g id="_x35_8343">
		<path d="M276.38,1044.05c-1.28,0-2.31-1.04-2.31-2.31s1.04-2.32,2.31-2.32h21.26c1.28,0,2.31,1.04,2.31,2.32s-1.04,2.31-2.31,2.31
			H276.38z"/>
		<path d="M297.64,1036.42h-21.26c-2.94,0-5.31,2.38-5.31,5.31c0,2.94,2.38,5.32,5.31,5.32h21.26c2.94,0,5.31-2.38,5.31-5.32
			C302.95,1038.8,300.57,1036.42,297.64,1036.42L297.64,1036.42z"/>
	</g>
	<g id="_x35_041">
		<path d="M356.1,634.79c-1.28,0-2.31-1.04-2.31-2.31s1.04-2.32,2.31-2.32h31.89c1.28,0,2.32,1.04,2.32,2.32s-1.04,2.31-2.32,2.31
			H356.1z"/>
		<path d="M387.99,627.17H356.1c-2.94,0-5.31,2.38-5.31,5.31s2.38,5.32,5.31,5.32h31.89c2.94,0,5.31-2.38,5.31-5.32
			S390.93,627.17,387.99,627.17L387.99,627.17z"/>
	</g>
	<g id="_x35_036">
		<path d="M536.88,1065.31c-1.32,0-2.39-1.07-2.39-2.39s1.07-2.39,2.39-2.39h10.48c1.32,0,2.39,1.07,2.39,2.39s-1.07,2.39-2.39,2.39
			H536.88z"/>
		<path d="M547.37,1057.53h-10.48c-2.98,0-5.39,2.41-5.39,5.39c0,2.98,2.41,5.39,5.39,5.39h10.48c2.98,0,5.39-2.41,5.39-5.39
			C552.76,1059.94,550.34,1057.53,547.37,1057.53L547.37,1057.53z"/>
	</g>
	<g id="_x35_054">
		<path d="M201.9,714.67c-1.32,0-2.39-1.07-2.39-2.39c0-1.32,1.07-2.39,2.39-2.39c1.32,0,2.39,1.07,2.39,2.39
			C204.28,713.59,203.21,714.67,201.9,714.67z"/>
		<path d="M201.9,706.89c-2.98,0-5.39,2.41-5.39,5.39s2.41,5.39,5.39,5.39s5.39-2.41,5.39-5.39S204.87,706.89,201.9,706.89
			L201.9,706.89z"/>
	</g>
	<g id="_x32_3930">
		<path d="M202.04,863.34c-1.32,0-2.39-1.07-2.39-2.39c0-1.32,1.07-2.39,2.39-2.39c1.32,0,2.39,1.07,2.39,2.39
			C204.43,862.27,203.36,863.34,202.04,863.34z"/>
		<path d="M202.04,855.56c-2.98,0-5.39,2.41-5.39,5.39s2.41,5.39,5.39,5.39s5.39-2.41,5.39-5.39S205.02,855.56,202.04,855.56
			L202.04,855.56z"/>
	</g>
	<g id="_x36_3190">
		<path d="M202.04,953.69c-1.32,0-2.39-1.07-2.39-2.39c0-1.32,1.07-2.39,2.39-2.39c1.32,0,2.39,1.07,2.39,2.39
			C204.43,952.62,203.36,953.69,202.04,953.69z"/>
		<path d="M202.04,945.92c-2.98,0-5.39,2.41-5.39,5.39s2.41,5.39,5.39,5.39s5.39-2.41,5.39-5.39S205.02,945.92,202.04,945.92
			L202.04,945.92z"/>
	</g>
	<g id="_x31_32600">
		<path d="M366.73,423.27c-1.87,0-3.39-1.52-3.39-3.39s1.52-3.39,3.39-3.39h31.89c1.87,0,3.39,1.52,3.39,3.39s-1.52,3.39-3.39,3.39
			H366.73z"/>
		<path d="M398.62,418.41c0.81,0,1.47,0.66,1.47,1.47c0,0.81-0.66,1.47-1.47,1.47h-31.89c-0.81,0-1.47-0.66-1.47-1.47
			c0-0.81,0.66-1.47,1.47-1.47H398.62 M398.62,414.57h-31.89c-2.94,0-5.31,2.38-5.31,5.31v0c0,2.94,2.38,5.31,5.31,5.31h31.89
			c2.94,0,5.32-2.38,5.32-5.31v0C403.94,416.95,401.56,414.57,398.62,414.57L398.62,414.57z"/>
	</g>
	<g id="_x35_8381">
		<path d="M983.34,1029.22c-1.85,0-3.36-1.51-3.36-3.36s1.51-3.36,3.36-3.36c1.85,0,3.36,1.51,3.36,3.36
			S985.19,1029.22,983.34,1029.22z"/>
		<path d="M983.34,1024.53c0.73,0,1.33,0.6,1.33,1.33c0,0.74-0.6,1.33-1.33,1.33c-0.74,0-1.33-0.6-1.33-1.33
			C982.01,1025.13,982.61,1024.53,983.34,1024.53 M983.34,1020.47c-2.98,0-5.39,2.41-5.39,5.39c0,2.98,2.41,5.39,5.39,5.39
			c2.98,0,5.39-2.41,5.39-5.39C988.73,1022.88,986.32,1020.47,983.34,1020.47L983.34,1020.47z"/>
	</g>
	<g id="_x35_8344">
		<path d="M201.9,634.94c-1.32,0-2.39-1.07-2.39-2.39c0-1.32,1.07-2.39,2.39-2.39c1.32,0,2.39,1.07,2.39,2.39
			C204.28,633.87,203.21,634.94,201.9,634.94z"/>
		<path d="M201.9,627.17c-2.98,0-5.39,2.41-5.39,5.39s2.41,5.39,5.39,5.39s5.39-2.41,5.39-5.39S204.87,627.17,201.9,627.17
			L201.9,627.17z"/>
	</g>
	<g id="_x35_042">
		<path d="M504.92,315.9c-1.28,0-2.31-1.04-2.31-2.31s1.04-2.31,2.31-2.31h63.78c1.28,0,2.32,1.04,2.32,2.31s-1.04,2.31-2.32,2.31
			H504.92z"/>
		<path d="M568.7,308.27h-63.78c-2.94,0-5.31,2.38-5.31,5.31c0,2.94,2.38,5.31,5.31,5.31h63.78c2.94,0,5.32-2.38,5.32-5.31
			C574.02,310.65,571.64,308.27,568.7,308.27L568.7,308.27z"/>
	</g>
	<g id="_x35_043">
		<path d="M728.15,188.34c-1.28,0-2.32-1.04-2.32-2.31s1.04-2.31,2.32-2.31h53.15c1.28,0,2.32,1.04,2.32,2.31s-1.04,2.31-2.32,2.31
			H728.15z"/>
		<path d="M781.3,180.71h-53.15c-2.94,0-5.32,2.38-5.32,5.31s2.38,5.31,5.32,5.31h53.15c2.94,0,5.31-2.38,5.31-5.31
			S784.23,180.71,781.3,180.71L781.3,180.71z"/>
	</g>
	<g id="_x36_248">
		<path d="M728.15,305.27c-1.28,0-2.32-1.04-2.32-2.32c0-1.28,1.04-2.31,2.32-2.31h53.15c1.28,0,2.32,1.04,2.32,2.31
			c0,1.28-1.04,2.32-2.32,2.32H728.15z"/>
		<path d="M781.3,297.64h-53.15c-2.94,0-5.32,2.38-5.32,5.31v0c0,2.94,2.38,5.31,5.32,5.31h53.15c2.94,0,5.31-2.38,5.31-5.31v0
			C786.61,300.02,784.23,297.64,781.3,297.64L781.3,297.64z"/>
	</g>
	<g id="_x35_044">
		<path d="M845.08,395.62c-1.28,0-2.31-1.04-2.31-2.31s1.04-2.31,2.31-2.31h53.15c1.28,0,2.31,1.04,2.31,2.31s-1.04,2.31-2.31,2.31
			H845.08z"/>
		<path d="M898.23,387.99h-53.15c-2.94,0-5.31,2.38-5.31,5.31v0c0,2.94,2.38,5.31,5.31,5.31h53.15c2.94,0,5.31-2.38,5.31-5.31v0
			C903.54,390.37,901.16,387.99,898.23,387.99L898.23,387.99z"/>
	</g>
	<g id="_x35_045">
		<path d="M935.43,533.81c-1.28,0-2.31-1.04-2.31-2.31s1.04-2.31,2.31-2.31h74.41c1.28,0,2.31,1.04,2.31,2.31s-1.04,2.31-2.31,2.31
			H935.43z"/>
		<path d="M1009.84,526.18h-74.41c-2.94,0-5.31,2.38-5.31,5.31l0,0c0,2.94,2.38,5.31,5.31,5.31h74.41c2.94,0,5.31-2.38,5.31-5.31
			l0,0C1015.16,528.56,1012.78,526.18,1009.84,526.18L1009.84,526.18z"/>
	</g>
	<g id="_x35_047">
		<path d="M882.28,666.69c-1.28,0-2.31-1.04-2.31-2.32s1.04-2.31,2.31-2.31h31.89c1.28,0,2.32,1.04,2.32,2.31s-1.04,2.32-2.32,2.32
			H882.28z"/>
		<path d="M914.17,659.06h-31.89c-2.94,0-5.32,2.38-5.32,5.31s2.38,5.31,5.32,5.31h31.89c2.94,0,5.31-2.38,5.31-5.31
			S917.11,659.06,914.17,659.06L914.17,659.06z"/>
	</g>
	<g id="_x36_854">
		<path d="M781.3,751.72c-1.28,0-2.31-1.04-2.31-2.32s1.04-2.31,2.31-2.31h63.78c1.28,0,2.31,1.04,2.31,2.31s-1.04,2.32-2.31,2.32
			H781.3z"/>
		<path d="M845.08,744.09H781.3c-2.94,0-5.31,2.38-5.31,5.31s2.38,5.31,5.31,5.31h63.78c2.94,0,5.31-2.38,5.31-5.31
			S848.01,744.09,845.08,744.09L845.08,744.09z"/>
	</g>
	<g id="_x35_046">
		<path d="M882.28,921.8c-1.28,0-2.31-1.04-2.31-2.32s1.04-2.32,2.31-2.32h42.52c1.28,0,2.32,1.04,2.32,2.32s-1.04,2.32-2.32,2.32
			H882.28z"/>
		<path d="M924.8,914.17h-42.52c-2.94,0-5.32,2.38-5.32,5.31s2.38,5.31,5.32,5.31h42.52c2.94,0,5.31-2.38,5.31-5.31
			S927.74,914.17,924.8,914.17L924.8,914.17z"/>
	</g>
	<g id="_x35_051">
		<path d="M712.2,693.26c-1.28,0-2.31-1.04-2.31-2.31s1.04-2.32,2.31-2.32h10.63c1.28,0,2.32,1.04,2.32,2.32s-1.04,2.31-2.32,2.31
			H712.2z"/>
		<path d="M722.83,685.63H712.2c-2.94,0-5.32,2.38-5.32,5.32s2.38,5.31,5.32,5.31h10.63c2.94,0,5.32-2.38,5.32-5.31
			S725.77,685.63,722.83,685.63L722.83,685.63z"/>
	</g>
	<g id="_x35_048">
		<path d="M664.37,555.07c-1.28,0-2.32-1.04-2.32-2.31s1.04-2.31,2.32-2.31h42.52c1.28,0,2.31,1.04,2.31,2.31s-1.04,2.31-2.31,2.31
			H664.37z"/>
		<path d="M706.89,547.44h-42.52c-2.94,0-5.31,2.38-5.31,5.31s2.38,5.32,5.31,5.32h42.52c2.94,0,5.31-2.38,5.31-5.32
			S709.82,547.44,706.89,547.44L706.89,547.44z"/>
	</g>
	<g id="_x36_3190_00000179614941241501949350000015366534711282339489_">
		<circle cx="1009.92" cy="403.86" r="2.39"/>
		<path d="M1009.92,398.48c-2.98,0-5.39,2.41-5.39,5.39s2.41,5.39,5.39,5.39c2.98,0,5.39-2.41,5.39-5.39
			S1012.89,398.48,1009.92,398.48L1009.92,398.48z"/>
	</g>
</g>
<g id="Labels">
	<g id="Stop_IDs">
		
			<text id="id_00000026146056914025059470000008635052343894204605_" transform="matrix(1 0 0 1 106.2988 132.8743)" class="st14 st15">5049</text>
		
			<text id="id_00000125591403964218869830000006741277625542006935_" transform="matrix(1 0 0 1 100.9843 287.0079)" class="st14 st15">23509</text>
		
			<text id="id_00000159456321593000925920000007982833177717284497_" transform="matrix(1 0 0 1 106.2988 393.3071)" class="st14 st15">5050</text>
		
			<text id="id_00000083807890302618313850000006208512013518452633_" transform="matrix(1 0 0 1 122.2437 616.5356)" class="st14 st15">58344</text>
		
			<text id="id_00000138541222383510760000000010453606564128042409_" transform="matrix(1 0 0 1 122.244 696.2599)" class="st14 st15">5054</text>
		
			<text id="id_00000091011977759907132080000006531991853800686013_" transform="matrix(1 0 0 1 106.2988 876.968)" class="st14 st15">23930</text>
		
			<text id="id_00000153701847218922144740000001781748892142680751_" transform="matrix(1 0 0 1 430.5118 733.4647)" class="st14 st15">5040 </text>
		
			<text id="id_00000107549607127437053410000009949756733877679253_" transform="matrix(1 0 0 1 276.378 876.9686)" class="st14 st15">5039</text>
		
			<text id="id_00000067202328549708750220000004393485971187570855_" transform="matrix(1 0 0 1 271.0626 967.3232)" class="st14 st15">63189</text>
		
			<text id="id_00000158023844628501770780000006100639142213409719_" transform="matrix(1 0 0 1 233.8584 1031.1019)" class="st14 st15">58343</text>
		
			<text id="id_00000022531103954911652960000000344992840240117394_" transform="matrix(1 0 0 1 111.614 967.3232)" class="st14 st15">63190</text>
		
			<text id="id_00000003095275200444144620000008050150812115124926_" transform="matrix(1 0 0 1 435.8262 653.7404)" class="st14 st15">5041</text>
		
			<text id="id_00000140713732733467510760000000649222243330046643_" transform="matrix(1 0 0 1 584.6453 292.3228)" class="st14 st15">5042</text>
		
			<text id="id_00000152974570658933404830000018399185622384698254_" transform="matrix(1 0 0 1 797.2437 170.0789)" class="st14 st15">5043</text>
		
			<text id="id_00000083087391652731076440000013298644731357394107_" transform="matrix(1 0 0 1 685.6298 281.6927)" class="st14 st15">6248</text>
		
			<text id="id_00000078758023362363626490000007132130801249681280_" transform="matrix(1 0 0 1 738.7793 568.7009)" class="st14 st15">5048</text>
		
			<text id="id_00000044141794854813522820000016508123987379900329_" transform="matrix(1 0 0 1 744.0942 675.0004)" class="st14 st15">5051</text>
		
			<text id="id_00000017503557416873374940000000126821484751571126_" transform="matrix(1 0 0 1 1020.4719 515.5514)" class="st14 st15">5045</text>
		
			<text id="id_00000057840356029311640350000012448810628219255725_" transform="matrix(1 0 0 1 935.4331 653.7402)" class="st14 st15">5047</text>
		
			<text id="id_00000083082166680890190130000009254546931927295139_" transform="matrix(1 0 0 1 696.2595 754.7252)" class="st14 st15">6854</text>
		
			<text id="id_00000158023231034649181150000016875129423766430911_" transform="matrix(1 0 0 1 940.7479 898.2287)" class="st16 st15">5046</text>
		
			<text id="id_00000108283130278174458960000002432300366696034707_" transform="matrix(1 0 0 1 308.2678 398.6218)" class="st14 st15">132600</text>
		
			<text id="id_00000180340323969998467150000006938155007162486974_" transform="matrix(1 0 0 1 791.9294 409.252)" class="st14 st15">5044</text>
		
			<text id="id_00000177460819801156206950000004449633632656487073_" transform="matrix(1 0 0 1 1015.1575 1015.1573)" class="st14 st15">58381</text>
		<text id="id" transform="matrix(1 0 0 1 589.9602 1084.2523)" class="st14 st15">5036</text>
		
			<text id="id_00000052801001335620443510000000791214046117432721_" transform="matrix(1 0 0 1 1020.4723 387.9924)" class="st14 st15">154627</text>
	</g>
	<g id="Stop_Names">
		
			<text id="name_00000179631714328252592640000014259541224567145881_" transform="matrix(1 0 0 1 106.2993 143.5044)" class="st17 st15">Quad</text>
		<text id="name_00000011011701487255421080000016161704623377040062_" transform="matrix(1 0 0 1 92.7828 302.9536)"><tspan x="0" y="0" class="st17 st15">Radcliffe</tspan><tspan x="11.9" y="14.4" class="st17 st15">Yard</tspan></text>
		
			<text id="name_00000098183888042949589890000012427008826693886379_" transform="matrix(1 0 0 1 90.3544 409.2527)" class="st17 st15">Mass Ave</text>
		
			<text id="name_00000086687112899371088510000014368271545681890731_" transform="matrix(1 0 0 1 85.0394 632.4803)" class="st17 st15">Harvard Square (S)</text>
		
			<text id="name_00000041985109533355309750000015525958238175857282_" transform="matrix(1 0 0 1 85.0392 712.2045)" class="st17 st15">Kennedy School (S)</text>
		
			<text id="name_00000048498676985743350040000005056803071727373462_" transform="matrix(1 0 0 1 79.7241 861.0234)" class="st17 st15">Harvard Stadium (S)</text>
		
			<text id="name_00000155842303634410569060000009084460797473904560_" transform="matrix(1 0 0 1 398.6219 712.2048)" class="st17 st15">Kennedy School (N) </text>
		
			<text id="name_00000048467951870313279630000003914834630257820039_" transform="matrix(1 0 0 1 233.8583 861.024)" class="st17 st15">Harvard Stadium (N)</text>
		
			<text id="name_00000121266442711160444990000012059983838680610998_" transform="matrix(1 0 0 1 249.8027 951.3776)" class="st17 st15">Barry’s Corner (N)</text>
		
			<text id="name_00000130609878938150848440000008789151669714208178_" transform="matrix(1 0 0 1 249.803 1041.7327)" class="st17 st15">SEC</text>
		
			<text id="name_00000119807903160359178920000012147272745039506305_" transform="matrix(1 0 0 1 95.6692 951.3776)" class="st17 st15">Barry’s Corner (S)</text>
		
			<text id="name_00000101789367597177538930000003658880722504008090_" transform="matrix(1 0 0 1 398.6218 637.7957)" class="st17 st15">Harvard Square (N)</text>
		<text id="name_00000070818192324916501300000009605691945589999756_" transform="matrix(1 0 0 1 584.6209 308.2685)"><tspan x="0" y="0" class="st17 st15">Law</tspan><tspan x="-6.69" y="14.4" class="st17 st15">School</tspan></text>
		<text id="name_00000168096060157352274860000005329209060281850540_" transform="matrix(1 0 0 1 791.4978 180.7091)"><tspan x="0" y="0" class="st17 st15">Maxwell</tspan><tspan x="4.44" y="14.4" class="st17 st15">Dorkin</tspan></text>
		<text id="name_00000161631580382900797920000000779526191639098242_" transform="matrix(1 0 0 1 675.8984 297.6385)"><tspan x="0" y="0" class="st17 st15">Science</tspan><tspan x="2.24" y="14.4" class="st17 st15">Center</tspan></text>
		
			<text id="name_00000160905112079929145220000004745029096716107958_" transform="matrix(1 0 0 1 717.5191 552.756)" class="st17 st15">Widener Gate</text>
		<text id="name_00000101826083928552306410000006818397917672379276_" transform="matrix(1 0 0 1 735.3863 685.6295)"><tspan x="0" y="0" class="st17 st15">Winthrop</tspan><tspan x="8.53" y="14.4" class="st17 st15">House</tspan></text>
		<text id="name_00000152239823386738496650000004463532102819060359_" transform="matrix(1 0 0 1 1016.3689 531.4962)"><tspan x="0" y="0" class="st17 st15">Lamont</tspan><tspan x="1.18" y="14.4" class="st17 st15">Library</tspan></text>
		
			<text id="name_00000150089637478820786100000016822870341684419228_" transform="matrix(1 0 0 1 924.8029 664.3705)" class="st17 st15">The Inn</text>
		<text id="name_00000169540762873602345990000006236805281608204950_" transform="matrix(1 0 0 1 726.5253 749.4092)"><tspan x="0" y="0" class="st17 st15">Leverett</tspan><tspan x="6.76" y="14.4" class="st17 st15">House</tspan></text>
		<text id="name_00000138565078799508827670000006747228102656047508_" transform="matrix(1 0 0 1 938.0219 914.1729)"><tspan x="0" y="0" class="st17 st15">Mather</tspan><tspan x="2.55" y="14.4" class="st17 st15">House</tspan></text>
		
			<text id="name_00000110428343936146251570000017727098918755983544_" transform="matrix(1 0 0 1 558.071 1068.3073)" class="st17 st15">One Western Ave</text>
		<text id="name_00000001633018824733726590000014633385585953705372_" transform="matrix(1 0 0 1 297.6378 414.5676)"><tspan x="0" y="0" class="st17 st15">Cambridge</tspan><tspan x="0" y="14.4" class="st17 st15">Commons</tspan></text>
		
			<text id="name_00000060017398849164563590000006620981667774977935_" transform="matrix(1 0 0 1 760.0392 393.3073)" class="st17 st15">Memorial Hall</text>
		
			<text id="name_00000008107908501795743410000005058877057714910874_" transform="matrix(1 0 0 1 1000.4762 1031.1021)" class="st17 st15">784 Memorial</text>
		<text id="name_00000085963912350459249310000016610463972840605332_" transform="matrix(1 0 0 1 1021.7157 403.9372)"><tspan x="0" y="0" class="st17 st15">Sever</tspan><tspan x="1.84" y="14.4" class="st17 st15">Gate</tspan></text>
	</g>
</g>
</svg>
