<?xml version="1.0" encoding="UTF-8"?>
<svg xmlns="http://www.w3.org/2000/svg" viewBox="0 0 913.4 914.86">
  <defs>
    <style>
      .cls-1 {
        letter-spacing: .01em;
      }

      .cls-2 {
        letter-spacing: -.05em;
      }

      .cls-3 {
        letter-spacing: -.01em;
      }

      .cls-4 {
        stroke: blue;
      }

      .cls-4, .cls-5, .cls-6, .cls-7, .cls-8, .cls-9, .cls-10, .cls-11, .cls-12, .cls-13, .cls-14, .cls-15, .cls-16 {
        fill: none;
      }

      .cls-4, .cls-5, .cls-6, .cls-7, .cls-8, .cls-11, .cls-12, .cls-13, .cls-14, .cls-15, .cls-16 {
        stroke-miterlimit: 10;
      }

      .cls-4, .cls-5, .cls-6, .cls-7, .cls-8, .cls-12, .cls-13, .cls-14, .cls-15, .cls-16 {
        stroke-width: 6px;
      }

      .cls-5 {
        stroke: #475ac6;
      }

      .cls-6, .cls-11 {
        stroke: #11c7f2;
      }

      .cls-7 {
        stroke: #ead61c;
      }

      .cls-17 {
        letter-spacing: -.02em;
      }

      .cls-18 {
        letter-spacing: .02em;
      }

      .cls-19 {
        letter-spacing: 0em;
      }

      .cls-8 {
        stroke: #c1272d;
      }

      .cls-20 {
        letter-spacing: 0em;
      }

      .cls-21 {
        letter-spacing: 0em;
      }

      .cls-22 {
        letter-spacing: 0em;
      }

      .cls-9 {
        stroke-width: 10px;
      }

      .cls-9, .cls-10 {
        stroke: #231f20;
      }

      .cls-23 {
        letter-spacing: 0em;
      }

      .cls-10 {
        stroke-width: 9px;
      }

      .cls-24 {
        letter-spacing: 0em;
      }

      .cls-25 {
        letter-spacing: 0em;
      }

      .cls-26, .cls-27 {
        fill: #000;
      }

      .cls-26, .cls-28 {
        stroke-width: 0px;
      }

      .cls-11 {
        stroke-width: 6.52px;
      }

      .cls-29 {
        letter-spacing: -.07em;
      }

      .cls-30 {
        letter-spacing: -.04em;
      }

      .cls-31 {
        letter-spacing: 0em;
      }

      .cls-32 {
        letter-spacing: .02em;
      }

      .cls-33 {
        letter-spacing: 0em;
      }

      .cls-34 {
        letter-spacing: 0em;
      }

      .cls-35 {
        letter-spacing: -.02em;
      }

      .cls-36 {
        letter-spacing: -.01em;
      }

      .cls-27 {
        font-family: MyriadPro-Regular, 'Myriad Pro';
        font-size: 12px;
      }

      .cls-37 {
        letter-spacing: 0em;
      }

      .cls-12 {
        stroke: #2ab74b;
      }

      .cls-38 {
        letter-spacing: .03em;
      }

      .cls-13 {
        stroke: #c945e5;
      }

      .cls-39 {
        letter-spacing: 0em;
      }

      .cls-40 {
        letter-spacing: 0em;
      }

      .cls-41 {
        letter-spacing: -.01em;
      }

      .cls-42 {
        letter-spacing: 0em;
      }

      .cls-43 {
        letter-spacing: .01em;
      }

      .cls-44 {
        letter-spacing: -.01em;
      }

      .cls-45 {
        letter-spacing: 0em;
      }

      .cls-46 {
        letter-spacing: 0em;
      }

      .cls-47 {
        letter-spacing: -.03em;
      }

      .cls-14 {
        stroke: #ed1c24;
      }

      .cls-48 {
        letter-spacing: 0em;
      }

      .cls-28 {
        fill: #fff;
      }

      .cls-49 {
        letter-spacing: -.01em;
      }

      .cls-50 {
        letter-spacing: -.07em;
      }

      .cls-15 {
        stroke: #f7ea08;
      }

      .cls-16 {
        stroke: #dd1f95;
      }
    </style>
  </defs>
  <g id="Labels">
    <text class="cls-27" transform="translate(37.21 82.72)"><tspan class="cls-40" x="0" y="0">Q</tspan><tspan class="cls-23" x="8.3" y="0">uad</tspan></text>
    <text class="cls-27" transform="translate(0 236.86)"><tspan class="cls-1" x="0" y="0">R</tspan><tspan x="6.6" y="0">adcli</tspan><tspan class="cls-49" x="30.17" y="0">ff</tspan><tspan x="37.01" y="0">e</tspan><tspan class="cls-2" x="43.02" y="0"> </tspan><tspan class="cls-50" x="45.01" y="0">Y</tspan><tspan x="50.66" y="0">a</tspan><tspan class="cls-46" x="56.45" y="0">r</tspan><tspan x="60.25" y="0">d</tspan></text>
    <text class="cls-27" transform="translate(21.26 348.47)"><tspan class="cls-42" x="0" y="0">M</tspan><tspan class="cls-23" x="9.72" y="0">ass </tspan><tspan class="cls-17" x="27.55" y="0">A</tspan><tspan class="cls-3" x="34.64" y="0">v</tspan><tspan class="cls-23" x="40.3" y="0">e</tspan></text>
    <text class="cls-27" transform="translate(21.26 465.4)"><tspan x="0" y="0">Ha</tspan><tspan class="cls-18" x="13.61" y="0">r</tspan><tspan class="cls-37" x="17.83" y="0">v</tspan><tspan x="23.56" y="0">a</tspan><tspan class="cls-46" x="29.34" y="0">r</tspan><tspan x="33.14" y="0">d </tspan><tspan class="cls-42" x="42.46" y="0">S</tspan><tspan x="48.44" y="0">qua</tspan><tspan class="cls-3" x="67.6" y="0">r</tspan><tspan class="cls-23" x="71.4" y="0">e (S)</tspan></text>
    <text class="cls-27" transform="translate(21.26 571.7)"><tspan x="0" y="0">Kennedy </tspan><tspan class="cls-42" x="46.81" y="0">S</tspan><tspan x="52.8" y="0">chool (S)</tspan></text>
    <text class="cls-27" transform="translate(21.26 731.15)"><tspan x="0" y="0">Ha</tspan><tspan class="cls-18" x="13.61" y="0">r</tspan><tspan class="cls-37" x="17.83" y="0">v</tspan><tspan x="23.56" y="0">a</tspan><tspan class="cls-46" x="29.34" y="0">r</tspan><tspan x="33.14" y="0">d </tspan><tspan class="cls-24" x="42.46" y="0">S</tspan><tspan x="48.34" y="0">tadium (S)</tspan></text>
    <text class="cls-27" transform="translate(324.21 561.07)"><tspan x="0" y="0">Kennedy </tspan><tspan class="cls-42" x="46.81" y="0">S</tspan><tspan x="52.8" y="0">chool (N) </tspan></text>
    <text class="cls-27" transform="translate(324.21 709.89)"><tspan x="0" y="0">Ha</tspan><tspan class="cls-18" x="13.61" y="0">r</tspan><tspan class="cls-37" x="17.83" y="0">v</tspan><tspan x="23.56" y="0">a</tspan><tspan class="cls-46" x="29.34" y="0">r</tspan><tspan x="33.14" y="0">d </tspan><tspan class="cls-24" x="42.46" y="0">S</tspan><tspan x="48.34" y="0">tadium (N)</tspan></text>
    <text class="cls-27" transform="translate(324.21 805.56)"><tspan x="0" y="0">Ba</tspan><tspan class="cls-20" x="12.29" y="0">r</tspan><tspan class="cls-18" x="16.26" y="0">r</tspan><tspan class="cls-38" x="20.48" y="0">y</tspan><tspan class="cls-29" x="26.5" y="0">’</tspan><tspan x="28.12" y="0">s </tspan><tspan class="cls-41" x="35.41" y="0">C</tspan><tspan x="42.24" y="0">o</tspan><tspan class="cls-22" x="48.83" y="0">r</tspan><tspan class="cls-33" x="52.8" y="0">ner (N)</tspan></text>
    <text class="cls-27" transform="translate(260.43 911.86)"><tspan x="0" y="0">SEC</tspan></text>
    <text class="cls-27" transform="translate(31.89 848.08)"><tspan x="0" y="0">Ba</tspan><tspan class="cls-20" x="12.29" y="0">r</tspan><tspan class="cls-18" x="16.26" y="0">r</tspan><tspan class="cls-38" x="20.48" y="0">y</tspan><tspan class="cls-29" x="26.5" y="0">’</tspan><tspan x="28.12" y="0">s </tspan><tspan class="cls-41" x="35.41" y="0">C</tspan><tspan x="42.24" y="0">o</tspan><tspan class="cls-22" x="48.83" y="0">r</tspan><tspan class="cls-33" x="52.8" y="0">ner (S)</tspan></text>
    <text class="cls-27" transform="translate(329.53 481.35)"><tspan x="0" y="0">Ha</tspan><tspan class="cls-18" x="13.61" y="0">r</tspan><tspan class="cls-37" x="17.83" y="0">v</tspan><tspan x="23.56" y="0">a</tspan><tspan class="cls-46" x="29.34" y="0">r</tspan><tspan x="33.14" y="0">d </tspan><tspan class="cls-42" x="42.46" y="0">S</tspan><tspan x="48.44" y="0">qua</tspan><tspan class="cls-3" x="67.6" y="0">r</tspan><tspan class="cls-23" x="71.4" y="0">e (N)</tspan></text>
    <text class="cls-27" transform="translate(475.99 252.07)"><tspan x="0" y="0">L</tspan><tspan class="cls-45" x="5.66" y="0">a</tspan><tspan x="11.35" y="0">w </tspan><tspan class="cls-42" x="22.73" y="0">S</tspan><tspan x="28.72" y="0">chool</tspan></text>
    <text class="cls-27" transform="translate(706.89 204.97)"><tspan class="cls-42" x="0" y="0">M</tspan><tspan class="cls-23" x="9.72" y="0">a</tspan><tspan class="cls-43" x="15.5" y="0">x</tspan><tspan class="cls-3" x="21.24" y="0">w</tspan><tspan x="29.95" y="0">ell </tspan><tspan class="cls-20" x="44.17" y="0">D</tspan><tspan x="52.21" y="0">o</tspan><tspan class="cls-22" x="58.8" y="0">r</tspan><tspan class="cls-32" x="62.77" y="0">k</tspan><tspan class="cls-33" x="68.6" y="0">in</tspan></text>
    <text class="cls-27" transform="translate(688.59 369)"><tspan class="cls-42" x="0" y="0">S</tspan><tspan x="5.99" y="0">cien</tspan><tspan class="cls-25" x="26.84" y="0">c</tspan><tspan class="cls-23" x="32.15" y="0">e </tspan><tspan class="cls-44" x="40.7" y="0">C</tspan><tspan class="cls-23" x="47.53" y="0">e</tspan><tspan class="cls-34" x="53.54" y="0">n</tspan><tspan class="cls-19" x="60.16" y="0">t</tspan><tspan class="cls-23" x="64.06" y="0">er</tspan></text>
    <text class="cls-27" transform="translate(643.11 465.4)"><tspan class="cls-35" x="0" y="0">W</tspan><tspan x="9.96" y="0">idener </tspan><tspan class="cls-21" x="44.69" y="0">G</tspan><tspan class="cls-37" x="52.54" y="0">a</tspan><tspan class="cls-19" x="58.27" y="0">t</tspan><tspan x="62.17" y="0">e</tspan></text>
    <text class="cls-27" transform="translate(473.03 534.5)"><tspan class="cls-35" x="0" y="0">W</tspan><tspan x="9.96" y="0">i</tspan><tspan class="cls-34" x="12.77" y="0">n</tspan><tspan x="19.38" y="0">th</tspan><tspan class="cls-46" x="30.01" y="0">r</tspan><tspan x="33.82" y="0">op House</tspan></text>
    <text class="cls-27" transform="translate(837.41 422.15)"><tspan x="0" y="0">Lamo</tspan><tspan class="cls-34" x="28.04" y="0">n</tspan><tspan x="34.66" y="0">t Lib</tspan><tspan class="cls-48" x="56.47" y="0">r</tspan><tspan x="60.33" y="0">a</tspan><tspan class="cls-18" x="66.12" y="0">r</tspan><tspan x="70.34" y="0">y</tspan></text>
    <text class="cls-27" transform="translate(706.89 539.81)"><tspan class="cls-39" x="0" y="0">T</tspan><tspan x="5.88" y="0">he </tspan><tspan class="cls-31" x="21.1" y="0">I</tspan><tspan x="24.08" y="0">nn</tspan></text>
    <text class="cls-27" transform="translate(664.37 624.85)"><tspan class="cls-36" x="0" y="0">L</tspan><tspan x="5.5" y="0">e</tspan><tspan class="cls-3" x="11.51" y="0">v</tspan><tspan class="cls-23" x="17.16" y="0">e</tspan><tspan class="cls-3" x="23.17" y="0">r</tspan><tspan x="26.98" y="0">ett House</tspan></text>
    <text class="cls-27" transform="translate(728.15 784.3)"><tspan class="cls-42" x="0" y="0">M</tspan><tspan class="cls-37" x="9.72" y="0">a</tspan><tspan class="cls-23" x="15.46" y="0">ther House</tspan></text>
    <text class="cls-27" transform="translate(696.26 901.23)"><tspan x="0" y="0">784 </tspan><tspan class="cls-42" x="21.01" y="0">M</tspan><tspan class="cls-23" x="30.73" y="0">emo</tspan><tspan class="cls-22" x="53.34" y="0">r</tspan><tspan class="cls-33" x="57.31" y="0">ial</tspan></text>
    <text class="cls-27" transform="translate(462.4 911.86)"><tspan x="0" y="0">One</tspan><tspan class="cls-30" x="20.94" y="0"> </tspan><tspan class="cls-47" x="23.05" y="0">W</tspan><tspan class="cls-23" x="32.81" y="0">es</tspan><tspan class="cls-25" x="43.57" y="0">t</tspan><tspan x="47.47" y="0">e</tspan><tspan class="cls-22" x="53.48" y="0">r</tspan><tspan class="cls-33" x="57.46" y="0">n </tspan><tspan class="cls-17" x="66.66" y="0">A</tspan><tspan class="cls-46" x="73.75" y="0">v</tspan><tspan x="79.4" y="0">e</tspan></text>
    <text class="cls-27" transform="translate(164.76 364.42)"><tspan class="cls-39" x="0" y="0">C</tspan><tspan x="6.88" y="0">amb</tspan><tspan class="cls-22" x="29.5" y="0">r</tspan><tspan class="cls-33" x="33.47" y="0">idge </tspan><tspan class="cls-41" x="58.31" y="0">C</tspan><tspan x="65.14" y="0">ommons</tspan></text>
    <text class="cls-27" transform="translate(816.15 315.85)"><tspan class="cls-42" x="0" y="0">M</tspan><tspan x="9.72" y="0">emo</tspan><tspan class="cls-22" x="32.33" y="0">r</tspan><tspan class="cls-33" x="36.3" y="0">ial Hall</tspan></text>
  </g>
  <g id="Quad_SEC_Direct" data-name="Quad SEC Direct">
    <g id="Connections">
      <g>
        <line class="cls-10" x1="132.87" y1="725.83" x2="132.87" y2="571.7"/>
        <line class="cls-10" x1="132.87" y1="736.46" x2="132.87" y2="842.76"/>
        <line class="cls-10" x1="132.87" y1="848.08" x2="255.12" y2="885.28"/>
        <line class="cls-10" x1="287.01" y1="805.56" x2="255.12" y2="885.28"/>
        <line class="cls-10" x1="287.01" y1="715.2" x2="287.01" y2="805.56"/>
        <line class="cls-10" x1="287.01" y1="561.07" x2="287.01" y2="715.2"/>
        <line class="cls-10" x1="292.32" y1="476.03" x2="287.01" y2="561.07"/>
        <polyline class="cls-10" points="467.72 220.91 467.72 34.89 132.87 34.89 132.87 77.41"/>
        <polyline class="cls-10" points="467.72 226.23 467.72 465.4 292.32 465.4 292.32 476.03"/>
        <line class="cls-10" x1="132.87" y1="236.86" x2="132.87" y2="82.72"/>
        <line class="cls-10" x1="132.87" y1="337.84" x2="132.87" y2="242.17"/>
        <line class="cls-10" x1="132.87" y1="476.03" x2="132.87" y2="343.16"/>
        <line class="cls-10" x1="132.87" y1="481.35" x2="132.87" y2="561.07"/>
      </g>
      <g>
        <line class="cls-13" x1="132.87" y1="725.83" x2="132.87" y2="571.7"/>
        <line class="cls-13" x1="132.87" y1="736.46" x2="132.87" y2="842.76"/>
        <line class="cls-13" x1="132.87" y1="848.08" x2="255.12" y2="885.28"/>
        <line class="cls-13" x1="287.01" y1="805.56" x2="255.12" y2="885.28"/>
        <line class="cls-13" x1="287.01" y1="715.2" x2="287.01" y2="805.56"/>
        <line class="cls-13" x1="287.01" y1="561.07" x2="287.01" y2="715.2"/>
        <line class="cls-13" x1="292.32" y1="476.03" x2="287.01" y2="561.07"/>
        <polyline class="cls-13" points="467.72 220.91 467.72 34.89 132.87 34.89 132.87 77.41"/>
        <polyline class="cls-13" points="467.72 226.23 467.72 465.4 292.32 465.4 292.32 476.03"/>
        <line class="cls-13" x1="132.87" y1="236.86" x2="132.87" y2="82.72"/>
        <line class="cls-13" x1="132.87" y1="337.84" x2="132.87" y2="242.17"/>
        <line class="cls-13" x1="132.87" y1="476.03" x2="132.87" y2="343.16"/>
        <line class="cls-13" x1="132.87" y1="481.35" x2="132.87" y2="561.07"/>
      </g>
    </g>
  </g>
  <g id="Allston_Loop" data-name="Allston Loop">
    <g id="Connections-2" data-name="Connections">
      <g>
        <polyline class="cls-10" points="297.64 805.56 297.75 885.6 455.26 885.1"/>
        <line class="cls-10" x1="297.64" y1="805.56" x2="297.64" y2="715.2"/>
        <line class="cls-10" x1="297.64" y1="715.2" x2="297.64" y2="561.07"/>
        <line class="cls-10" x1="297.64" y1="561.07" x2="302.95" y2="476.03"/>
        <polyline class="cls-10" points="302.95 476.03 302.95 396.31 457.09 396.31 457.09 220.91"/>
        <line class="cls-10" x1="478.35" y1="215.6" x2="685.63" y2="215.6"/>
        <line class="cls-10" x1="702.45" y1="217.15" x2="701.57" y2="327.21"/>
        <line class="cls-10" x1="693.68" y1="332.36" x2="788.43" y2="332.36"/>
        <polyline class="cls-10" points="765.35 343.65 794.06 343.16 791.85 423.39 776.89 423.39"/>
        <polyline class="cls-10" points="773.93 428.2 809.68 430.58 807.87 592.96 643.11 592.96"/>
        <line class="cls-10" x1="630.42" y1="598.86" x2="458.1" y2="884.57"/>
      </g>
      <g>
        <polyline class="cls-8" points="297.64 805.56 297.75 885.6 455.26 885.1"/>
        <line class="cls-8" x1="297.64" y1="805.56" x2="297.64" y2="715.2"/>
        <line class="cls-8" x1="297.64" y1="715.2" x2="297.64" y2="561.07"/>
        <line class="cls-8" x1="297.64" y1="561.07" x2="302.95" y2="476.03"/>
        <polyline class="cls-8" points="302.95 476.03 302.95 396.31 457.09 396.31 457.09 220.91"/>
        <line class="cls-8" x1="478.35" y1="215.6" x2="685.63" y2="215.6"/>
        <line class="cls-8" x1="702.45" y1="217.15" x2="701.57" y2="327.21"/>
        <line class="cls-8" x1="693.68" y1="332.36" x2="788.43" y2="332.36"/>
        <polyline class="cls-8" points="765.35 343.65 794.06 343.16 791.85 423.39 776.89 423.39"/>
        <polyline class="cls-8" points="773.93 428.2 809.68 430.58 807.87 592.96 643.11 592.96"/>
        <line class="cls-8" x1="630.42" y1="598.86" x2="458.1" y2="884.57"/>
      </g>
    </g>
  </g>
  <g id="Mather_Express" data-name="Mather Express">
    <g id="Connections-3" data-name="Connections">
      <g>
        <polyline class="cls-10" points="627.85 439.25 627.85 484.27 876.97 481.63 876.97 504.13 865.05 503.59"/>
        <polyline class="cls-10" points="611.22 433.51 611.22 390.99 478.35 390.99 478.35 226.23 690.95 226.23"/>
        <line class="cls-10" x1="696.26" y1="231.54" x2="696.26" y2="327.21"/>
        <line class="cls-10" x1="705.34" y1="327.28" x2="775.98" y2="327.21"/>
        <polyline class="cls-10" points="797.24 327.21 807.87 327.21 807.87 428.2 787.27 427.86 789.33 427.17"/>
        <polyline class="cls-10" points="781.3 428.2 781.3 523.87 738.78 523.87"/>
        <polyline class="cls-10" points="643.34 599.66 644.66 734.08 686.13 737.38 688.52 757.1"/>
        <polyline class="cls-10" points="690.95 752.41 722.83 752.41 728.15 513.24"/>
      </g>
      <g>
        <polyline class="cls-16" points="627.85 439.25 627.85 484.27 876.97 481.63 876.97 504.13 865.05 503.59"/>
        <polyline class="cls-16" points="611.22 433.51 611.22 390.99 478.35 390.99 478.35 226.23 690.95 226.23"/>
        <line class="cls-16" x1="696.26" y1="231.54" x2="696.26" y2="327.21"/>
        <line class="cls-16" x1="705.34" y1="327.28" x2="775.98" y2="327.21"/>
        <polyline class="cls-16" points="797.24 327.21 807.87 327.21 807.87 428.2 787.27 427.86 789.33 427.17"/>
        <polyline class="cls-16" points="781.3 428.2 781.3 523.87 738.78 523.87"/>
        <polyline class="cls-16" points="643.34 599.66 644.66 734.08 686.13 737.38 688.52 757.1"/>
        <polyline class="cls-16" points="690.95 752.41 722.83 752.41 728.15 513.24"/>
      </g>
    </g>
  </g>
  <g id="Quad_Express" data-name="Quad Express">
    <g id="Connections-4" data-name="Connections">
      <g>
        <line class="cls-10" x1="122.24" y1="231.54" x2="122.24" y2="82.72"/>
        <line class="cls-10" x1="122.24" y1="242.17" x2="122.24" y2="337.84"/>
        <polyline class="cls-10" points="122.24 401.62 372.05 401.62 372.05 162.45 791.93 162.45 791.61 326.58"/>
        <polyline class="cls-10" points="786.61 343.16 786.61 380.36 398.62 380.36 401.58 81.99 401.58 28.84 122.24 29.57 122.24 77.41"/>
      </g>
      <g>
        <line class="cls-5" x1="122.24" y1="231.54" x2="122.24" y2="82.72"/>
        <line class="cls-5" x1="122.24" y1="242.17" x2="122.24" y2="337.84"/>
        <polyline class="cls-5" points="122.24 401.62 372.05 401.62 372.05 162.45 791.93 162.45 791.61 326.58"/>
        <polyline class="cls-5" points="786.61 343.16 786.61 380.36 398.62 380.36 401.58 81.99 401.58 28.84 122.24 29.57 122.24 77.41"/>
      </g>
    </g>
  </g>
  <g id="_1636_er" data-name="1636&amp;apos;er">
    <g id="Connections-5" data-name="Connections">
      <g>
        <line class="cls-10" x1="95.67" y1="231.54" x2="95.67" y2="82.72"/>
        <line class="cls-10" x1="100.98" y1="337.84" x2="95.67" y2="242.17"/>
        <polyline class="cls-10" points="100.98 348.47 100.98 406.94 473.03 406.94 473.03 236.86"/>
        <line class="cls-10" x1="473.03" y1="220.91" x2="696.26" y2="220.91"/>
        <polyline class="cls-10" points="781.3 321.9 706.89 321.9 706.89 220.91"/>
        <polyline class="cls-10" points="690.95 757.72 786.61 757.72 786.61 433.51"/>
        <polyline class="cls-10" points="728.15 502.61 728.15 433.51 627.17 433.51"/>
        <polyline class="cls-10" points="617.88 434.91 287.01 433.51 287.01 359.1"/>
        <polyline class="cls-10" points="287.01 348.47 292.32 18.94 95.67 18.94 95.67 72.09"/>
        <polyline class="cls-10" points="722.83 513.24 696.26 513.24 690.95 752.41"/>
        <line class="cls-10" x1="781.3" y1="343.16" x2="781.3" y2="412.25"/>
      </g>
      <g>
        <line class="cls-6" x1="95.67" y1="231.54" x2="95.67" y2="82.72"/>
        <line class="cls-6" x1="100.98" y1="337.84" x2="95.67" y2="242.17"/>
        <polyline class="cls-6" points="100.98 348.47 100.98 406.94 473.03 406.94 473.03 236.86"/>
        <line class="cls-6" x1="473.03" y1="220.91" x2="696.26" y2="220.91"/>
        <polyline class="cls-6" points="781.3 321.9 706.89 321.9 706.89 220.91"/>
        <polyline class="cls-6" points="690.95 757.72 786.61 757.72 786.61 433.51"/>
        <polyline class="cls-6" points="728.15 502.61 728.15 433.51 627.17 433.51"/>
        <polyline class="cls-6" points="617.88 434.91 287.01 433.51 287.01 359.1"/>
        <polyline class="cls-6" points="287.01 348.47 292.32 18.94 95.67 18.94 95.67 72.09"/>
        <polyline class="cls-6" points="722.83 513.24 696.26 513.24 690.95 752.41"/>
        <line class="cls-11" x1="781.3" y1="343.16" x2="781.3" y2="412.25"/>
      </g>
    </g>
  </g>
  <g id="Crimson_Cruiser" data-name="Crimson Cruiser">
    <g id="Connections-6" data-name="Connections">
      <g>
        <polyline class="cls-10" points="685.63 757.72 690.95 507.92 722.83 507.92"/>
        <polyline class="cls-10" points="627.17 438.83 722.83 438.83 722.83 502.61"/>
        <polyline class="cls-10" points="292.32 359.1 292.32 438.83 605.91 438.83"/>
        <polyline class="cls-10" points="292.32 348.47 297.64 13.63 90.35 13.63 90.35 72.09"/>
        <polyline class="cls-10" points="95.67 343.16 95.67 417.57 382.68 417.57 382.68 210.28 467.72 210.28"/>
        <polyline class="cls-10" points="797.24 321.9 797.24 178.39 473.03 178.39 473.03 210.28"/>
        <line class="cls-10" x1="798.72" y1="320.83" x2="798.22" y2="410.84"/>
        <polyline class="cls-10" points="791.93 422.88 791.93 763.04 690.95 763.04"/>
        <line class="cls-10" x1="90.35" y1="82.72" x2="90.35" y2="231.54"/>
        <line class="cls-10" x1="90.35" y1="242.17" x2="95.67" y2="343.16"/>
      </g>
      <g>
        <polyline class="cls-14" points="685.63 757.72 690.95 507.92 722.83 507.92"/>
        <polyline class="cls-14" points="627.17 438.83 722.83 438.83 722.83 502.61"/>
        <polyline class="cls-14" points="292.32 359.1 292.32 438.83 605.91 438.83"/>
        <polyline class="cls-14" points="292.32 348.47 297.64 13.63 90.35 13.63 90.35 72.09"/>
        <polyline class="cls-14" points="95.67 343.16 95.67 417.57 382.68 417.57 382.68 210.28 467.72 210.28"/>
        <polyline class="cls-14" points="797.24 321.9 797.24 178.39 473.03 178.39 473.03 210.28"/>
        <line class="cls-14" x1="798.72" y1="320.83" x2="798.22" y2="410.84"/>
        <polyline class="cls-14" points="791.93 422.88 791.93 763.04 690.95 763.04"/>
        <line class="cls-14" x1="90.35" y1="82.72" x2="90.35" y2="231.54"/>
        <line class="cls-14" x1="90.35" y1="242.17" x2="95.67" y2="343.16"/>
      </g>
    </g>
  </g>
  <g id="Overnight">
    <g id="Connections-7" data-name="Connections">
      <g>
        <polyline class="cls-10" points="680.4 746.43 749.95 748.75 753.19 502.55 733.72 501.62"/>
        <polyline class="cls-10" points="614.32 434.21 637.45 433.51 636.39 494.49 860.67 493.79 861.02 511.31"/>
        <polyline class="cls-10" points="605.91 444.14 329.53 444.14 329.53 3 79.72 3 79.82 77.5"/>
        <line class="cls-10" x1="79.72" y1="77.41" x2="79.72" y2="236.86"/>
        <line class="cls-10" x1="85.04" y1="343.16" x2="79.72" y2="231.54"/>
        <line class="cls-10" x1="690.95" y1="231.54" x2="478.35" y2="231.54"/>
        <polyline class="cls-10" points="781.3 337.84 690.95 337.84 690.95 231.54"/>
        <polyline class="cls-10" points="786.51 412.25 839.76 412.25 838.46 320.45 787.82 321.43"/>
        <polyline class="cls-10" points="488.32 544.01 611.22 545.13 611.22 449.46"/>
        <polyline class="cls-10" points="488.98 545.13 488.98 577.02 632.48 577.02 632.48 587.65 682.53 586.54 679.9 746.56"/>
        <polyline class="cls-10" points="85.04 343.47 85.04 428.2 393.31 428.2 393.31 215.6 467.72 215.6"/>
      </g>
      <g>
        <polyline class="cls-15" points="680.4 746.43 749.95 748.75 753.19 502.55 733.72 501.62"/>
        <polyline class="cls-15" points="614.32 434.21 637.45 433.51 636.39 494.49 860.67 493.79 861.02 511.31"/>
        <polyline class="cls-15" points="605.91 444.14 329.53 444.14 329.53 3 79.72 3 79.82 77.5"/>
        <line class="cls-15" x1="79.72" y1="77.41" x2="79.72" y2="236.86"/>
        <line class="cls-15" x1="85.04" y1="343.16" x2="79.72" y2="231.54"/>
        <line class="cls-15" x1="690.95" y1="231.54" x2="478.35" y2="231.54"/>
        <polyline class="cls-15" points="781.3 337.84 690.95 337.84 690.95 231.54"/>
        <polyline class="cls-15" points="786.51 412.25 839.76 412.25 838.46 320.45 787.82 321.43"/>
        <polyline class="cls-15" points="488.32 544.01 611.22 545.13 611.22 449.46"/>
        <polyline class="cls-15" points="488.98 545.13 488.98 577.02 632.48 577.02 632.48 587.65 682.53 586.54 679.9 746.56"/>
        <polyline class="cls-15" points="85.04 343.47 85.04 428.2 393.31 428.2 393.31 215.6 467.72 215.6"/>
      </g>
    </g>
  </g>
  <g id="Quad_Stadium_Express" data-name="Quad Stadium Express">
    <g id="Connections-8" data-name="Connections">
      <g>
        <line class="cls-9" x1="143.5" y1="82.72" x2="143.5" y2="231.54"/>
        <line class="cls-9" x1="143.5" y1="337.84" x2="143.5" y2="242.17"/>
        <polyline class="cls-9" points="797.24 428.2 850.39 428.2 850.39 167.76 377.36 167.76 377.36 412.25 143.5 412.25 143.5 348.47"/>
        <polyline class="cls-9" points="629.94 544.31 797.24 545.13 797.24 428.2"/>
        <polyline class="cls-9" points="627.17 614.22 499.61 614.22 499.61 566.39"/>
        <polyline class="cls-9" points="675 773.67 632.48 773.67 632.48 619.54"/>
        <polyline class="cls-9" points="308.27 720.52 308.27 890.6 462.4 890.6 520.87 810.87 680.32 810.87 680.32 778.98"/>
        <line class="cls-9" x1="308.27" y1="476.03" x2="308.27" y2="561.07"/>
        <line class="cls-9" x1="308.27" y1="709.89" x2="308.27" y2="561.07"/>
        <polyline class="cls-9" points="297.64 476.03 201.97 476.03 201.97 45.52 143.5 45.52 143.5 72.09"/>
      </g>
      <g>
        <line class="cls-4" x1="143.5" y1="82.72" x2="143.5" y2="231.54"/>
        <line class="cls-4" x1="143.5" y1="337.84" x2="143.5" y2="242.17"/>
        <polyline class="cls-4" points="797.24 428.2 850.39 428.2 850.39 167.76 377.36 167.76 377.36 412.25 143.5 412.25 143.5 348.47"/>
        <polyline class="cls-4" points="629.94 544.31 797.24 545.13 797.24 428.2"/>
        <polyline class="cls-4" points="627.17 614.22 499.61 614.22 499.61 566.39"/>
        <polyline class="cls-4" points="675 773.67 632.48 773.67 632.48 619.54"/>
        <polyline class="cls-4" points="308.27 720.52 308.27 890.6 462.4 890.6 520.87 810.87 680.32 810.87 680.32 778.98"/>
        <line class="cls-4" x1="308.27" y1="476.03" x2="308.27" y2="561.07"/>
        <line class="cls-4" x1="308.27" y1="709.89" x2="308.27" y2="561.07"/>
        <polyline class="cls-4" points="297.64 476.03 201.97 476.03 201.97 45.52 143.5 45.52 143.5 72.09"/>
      </g>
    </g>
  </g>
  <g id="Quad_Yard_Express" data-name="Quad Yard Express">
    <g id="Connections-9" data-name="Connections">
      <g>
        <line class="cls-10" x1="85.04" y1="231.54" x2="85.04" y2="82.72"/>
        <line class="cls-10" x1="90.35" y1="337.84" x2="85.04" y2="242.17"/>
        <polyline class="cls-10" points="797.24 422.88 845.08 422.88 845.08 173.08 387.99 173.08 387.99 422.88 90.35 422.88 90.35 348.47"/>
        <line class="cls-10" x1="629.37" y1="428.02" x2="775.98" y2="428.2"/>
        <polyline class="cls-10" points="297.64 359.1 297.64 449.46 605.91 449.46"/>
        <polyline class="cls-10" points="297.64 348.47 302.95 8.31 85.04 8.31 85.04 72.09"/>
      </g>
      <g>
        <line class="cls-12" x1="85.04" y1="231.54" x2="85.04" y2="82.72"/>
        <line class="cls-12" x1="90.35" y1="337.84" x2="85.04" y2="242.17"/>
        <polyline class="cls-12" points="797.24 422.88 845.08 422.88 845.08 173.08 387.99 173.08 387.99 422.88 90.35 422.88 90.35 348.47"/>
        <line class="cls-12" x1="629.37" y1="428.02" x2="775.98" y2="428.2"/>
        <polyline class="cls-12" points="297.64 359.1 297.64 449.46 605.91 449.46"/>
        <polyline class="cls-12" points="297.64 348.47 302.95 8.31 85.04 8.31 85.04 72.09"/>
      </g>
    </g>
  </g>
  <g id="HUIT_Route" data-name="HUIT Route">
    <g id="Connections-10" data-name="Connections">
      <polyline class="cls-10" points="607.28 433.51 589.96 454.79 592.77 793.18 696.26 879.97 744.09 879.97"/>
      <polyline class="cls-7" points="607.28 433.51 589.96 454.79 592.77 793.18 696.26 879.97 744.09 879.97"/>
    </g>
    <g id="Stops-10" data-name="Stops">
      <rect class="cls-28" x="675" y="884.65" width="10.63" height="10.63" rx="5.31" ry="5.31"/>
    </g>
  </g>
  <g id="Stops-11" data-name="Stops">
    <g>
      <path class="cls-26" d="M79.72,239.17c-1.28,0-2.31-1.04-2.31-2.31s1.04-2.31,2.31-2.31h63.78c1.28,0,2.31,1.04,2.31,2.31s-1.04,2.31-2.31,2.31h-63.78Z"/>
      <path class="cls-26" d="M143.5,231.54h-63.78c-2.94,0-5.31,2.38-5.31,5.31h0c0,2.94,2.38,5.31,5.31,5.31h63.78c2.94,0,5.31-2.38,5.31-5.31h0c0-2.94-2.38-5.31-5.31-5.31h0Z"/>
    </g>
    <g>
      <path class="cls-26" d="M79.72,345.47c-1.28,0-2.31-1.04-2.31-2.31s1.04-2.32,2.31-2.32h63.78c1.28,0,2.31,1.04,2.31,2.32s-1.04,2.31-2.31,2.31h-63.78Z"/>
      <path class="cls-26" d="M143.5,337.84h-63.78c-2.94,0-5.31,2.38-5.31,5.31h0c0,2.94,2.38,5.31,5.31,5.31h63.78c2.94,0,5.31-2.38,5.31-5.31h0c0-2.94-2.38-5.31-5.31-5.31h0Z"/>
    </g>
    <g>
      <path class="cls-26" d="M79.72,79.72c-1.28,0-2.31-1.04-2.31-2.31s1.04-2.31,2.31-2.31h63.78c1.28,0,2.31,1.04,2.31,2.31s-1.04,2.31-2.31,2.31h-63.78Z"/>
      <path class="cls-26" d="M143.5,72.09h-63.78c-2.94,0-5.31,2.38-5.31,5.31s2.38,5.31,5.31,5.31h63.78c2.94,0,5.31-2.38,5.31-5.31s-2.38-5.31-5.31-5.31h0Z"/>
    </g>
    <g>
      <path class="cls-26" d="M458.65,207.97h18.13c2.14,0,3.88,1.74,3.88,3.88v18.13c0,2.14-1.74,3.88-3.88,3.88h-18.13c-2.14,0-3.88-1.74-3.88-3.88v-18.13c0-2.14,1.74-3.88,3.88-3.88Z"/>
      <path class="cls-26" d="M476.78,210.97c.49,0,.88.39.88.88v18.13c0,.49-.39.88-.88.88h-18.13c-.49,0-.88-.39-.88-.88v-18.13c0-.49.39-.88.88-.88h18.13M476.78,204.97h-18.13c-3.8,0-6.88,3.08-6.88,6.88v18.13c0,3.8,3.08,6.88,6.88,6.88h18.13c3.8,0,6.88-3.08,6.88-6.88v-18.13c0-3.8-3.08-6.88-6.88-6.88h0Z"/>
    </g>
    <g>
      <path class="cls-26" d="M287.01,563.39c-1.28,0-2.31-1.04-2.31-2.32s1.04-2.31,2.31-2.31h21.26c1.28,0,2.31,1.04,2.31,2.31s-1.04,2.32-2.31,2.32h-21.26Z"/>
      <path class="cls-26" d="M308.27,555.76h-21.26c-2.94,0-5.31,2.38-5.31,5.31s2.38,5.31,5.31,5.31h21.26c2.94,0,5.31-2.38,5.31-5.31s-2.38-5.31-5.31-5.31h0Z"/>
    </g>
    <g>
      <path class="cls-26" d="M281.69,717.71c-1.38,0-2.51-1.12-2.51-2.51s1.13-2.51,2.51-2.51h26.58c1.38,0,2.51,1.12,2.51,2.51s-1.13,2.51-2.51,2.51h-26.58Z"/>
      <path class="cls-26" d="M308.27,709.89h-26.57c-2.94,0-5.31,2.38-5.31,5.31s2.38,5.32,5.31,5.32h26.57c2.94,0,5.31-2.38,5.31-5.32s-2.38-5.31-5.31-5.31h0Z"/>
    </g>
    <g>
      <path class="cls-26" d="M287.01,807.87c-1.28,0-2.31-1.04-2.31-2.31s1.04-2.32,2.31-2.32h10.63c1.28,0,2.31,1.04,2.31,2.32s-1.04,2.31-2.31,2.31h-10.63Z"/>
      <path class="cls-26" d="M297.64,800.24h-10.63c-2.94,0-5.31,2.38-5.31,5.31h0c0,2.94,2.38,5.32,5.31,5.32h10.63c2.94,0,5.31-2.38,5.31-5.31h0c0-2.94-2.38-5.32-5.31-5.32h0Z"/>
    </g>
    <g>
      <path class="cls-26" d="M255.12,887.6c-1.28,0-2.31-1.04-2.31-2.31s1.04-2.32,2.31-2.32h10.63c1.28,0,2.31,1.04,2.31,2.32s-1.04,2.31-2.31,2.31h-10.63Z"/>
      <path class="cls-26" d="M265.75,879.97h-10.63c-2.94,0-5.31,2.38-5.31,5.31s2.38,5.31,5.31,5.31h10.63c2.94,0,5.31-2.38,5.31-5.31s-2.38-5.31-5.31-5.31h0Z"/>
    </g>
    <g>
      <path class="cls-26" d="M292.32,478.35c-1.28,0-2.32-1.04-2.32-2.31s1.04-2.32,2.32-2.32h21.26c1.28,0,2.31,1.04,2.31,2.32s-1.04,2.31-2.31,2.31h-21.26Z"/>
      <path class="cls-26" d="M313.58,470.72h-21.26c-2.94,0-5.31,2.38-5.31,5.31s2.38,5.31,5.31,5.31h21.26c2.94,0,5.31-2.38,5.31-5.31s-2.38-5.31-5.31-5.31h0Z"/>
    </g>
    <g>
      <rect class="cls-26" x="683.32" y="207.97" width="25.89" height="25.89" rx="3.88" ry="3.88"/>
      <path class="cls-26" d="M705.32,210.97c.49,0,.88.39.88.88v18.13c0,.49-.39.88-.88.88h-18.13c-.49,0-.88-.39-.88-.88v-18.13c0-.49.39-.88.88-.88h18.13M705.32,204.97h-18.13c-3.8,0-6.88,3.08-6.88,6.88v18.13c0,3.8,3.08,6.88,6.88,6.88h18.13c3.8,0,6.88-3.08,6.88-6.88v-18.13c0-3.8-3.08-6.88-6.88-6.88h0Z"/>
    </g>
    <g>
      <rect class="cls-26" x="683.32" y="319.58" width="25.89" height="25.89" rx="3.88" ry="3.88"/>
      <path class="cls-26" d="M705.32,322.58c.49,0,.88.39.88.88v18.13c0,.49-.39.88-.88.88h-18.13c-.49,0-.88-.39-.88-.88v-18.13c0-.49.39-.88.88-.88h18.13M705.32,316.58h-18.13c-3.8,0-6.88,3.08-6.88,6.88v18.13c0,3.8,3.08,6.88,6.88,6.88h18.13c3.8,0,6.88-3.08,6.88-6.88v-18.13c0-3.8-3.08-6.88-6.88-6.88h0Z"/>
    </g>
    <g>
      <rect class="cls-26" x="773.67" y="319.58" width="25.89" height="25.89" rx="3.88" ry="3.88"/>
      <path class="cls-26" d="M795.68,322.58c.49,0,.88.39.88.88v18.13c0,.49-.39.88-.88.88h-18.13c-.49,0-.88-.39-.88-.88v-18.13c0-.49.39-.88.88-.88h18.13M795.68,316.58h-18.13c-3.8,0-6.88,3.08-6.88,6.88v18.13c0,3.8,3.08,6.88,6.88,6.88h18.13c3.8,0,6.88-3.08,6.88-6.88v-18.13c0-3.8-3.08-6.88-6.88-6.88h0Z"/>
    </g>
    <g>
      <rect class="cls-26" x="773.67" y="404.62" width="25.89" height="25.89" rx="3.88" ry="3.88"/>
      <path class="cls-26" d="M795.68,407.62c.49,0,.88.39.88.88v18.13c0,.49-.39.88-.88.88h-18.13c-.49,0-.88-.39-.88-.88v-18.13c0-.49.39-.88.88-.88h18.13M795.68,401.62h-18.13c-3.8,0-6.88,3.08-6.88,6.88v18.13c0,3.8,3.08,6.88,6.88,6.88h18.13c3.8,0,6.88-3.08,6.88-6.88v-18.13c0-3.8-3.08-6.88-6.88-6.88h0Z"/>
    </g>
    <g>
      <rect class="cls-26" x="715.21" y="500.29" width="25.89" height="25.89" rx="3.88" ry="3.88"/>
      <path class="cls-26" d="M737.21,503.29c.49,0,.88.39.88.88v18.13c0,.49-.39.88-.88.88h-18.13c-.49,0-.88-.39-.88-.88v-18.13c0-.49.39-.88.88-.88h18.13M737.21,497.29h-18.13c-3.8,0-6.88,3.08-6.88,6.88v18.13c0,3.8,3.08,6.88,6.88,6.88h18.13c3.8,0,6.88-3.08,6.88-6.88v-18.13c0-3.8-3.08-6.88-6.88-6.88h0Z"/>
    </g>
    <g>
      <rect class="cls-26" x="667.37" y="744.78" width="25.89" height="25.89" rx="3.88" ry="3.88"/>
      <path class="cls-26" d="M689.38,747.78c.49,0,.88.39.88.88v18.13c0,.49-.39.88-.88.88h-18.13c-.49,0-.88-.39-.88-.88v-18.13c0-.49.39-.88.88-.88h18.13M689.38,741.78h-18.13c-3.8,0-6.88,3.08-6.88,6.88v18.13c0,3.8,3.08,6.88,6.88,6.88h18.13c3.8,0,6.88-3.08,6.88-6.88v-18.13c0-3.8-3.08-6.88-6.88-6.88h0Z"/>
    </g>
    <g>
      <rect class="cls-26" x="619.77" y="592.03" width="25.89" height="25.89" rx="3.88" ry="3.88"/>
      <path class="cls-26" d="M641.78,595.03c.49,0,.88.39.88.88v18.13c0,.49-.39.88-.88.88h-18.13c-.49,0-.88-.39-.88-.88v-18.13c0-.49.39-.88.88-.88h18.13M641.78,589.03h-18.13c-3.8,0-6.88,3.08-6.88,6.88v18.13c0,3.8,3.08,6.88,6.88,6.88h18.13c3.8,0,6.88-3.08,6.88-6.88v-18.13c0-3.8-3.08-6.88-6.88-6.88h0Z"/>
    </g>
    <g>
      <path class="cls-26" d="M612.79,425.88h18.13c2.14,0,3.88,1.74,3.88,3.88v18.13c0,2.14-1.74,3.88-3.88,3.88h-18.13c-2.14,0-3.88-1.74-3.88-3.88v-18.13c0-2.14,1.74-3.88,3.88-3.88Z"/>
      <path class="cls-26" d="M630.92,428.88c.49,0,.88.39.88.88v18.13c0,.49-.39.88-.88.88h-18.13c-.49,0-.88-.39-.88-.88v-18.13c0-.49.39-.88.88-.88h18.13M630.92,422.88h-18.13c-3.8,0-6.88,3.08-6.88,6.88v18.13c0,3.8,3.08,6.88,6.88,6.88h18.13c3.8,0,6.88-3.08,6.88-6.88v-18.13c0-3.8-3.08-6.88-6.88-6.88h0Z"/>
    </g>
    <g>
      <path class="cls-26" d="M486.48,548.41c-.52,0-.94-.42-.94-.94v-4.85c0-.52.42-.94.94-.94h4.85c.34,0,.56.17.66.27.1.1.27.32.27.66v4.85c0,.52-.42.94-.94.94h-4.85Z"/>
      <path class="cls-26" d="M490.24,543.72v2.67h-2.67v-2.67h2.67M491.33,539.67h-4.85c-1.64,0-2.96,1.33-2.96,2.96v4.85c0,1.64,1.33,2.96,2.96,2.96h4.85c1.64,0,2.96-1.33,2.96-2.96v-4.85c0-1.64-1.33-2.96-2.96-2.96h0Z"/>
    </g>
    <g>
      <rect class="cls-26" x="454.77" y="877.65" width="9.94" height="9.94" rx="2.39" ry="2.39"/>
      <path class="cls-26" d="M461.72,880.65v3.94h-3.94v-3.94h3.94M462.33,874.65h-5.17c-2.98,0-5.39,2.41-5.39,5.39v5.17c0,2.98,2.41,5.39,5.39,5.39h5.17c2.98,0,5.39-2.41,5.39-5.39v-5.17c0-2.98-2.41-5.39-5.39-5.39h0Z"/>
    </g>
    <g>
      <polygon class="cls-26" points="130.43 478.49 130.41 473.73 135.18 473.72 135.19 478.48 135.18 478.49 130.43 478.49"/>
      <path class="cls-26" d="M135.18,470.72h-4.75c-1.66,0-3.01,1.35-3.01,3.01v4.75c0,1.66,1.35,3.01,3.01,3.01h4.75c1.66,0,3.01-1.35,3.01-3.01v-4.75c0-1.66-1.35-3.01-3.01-3.01h0Z"/>
    </g>
    <g>
      <polygon class="cls-26" points="130.57 568.7 130.56 563.94 135.32 563.93 135.33 568.69 135.32 568.7 130.57 568.7"/>
      <path class="cls-26" d="M135.32,560.93h-4.75c-1.66,0-3.01,1.35-3.01,3.01v4.75c0,1.66,1.35,3.01,3.01,3.01h4.75c1.66,0,3.01-1.35,3.01-3.01v-4.75c0-1.66-1.35-3.01-3.01-3.01h0Z"/>
    </g>
    <g>
      <polygon class="cls-26" points="130.57 733.61 130.56 728.85 135.32 728.83 135.33 733.6 135.32 733.61 130.57 733.61"/>
      <path class="cls-26" d="M135.32,725.83h-4.75c-1.66,0-3.01,1.35-3.01,3.01v4.75c0,1.66,1.35,3.01,3.01,3.01h4.75c1.66,0,3.01-1.35,3.01-3.01v-4.75c0-1.66-1.35-3.01-3.01-3.01h0Z"/>
    </g>
    <g>
      <polygon class="cls-26" points="130.57 850.54 130.56 845.78 135.32 845.76 135.33 850.53 135.32 850.54 130.57 850.54"/>
      <path class="cls-26" d="M135.32,842.76h-4.75c-1.66,0-3.01,1.35-3.01,3.01v4.75c0,1.66,1.35,3.01,3.01,3.01h4.75c1.66,0,3.01-1.35,3.01-3.01v-4.75c0-1.66-1.35-3.01-3.01-3.01h0Z"/>
    </g>
    <g>
      <path class="cls-26" d="M281.69,357.18c-1.87,0-3.39-1.52-3.39-3.39s1.52-3.39,3.39-3.39h19.96c1.87,0,3.39,1.52,3.39,3.39s-1.52,3.39-3.39,3.39h-19.96Z"/>
      <path class="cls-26" d="M301.65,352.32c.81,0,1.47.66,1.47,1.47s-.66,1.47-1.47,1.47h-19.95c-.81,0-1.47-.66-1.47-1.47s.66-1.47,1.47-1.47h19.95M301.65,348.47h-19.95c-2.94,0-5.31,2.38-5.31,5.31h0c0,2.94,2.38,5.31,5.31,5.31h19.95c2.94,0,5.31-2.38,5.31-5.31h0c0-2.94-2.38-5.31-5.31-5.31h0Z"/>
    </g>
    <g>
      <rect class="cls-26" x="740.81" y="876.53" width="6.72" height="6.72" rx="1.45" ry="1.45"/>
      <path class="cls-26" d="M745.5,878.56v2.67h-2.67v-2.67h2.67M746.08,874.51h-3.82c-1.92,0-3.48,1.56-3.48,3.48v3.82c0,1.92,1.56,3.48,3.48,3.48h3.82c1.92,0,3.48-1.56,3.48-3.48v-3.82c0-1.92-1.56-3.48-3.48-3.48h0Z"/>
    </g>
  </g>
</svg>