<?xml version="1.0" encoding="utf-8"?>
<!-- Generator: Adobe Illustrator 28.3.0, SVG Export Plug-In . SVG Version: 6.00 Build 0)  -->
<svg version="1.0" id="Layer_1" xmlns="http://www.w3.org/2000/svg" xmlns:xlink="http://www.w3.org/1999/xlink" x="0px" y="0px"
	 viewBox="0 0 1004.53 1025.79" style="enable-background:new 0 0 1004.53 1025.79;" xml:space="preserve">
<style type="text/css">
	.st0{fill:#0077AA;}
	.st1{fill:none;stroke:#231F20;stroke-width:9;}
	.st2{fill:none;stroke:#C945E5;stroke-width:6;stroke-miterlimit:10;}
	.st3{fill:none;stroke:#C1272D;stroke-width:6;stroke-miterlimit:10;}
	.st4{fill:none;stroke:#DD1F95;stroke-width:6;stroke-miterlimit:10;}
	.st5{fill:none;stroke:#475AC6;stroke-width:6;stroke-miterlimit:10;}
	.st6{fill:none;stroke:#0000FF;stroke-width:6;stroke-miterlimit:10;}
	.st7{fill:none;stroke:#2AB74B;stroke-width:6;stroke-miterlimit:10;}
	.st8{fill:none;stroke:#ED1C24;stroke-width:6;stroke-miterlimit:10;}
	.st9{fill:none;stroke:#11C7F2;stroke-width:6;stroke-miterlimit:10;}
	.st10{fill:none;stroke:#11C7F2;stroke-width:6.5227;stroke-miterlimit:10;}
	.st11{fill:none;stroke:#EAD61C;stroke-width:6;stroke-miterlimit:10;}
	.st12{fill:none;stroke:#F7EA08;stroke-width:6;stroke-miterlimit:10;}
	.st13{font-family:'ArialMT';}
	.st14{font-size:12px;}
	.st15{font-family:'Niramit-Regular';}
</style>
<g id="Decors">
	<polygon class="st0" points="520.87,728.15 520.87,887.6 685.63,887.6 685.63,1047.05 632.48,1047.05 632.48,940.75 467.72,940.75 
		467.72,781.3 0,779.99 0,726.77 	"/>
</g>
<g id="Routes">
	<g id="Quad_SEC_Direct">
		<g id="Connections">
			<g>
				<line class="st1" x1="127.56" y1="680.31" x2="127.56" y2="829.13"/>
				<line class="st1" x1="127.56" y1="919.49" x2="127.56" y2="829.13"/>
				<polyline class="st1" points="201.97,988.58 201.97,1009.84 127.56,1009.84 127.56,919.49 				"/>
				<polyline class="st1" points="281.69,919.49 281.69,946.06 201.97,946.06 201.97,988.58 				"/>
				<line class="st1" x1="281.69" y1="829.13" x2="281.69" y2="919.49"/>
				<line class="st1" x1="281.69" y1="829.13" x2="281.69" y2="680.31"/>
				<line class="st1" x1="281.69" y1="600.59" x2="281.69" y2="680.31"/>
				<polyline class="st1" points="127.56,111.61 127.56,69.09 483.66,69.09 483.66,281.69 				"/>
				<polyline class="st1" points="483.66,276.38 483.66,563.39 281.69,563.39 281.69,600.59 				"/>
				<line class="st1" x1="127.56" y1="271.06" x2="127.56" y2="116.93"/>
				<line class="st1" x1="127.56" y1="372.05" x2="127.56" y2="276.38"/>
				<line class="st1" x1="127.56" y1="600.59" x2="127.56" y2="377.36"/>
				<line class="st1" x1="127.56" y1="680.31" x2="127.56" y2="600.59"/>
				<path class="st1" d="M212.6,924.8"/>
				<path class="st1" d="M159.45,919.49"/>
			</g>
			<g>
				<line class="st2" x1="127.56" y1="680.31" x2="127.56" y2="829.13"/>
				<line class="st2" x1="127.56" y1="919.49" x2="127.56" y2="829.13"/>
				<polyline class="st2" points="201.97,988.58 201.97,1009.84 127.56,1009.84 127.56,919.49 				"/>
				<polyline class="st2" points="281.69,919.49 281.69,946.06 201.97,946.06 201.97,988.58 				"/>
				<line class="st2" x1="281.69" y1="829.13" x2="281.69" y2="919.49"/>
				<line class="st2" x1="281.69" y1="829.13" x2="281.69" y2="680.31"/>
				<line class="st2" x1="281.69" y1="600.59" x2="281.69" y2="680.31"/>
				<polyline class="st2" points="127.56,111.61 127.56,69.09 483.66,69.09 483.66,281.69 				"/>
				<polyline class="st2" points="483.66,276.38 483.66,563.39 281.69,563.39 281.69,600.59 				"/>
				<line class="st2" x1="127.56" y1="271.06" x2="127.56" y2="116.93"/>
				<line class="st2" x1="127.56" y1="372.05" x2="127.56" y2="276.38"/>
				<line class="st2" x1="127.56" y1="600.59" x2="127.56" y2="377.36"/>
				<line class="st2" x1="127.56" y1="680.31" x2="127.56" y2="600.59"/>
				<path class="st2" d="M212.6,924.8"/>
				<path class="st2" d="M159.45,919.49"/>
			</g>
		</g>
	</g>
	<g id="Allston_Loop">
		<g id="Connections">
			<g>
				<polyline class="st1" points="212.6,988.58 212.6,1009.84 451.77,1009.84 				"/>
				<polyline class="st1" points="292.32,919.49 292.32,956.69 212.6,956.69 212.6,988.58 				"/>
				<line class="st1" x1="292.32" y1="829.13" x2="292.32" y2="919.49"/>
				<line class="st1" x1="292.32" y1="829.13" x2="292.32" y2="675"/>
				<line class="st1" x1="292.32" y1="680.31" x2="292.32" y2="595.28"/>
				<polyline class="st1" points="494.29,281.69 494.29,574.02 292.32,574.02 292.32,600.59 				"/>
				<polyline class="st1" points="653.74,154.13 653.74,138.19 494.29,138.19 494.29,281.69 				"/>
				<line class="st1" x1="653.74" y1="154.13" x2="653.74" y2="271.06"/>
				<polyline class="st1" points="653.74,271.06 653.74,340.16 770.67,340.16 770.67,361.42 				"/>
				<polyline class="st1" points="861.02,467.72 861.02,414.57 770.67,414.57 770.67,361.42 				"/>
				<polyline class="st1" points="760.04,722.83 760.04,531.5 861.02,531.5 861.02,467.72 				"/>
				<polyline class="st1" points="451.77,1009.84 760.04,1009.84 760.04,722.83 				"/>
				<path class="st1" d="M296.47,972.68"/>
				<path class="st1" d="M449.95,919.3"/>
				<path class="st1" d="M685.63,281.69"/>
				<path class="st1" d="M281.69,574.02"/>
			</g>
			<g>
				<polyline class="st3" points="212.6,988.58 212.6,1009.84 451.77,1009.84 				"/>
				<polyline class="st3" points="292.32,919.49 292.32,956.69 212.6,956.69 212.6,988.58 				"/>
				<line class="st3" x1="292.32" y1="829.13" x2="292.32" y2="919.49"/>
				<line class="st3" x1="292.32" y1="829.13" x2="292.32" y2="675"/>
				<line class="st3" x1="292.32" y1="680.31" x2="292.32" y2="595.28"/>
				<polyline class="st3" points="494.29,281.69 494.29,574.02 292.32,574.02 292.32,600.59 				"/>
				<polyline class="st3" points="653.74,154.13 653.74,138.19 494.29,138.19 494.29,281.69 				"/>
				<line class="st3" x1="653.74" y1="154.13" x2="653.74" y2="271.06"/>
				<polyline class="st3" points="653.74,271.06 653.74,340.16 770.67,340.16 770.67,361.42 				"/>
				<polyline class="st3" points="861.02,467.72 861.02,414.57 770.67,414.57 770.67,361.42 				"/>
				<polyline class="st3" points="760.04,722.83 760.04,531.5 861.02,531.5 861.02,467.72 				"/>
				<polyline class="st3" points="451.77,1009.84 760.04,1009.84 760.04,722.83 				"/>
				<path class="st3" d="M296.47,972.68"/>
				<path class="st3" d="M449.95,919.3"/>
				<path class="st3" d="M685.63,281.69"/>
				<path class="st3" d="M281.69,574.02"/>
			</g>
		</g>
	</g>
	<g id="Mather_Express">
		<g id="Connections">
			<g>
				<polyline class="st1" points="807.87,637.8 807.87,451.77 473.03,451.77 473.03,281.69 				"/>
				<polyline class="st1" points="664.37,148.82 664.37,127.56 473.03,127.56 473.03,281.69 				"/>
				<line class="st1" x1="675" y1="170.08" x2="675" y2="271.06"/>
				<polyline class="st1" points="664.37,271.06 664.37,329.53 781.3,329.53 781.3,361.42 				"/>
				<polyline class="st1" points="781.3,361.42 781.3,403.94 871.65,403.94 871.65,467.72 				"/>
				<polyline class="st1" points="871.65,462.4 871.65,542.13 749.41,542.13 749.41,722.83 				"/>
				<polyline class="st1" points="749.41,722.83 749.41,908.86 807.87,908.86 807.87,637.8 				"/>
				<line class="st1" x1="664.37" y1="148.82" x2="664.37" y2="271.06"/>
				<path class="st1" d="M775.98,621.85"/>
				<path class="st1" d="M807.87,637.8"/>
			</g>
			<g>
				<polyline class="st4" points="807.87,637.8 807.87,451.77 473.03,451.77 473.03,281.69 				"/>
				<polyline class="st4" points="664.37,148.82 664.37,127.56 473.03,127.56 473.03,281.69 				"/>
				<line class="st4" x1="675" y1="170.08" x2="675" y2="271.06"/>
				<polyline class="st4" points="664.37,271.06 664.37,329.53 781.3,329.53 781.3,361.42 				"/>
				<polyline class="st4" points="781.3,361.42 781.3,403.94 871.65,403.94 871.65,467.72 				"/>
				<polyline class="st4" points="871.65,462.4 871.65,542.13 749.41,542.13 749.41,722.83 				"/>
				<polyline class="st4" points="749.41,722.83 749.41,908.86 807.87,908.86 807.87,637.8 				"/>
				<line class="st4" x1="664.37" y1="148.82" x2="664.37" y2="271.06"/>
				<path class="st4" d="M775.98,621.85"/>
				<path class="st4" d="M807.87,637.8"/>
			</g>
		</g>
	</g>
	<g id="Quad_Express">
		<g id="Connections">
			<g>
				<line class="st1" x1="116.93" y1="265.75" x2="116.93" y2="116.93"/>
				<line class="st1" x1="116.93" y1="276.38" x2="116.93" y2="372.05"/>
				<polyline class="st1" points="462.4,281.69 462.4,435.83 116.93,435.83 116.93,377.36 				"/>
				<polyline class="st1" points="116.93,106.3 116.93,58.46 398.62,58.46 398.62,377.36 584.65,377.36 584.65,435.83 
					791.93,435.83 791.93,361.42 				"/>
				<polyline class="st1" points="462.4,281.69 462.4,116.93 675,116.93 675,148.82 				"/>
				<line class="st1" x1="675" y1="271.06" x2="675" y2="148.82"/>
				<polyline class="st1" points="675,271.06 675,318.9 791.93,318.9 791.93,361.42 				"/>
				<path class="st1" d="M387.99,217.91"/>
			</g>
			<g>
				<line class="st5" x1="116.93" y1="265.75" x2="116.93" y2="116.93"/>
				<line class="st5" x1="116.93" y1="276.38" x2="116.93" y2="372.05"/>
				<polyline class="st5" points="462.4,281.69 462.4,435.83 116.93,435.83 116.93,377.36 				"/>
				<polyline class="st5" points="116.93,106.3 116.93,58.46 398.62,58.46 398.62,377.36 584.65,377.36 584.65,435.83 
					791.93,435.83 791.93,361.42 				"/>
				<polyline class="st5" points="462.4,281.69 462.4,116.93 675,116.93 675,148.82 				"/>
				<line class="st5" x1="675" y1="271.06" x2="675" y2="148.82"/>
				<polyline class="st5" points="675,271.06 675,318.9 791.93,318.9 791.93,361.42 				"/>
				<path class="st5" d="M387.99,217.91"/>
			</g>
		</g>
	</g>
	<g id="Quad_Stadium_Express">
		<g id="Connections">
			<g>
				<line class="st1" x1="138.19" y1="377.36" x2="138.19" y2="271.06"/>
				<polyline class="st1" points="138.19,377.36 138.19,425.2 356.1,425.2 356.1,15.94 924.8,15.94 924.8,467.72 				"/>
				<polyline class="st1" points="637.8,659.06 637.8,595.28 924.8,595.28 924.8,467.72 				"/>
				<polyline class="st1" points="850.39,882.28 850.39,951.38 706.89,951.38 706.89,722.83 				"/>
				<polyline class="st1" points="637.8,659.06 637.8,696.26 706.89,696.26 706.89,722.83 				"/>
				<polyline class="st1" points="302.95,829.13 302.95,866.34 850.39,866.34 850.39,882.28 				"/>
				<line class="st1" x1="302.95" y1="675" x2="302.95" y2="600.59"/>
				<line class="st1" x1="302.95" y1="675" x2="302.95" y2="829.13"/>
				<polyline class="st1" points="138.19,138.19 138.19,79.72 196.65,79.72 196.65,584.65 302.95,584.65 302.95,600.59 				"/>
				<path class="st1" d="M308.27,690.94"/>
				<line class="st1" x1="138.19" y1="271.06" x2="138.19" y2="111.61"/>
			</g>
			<g>
				<line class="st6" x1="138.19" y1="377.36" x2="138.19" y2="271.06"/>
				<polyline class="st6" points="138.19,377.36 138.19,425.2 356.1,425.2 356.1,15.94 924.8,15.94 924.8,467.72 				"/>
				<polyline class="st6" points="637.8,659.06 637.8,595.28 924.8,595.28 924.8,467.72 				"/>
				<polyline class="st6" points="850.39,882.28 850.39,951.38 706.89,951.38 706.89,722.83 				"/>
				<polyline class="st6" points="637.8,659.06 637.8,696.26 706.89,696.26 706.89,722.83 				"/>
				<polyline class="st6" points="302.95,829.13 302.95,866.34 850.39,866.34 850.39,882.28 				"/>
				<line class="st6" x1="302.95" y1="675" x2="302.95" y2="600.59"/>
				<line class="st6" x1="302.95" y1="675" x2="302.95" y2="829.13"/>
				<polyline class="st6" points="138.19,138.19 138.19,79.72 196.65,79.72 196.65,584.65 302.95,584.65 302.95,600.59 				"/>
				<path class="st6" d="M308.27,690.94"/>
				<line class="st6" x1="138.19" y1="271.06" x2="138.19" y2="111.61"/>
			</g>
		</g>
	</g>
	<g id="Quad_Yard_Express">
		<g id="Connections">
			<g>
				<line class="st1" x1="85.04" y1="265.75" x2="85.04" y2="116.93"/>
				<line class="st1" x1="85.04" y1="372.05" x2="85.04" y2="276.38"/>
				<polyline class="st1" points="85.04,382.68 85.04,467.72 366.73,467.72 366.73,26.57 914.17,26.57 914.17,467.72 				"/>
				<polyline class="st1" points="600.59,515.55 600.59,584.65 914.17,584.65 914.17,467.72 				"/>
				<polyline class="st1" points="313.58,387.99 313.58,488.98 600.59,488.98 600.59,515.55 				"/>
				<polyline class="st1" points="313.58,382.68 313.58,26.57 85.04,26.57 85.04,106.3 				"/>
			</g>
			<g>
				<line class="st7" x1="85.04" y1="265.75" x2="85.04" y2="116.93"/>
				<line class="st7" x1="85.04" y1="372.05" x2="85.04" y2="276.38"/>
				<polyline class="st7" points="85.04,382.68 85.04,467.72 366.73,467.72 366.73,26.57 914.17,26.57 914.17,467.72 				"/>
				<polyline class="st7" points="600.59,515.55 600.59,584.65 914.17,584.65 914.17,467.72 				"/>
				<polyline class="st7" points="313.58,387.99 313.58,488.98 600.59,488.98 600.59,515.55 				"/>
				<polyline class="st7" points="313.58,382.68 313.58,26.57 85.04,26.57 85.04,106.3 				"/>
			</g>
		</g>
	</g>
	<g id="Crimson_Cruiser">
		<g id="Connections">
			<g>
				<polyline class="st1" points="728.15,717.52 728.15,563.39 892.91,563.39 892.91,467.72 				"/>
				<polyline class="st1" points="829.13,637.8 829.13,478.35 621.85,478.35 621.85,520.87 				"/>
				<polyline class="st1" points="302.95,387.99 302.95,536.81 621.85,536.81 621.85,520.87 				"/>
				<polyline class="st1" points="95.67,106.3 95.67,37.2 302.95,37.2 302.95,387.99 				"/>
				<path class="st1" d="M95.67,116.93"/>
				<polyline class="st1" points="95.67,382.68 95.67,457.09 441.14,457.09 441.14,281.69 				"/>
				<polyline class="st1" points="696.26,148.82 696.26,95.67 441.14,95.67 441.14,281.69 				"/>
				<line class="st1" x1="696.26" y1="148.82" x2="696.26" y2="271.06"/>
				<line class="st1" x1="829.13" y1="887.6" x2="829.13" y2="637.8"/>
				<line class="st1" x1="95.67" y1="265.75" x2="95.67" y2="116.93"/>
				<line class="st1" x1="95.67" y1="377.36" x2="95.67" y2="271.06"/>
				<polyline class="st1" points="696.26,271.06 696.26,297.64 813.19,297.64 813.19,361.42 				"/>
				<polyline class="st1" points="813.19,361.42 813.19,382.68 892.91,382.68 892.91,467.72 				"/>
				<polyline class="st1" points="829.13,882.28 829.13,930.12 728.15,930.12 728.15,722.83 				"/>
			</g>
			<g>
				<polyline class="st8" points="728.15,717.52 728.15,563.39 892.91,563.39 892.91,467.72 				"/>
				<polyline class="st8" points="829.13,637.8 829.13,478.35 621.85,478.35 621.85,520.87 				"/>
				<polyline class="st8" points="302.95,387.99 302.95,536.81 621.85,536.81 621.85,520.87 				"/>
				<polyline class="st8" points="95.67,106.3 95.67,37.2 302.95,37.2 302.95,387.99 				"/>
				<path class="st8" d="M95.67,116.93"/>
				<polyline class="st8" points="95.67,382.68 95.67,457.09 441.14,457.09 441.14,281.69 				"/>
				<polyline class="st8" points="696.26,148.82 696.26,95.67 441.14,95.67 441.14,281.69 				"/>
				<line class="st8" x1="696.26" y1="148.82" x2="696.26" y2="271.06"/>
				<line class="st8" x1="829.13" y1="887.6" x2="829.13" y2="637.8"/>
				<line class="st8" x1="95.67" y1="265.75" x2="95.67" y2="116.93"/>
				<line class="st8" x1="95.67" y1="377.36" x2="95.67" y2="271.06"/>
				<polyline class="st8" points="696.26,271.06 696.26,297.64 813.19,297.64 813.19,361.42 				"/>
				<polyline class="st8" points="813.19,361.42 813.19,382.68 892.91,382.68 892.91,467.72 				"/>
				<polyline class="st8" points="829.13,882.28 829.13,930.12 728.15,930.12 728.15,722.83 				"/>
			</g>
		</g>
	</g>
	<g id="1636_er">
		<g id="Connections">
			<g>
				<line class="st1" x1="106.3" y1="265.75" x2="106.3" y2="116.93"/>
				<line class="st1" x1="106.3" y1="377.36" x2="106.3" y2="271.06"/>
				<polyline class="st1" points="106.3,377.36 106.3,446.46 451.77,446.46 451.77,281.69 				"/>
				<polyline class="st1" points="685.63,154.13 685.63,106.3 451.77,106.3 451.77,281.69 				"/>
				<line class="st1" x1="685.63" y1="271.06" x2="685.63" y2="148.82"/>
				<polyline class="st1" points="738.78,722.83 738.78,552.76 882.28,552.76 882.28,467.72 				"/>
				<polyline class="st1" points="818.5,637.8 818.5,488.98 632.48,488.98 632.48,520.87 				"/>
				<polyline class="st1" points="292.32,387.99 292.32,547.44 632.48,547.44 632.48,520.87 				"/>
				<polyline class="st1" points="292.32,387.99 292.32,47.83 106.3,47.83 106.3,111.61 				"/>
				<polyline class="st1" points="818.5,887.6 818.5,919.49 738.78,919.49 738.78,722.83 				"/>
				<polyline class="st1" points="802.56,361.42 802.56,393.31 882.28,393.31 882.28,467.72 				"/>
				<polyline class="st1" points="802.56,361.42 802.56,308.27 685.63,308.27 685.63,265.75 				"/>
				<line class="st1" x1="818.5" y1="637.8" x2="818.5" y2="887.6"/>
			</g>
			<g>
				<line class="st9" x1="106.3" y1="265.75" x2="106.3" y2="116.93"/>
				<line class="st9" x1="106.3" y1="377.36" x2="106.3" y2="271.06"/>
				<polyline class="st9" points="106.3,377.36 106.3,446.46 451.77,446.46 451.77,281.69 				"/>
				<polyline class="st9" points="685.63,154.13 685.63,106.3 451.77,106.3 451.77,281.69 				"/>
				<line class="st9" x1="685.63" y1="271.06" x2="685.63" y2="148.82"/>
				<polyline class="st9" points="738.78,722.83 738.78,552.76 882.28,552.76 882.28,467.72 				"/>
				<polyline class="st9" points="818.5,637.8 818.5,488.98 632.48,488.98 632.48,520.87 				"/>
				<polyline class="st9" points="292.32,387.99 292.32,547.44 632.48,547.44 632.48,520.87 				"/>
				<polyline class="st9" points="292.32,387.99 292.32,47.83 106.3,47.83 106.3,111.61 				"/>
				<polyline class="st9" points="818.5,887.6 818.5,919.49 738.78,919.49 738.78,722.83 				"/>
				<polyline class="st10" points="802.56,361.42 802.56,393.31 882.28,393.31 882.28,467.72 				"/>
				<polyline class="st9" points="802.56,361.42 802.56,308.27 685.63,308.27 685.63,265.75 				"/>
				<line class="st9" x1="818.5" y1="637.8" x2="818.5" y2="887.6"/>
			</g>
		</g>
	</g>
	<g id="HUIT_Route">
		<g id="Connections">
			<g>
				<polyline class="st1" points="589.96,520.87 589.96,993.9 908.86,993.9 				"/>
				<path class="st1" d="M616.54,616.54"/>
			</g>
			<g>
				<polyline class="st11" points="589.96,520.87 589.96,993.9 908.86,993.9 				"/>
				<path class="st11" d="M616.54,616.54"/>
			</g>
		</g>
	</g>
	<g id="Overnight">
		<g id="Connections">
			<g>
				<polyline class="st1" points="717.52,717.52 717.52,685.63 648.43,685.63 648.43,659.06 				"/>
				<polyline class="st1" points="839.76,882.28 839.76,940.75 717.52,940.75 717.52,722.83 				"/>
				<polyline class="st1" points="74.51,111.71 74.41,15.94 324.21,15.94 324.21,499.61 611.22,499.61 611.22,520.87 				"/>
				<line class="st1" x1="74.41" y1="271.06" x2="74.41" y2="111.61"/>
				<line class="st1" x1="74.41" y1="265.75" x2="74.41" y2="377.36"/>
				<polyline class="st1" points="430.51,281.69 430.51,85.04 706.89,85.04 706.89,154.13 				"/>
				<line class="st1" x1="706.89" y1="271.06" x2="706.89" y2="154.13"/>
				<polyline class="st1" points="823.82,361.42 823.82,372.05 903.54,372.05 903.54,467.72 				"/>
				<polyline class="st1" points="611.22,520.87 611.22,605.91 839.76,605.91 839.76,637.8 				"/>
				<line class="st1" x1="839.76" y1="637.8" x2="839.76" y2="882.28"/>
				<polyline class="st1" points="430.51,281.69 430.51,478.35 74.41,478.35 74.41,377.36 				"/>
				<polyline class="st1" points="706.89,271.06 706.89,287.01 823.82,287.01 823.82,361.42 				"/>
				<polyline class="st1" points="903.54,467.72 903.54,574.02 648.43,574.02 648.43,659.06 				"/>
			</g>
			<g>
				<polyline class="st12" points="717.52,717.52 717.52,685.63 648.43,685.63 648.43,659.06 				"/>
				<polyline class="st12" points="839.76,882.28 839.76,940.75 717.52,940.75 717.52,722.83 				"/>
				<polyline class="st12" points="74.51,111.71 74.41,15.94 324.21,15.94 324.21,499.61 611.22,499.61 611.22,520.87 				"/>
				<line class="st12" x1="74.41" y1="271.06" x2="74.41" y2="111.61"/>
				<line class="st12" x1="74.41" y1="265.75" x2="74.41" y2="377.36"/>
				<polyline class="st12" points="430.51,281.69 430.51,85.04 706.89,85.04 706.89,154.13 				"/>
				<line class="st12" x1="706.89" y1="271.06" x2="706.89" y2="154.13"/>
				<polyline class="st12" points="823.82,361.42 823.82,372.05 903.54,372.05 903.54,467.72 				"/>
				<polyline class="st12" points="611.22,520.87 611.22,605.91 839.76,605.91 839.76,637.8 				"/>
				<line class="st12" x1="839.76" y1="637.8" x2="839.76" y2="882.28"/>
				<polyline class="st12" points="430.51,281.69 430.51,478.35 74.41,478.35 74.41,377.36 				"/>
				<polyline class="st12" points="706.89,271.06 706.89,287.01 823.82,287.01 823.82,361.42 				"/>
				<polyline class="st12" points="903.54,467.72 903.54,574.02 648.43,574.02 648.43,659.06 				"/>
			</g>
		</g>
	</g>
</g>
<g id="Labels_and_Stops">
	<g id="Stops">
		<g id="_x32_3509">
			<path d="M74.41,273.38c-1.28,0-2.31-1.04-2.31-2.31s1.04-2.31,2.31-2.31h63.78c1.28,0,2.31,1.04,2.31,2.31s-1.04,2.31-2.31,2.31
				H74.41z"/>
			<path d="M138.19,265.75H74.41c-2.94,0-5.31,2.38-5.31,5.31l0,0c0,2.94,2.38,5.31,5.31,5.31h63.78c2.94,0,5.31-2.38,5.31-5.31l0,0
				C143.5,268.13,141.12,265.75,138.19,265.75L138.19,265.75z"/>
		</g>
		<g id="_x35_050">
			<path d="M74.41,379.68c-1.28,0-2.31-1.04-2.31-2.31s1.04-2.31,2.31-2.31h63.78c1.28,0,2.31,1.04,2.31,2.31s-1.04,2.31-2.31,2.31
				H74.41z"/>
			<path d="M138.19,372.05H74.41c-2.94,0-5.31,2.38-5.31,5.31s2.38,5.31,5.31,5.31h63.78c2.94,0,5.31-2.38,5.31-5.31
				S141.12,372.05,138.19,372.05L138.19,372.05z"/>
		</g>
		<g id="_x35_049">
			<path d="M74.41,113.93c-1.28,0-2.31-1.04-2.31-2.31s1.04-2.31,2.31-2.31h63.78c1.28,0,2.31,1.04,2.31,2.31s-1.04,2.31-2.31,2.31
				H74.41z"/>
			<path d="M138.19,106.3H74.41c-2.94,0-5.31,2.38-5.31,5.31s2.38,5.31,5.31,5.31h63.78c2.94,0,5.31-2.38,5.31-5.31
				S141.12,106.3,138.19,106.3L138.19,106.3z"/>
		</g>
		<g id="_x35_040">
			<path d="M281.69,682.63c-1.28,0-2.31-1.04-2.31-2.32s1.04-2.31,2.31-2.31h21.26c1.28,0,2.31,1.04,2.31,2.31s-1.04,2.32-2.31,2.32
				H281.69z"/>
			<path d="M302.95,675h-21.26c-2.94,0-5.31,2.38-5.31,5.31c0,2.94,2.38,5.32,5.31,5.32h21.26c2.94,0,5.32-2.38,5.32-5.32
				C308.27,677.38,305.89,675,302.95,675L302.95,675z"/>
		</g>
		<g id="_x35_039">
			<path d="M281.69,831.64c-1.38,0-2.51-1.12-2.51-2.51s1.13-2.51,2.51-2.51h21.26c1.38,0,2.51,1.12,2.51,2.51s-1.13,2.51-2.51,2.51
				H281.69z"/>
			<path d="M302.95,823.82h-21.26c-2.94,0-5.31,2.38-5.31,5.31s2.38,5.31,5.31,5.31h21.26c2.94,0,5.32-2.38,5.32-5.31
				S305.89,823.82,302.95,823.82L302.95,823.82z"/>
		</g>
		<g id="_x36_3189">
			<path d="M281.69,921.8c-1.28,0-2.31-1.04-2.31-2.31s1.04-2.32,2.31-2.32h10.63c1.28,0,2.31,1.04,2.31,2.32s-1.04,2.31-2.31,2.31
				H281.69z"/>
			<path d="M292.32,914.17h-10.63c-2.94,0-5.31,2.38-5.31,5.31l0,0c0,2.94,2.38,5.31,5.31,5.31h10.63c2.94,0,5.31-2.38,5.31-5.31
				l0,0C297.64,916.55,295.26,914.17,292.32,914.17L292.32,914.17z"/>
		</g>
		<g id="_x35_8343">
			<path d="M201.97,990.9c-1.28,0-2.31-1.04-2.31-2.31s1.04-2.32,2.31-2.32h10.63c1.28,0,2.31,1.04,2.31,2.32s-1.04,2.31-2.31,2.31
				H201.97z"/>
			<path d="M212.6,983.27h-10.63c-2.94,0-5.31,2.38-5.31,5.31l0,0c0,2.94,2.38,5.31,5.31,5.31h10.63c2.94,0,5.31-2.38,5.31-5.31l0,0
				C217.91,985.65,215.53,983.27,212.6,983.27L212.6,983.27z"/>
		</g>
		<g id="_x35_041">
			<path d="M281.69,602.91c-1.28,0-2.31-1.04-2.31-2.31s1.04-2.32,2.31-2.32h21.26c1.28,0,2.31,1.04,2.31,2.32s-1.04,2.31-2.31,2.31
				H281.69z"/>
			<path d="M302.95,595.28h-21.26c-2.94,0-5.31,2.38-5.31,5.32s2.38,5.31,5.31,5.31h21.26c2.94,0,5.32-2.38,5.32-5.31
				S305.89,595.28,302.95,595.28L302.95,595.28z"/>
		</g>
		<g id="_x35_036">
			<path d="M451.84,1012.16c-1.32,0-2.39-1.07-2.39-2.39s1.07-2.39,2.39-2.39s2.39,1.07,2.39,2.39S453.16,1012.16,451.84,1012.16z"
				/>
			<path d="M451.84,1004.38c-2.98,0-5.39,2.41-5.39,5.39s2.41,5.39,5.39,5.39s5.39-2.41,5.39-5.39S454.82,1004.38,451.84,1004.38
				L451.84,1004.38z"/>
		</g>
		<g id="_x35_054">
			<path d="M127.49,682.78c-1.32,0-2.39-1.07-2.39-2.39s1.07-2.39,2.39-2.39s2.39,1.07,2.39,2.39S128.8,682.78,127.49,682.78z"/>
			<path d="M127.49,675c-2.98,0-5.39,2.41-5.39,5.39s2.41,5.39,5.39,5.39c2.98,0,5.39-2.41,5.39-5.39S130.46,675,127.49,675
				L127.49,675z"/>
		</g>
		<g id="_x32_3930">
			<path d="M127.63,831.45c-1.32,0-2.39-1.07-2.39-2.39s1.07-2.39,2.39-2.39s2.39,1.07,2.39,2.39S128.95,831.45,127.63,831.45z"/>
			<path d="M127.63,823.67c-2.98,0-5.39,2.41-5.39,5.39l0,0c0,2.98,2.41,5.39,5.39,5.39c2.98,0,5.39-2.41,5.39-5.39l0,0
				C133.02,826.09,130.61,823.67,127.63,823.67L127.63,823.67z"/>
		</g>
		<g id="_x36_3190">
			<path d="M127.63,921.8c-1.32,0-2.39-1.07-2.39-2.39s1.07-2.39,2.39-2.39s2.39,1.07,2.39,2.39S128.95,921.8,127.63,921.8z"/>
			<path d="M127.63,914.03c-2.98,0-5.39,2.41-5.39,5.39s2.41,5.39,5.39,5.39c2.98,0,5.39-2.41,5.39-5.39
				S130.61,914.03,127.63,914.03L127.63,914.03z"/>
		</g>
		<g id="_x31_32600">
			<path d="M292.32,391.38c-1.87,0-3.39-1.52-3.39-3.39s1.52-3.39,3.39-3.39h31.89c1.87,0,3.39,1.52,3.39,3.39s-1.52,3.39-3.39,3.39
				H292.32z"/>
			<path d="M324.21,386.52c0.81,0,1.47,0.66,1.47,1.47s-0.66,1.47-1.47,1.47h-31.89c-0.81,0-1.47-0.66-1.47-1.47
				s0.66-1.47,1.47-1.47H324.21 M324.21,382.68h-31.89c-2.94,0-5.31,2.38-5.31,5.31l0,0c0,2.94,2.38,5.31,5.31,5.31h31.89
				c2.94,0,5.31-2.38,5.31-5.31l0,0C329.53,385.06,327.15,382.68,324.21,382.68L324.21,382.68z"/>
		</g>
		<g id="_x35_8381">
			<circle cx="908.93" cy="993.97" r="3.36"/>
			<path d="M908.93,992.64c0.73,0,1.33,0.6,1.33,1.33s-0.6,1.33-1.33,1.33c-0.74,0-1.33-0.6-1.33-1.33S908.2,992.64,908.93,992.64
				 M908.93,988.58c-2.98,0-5.39,2.41-5.39,5.39s2.41,5.39,5.39,5.39c2.98,0,5.39-2.41,5.39-5.39S911.91,988.58,908.93,988.58
				L908.93,988.58z"/>
		</g>
		<g id="_x35_8344">
			<path d="M127.49,603.05c-1.32,0-2.39-1.07-2.39-2.39s1.07-2.39,2.39-2.39s2.39,1.07,2.39,2.39
				C129.87,601.98,128.8,603.05,127.49,603.05z"/>
			<path d="M127.49,595.28c-2.98,0-5.39,2.41-5.39,5.39s2.41,5.39,5.39,5.39c2.98,0,5.39-2.41,5.39-5.39
				S130.46,595.28,127.49,595.28L127.49,595.28z"/>
		</g>
		<g id="_x35_042">
			<path d="M430.51,284.01c-1.28,0-2.31-1.04-2.31-2.31s1.04-2.31,2.31-2.31h63.78c1.28,0,2.32,1.04,2.32,2.31s-1.04,2.31-2.32,2.31
				H430.51z"/>
			<path d="M494.29,276.38h-63.78c-2.94,0-5.31,2.38-5.31,5.31s2.38,5.31,5.31,5.31h63.78c2.94,0,5.31-2.38,5.31-5.31
				S497.23,276.38,494.29,276.38L494.29,276.38z"/>
		</g>
		<g id="_x35_043">
			<path d="M653.74,156.45c-1.28,0-2.32-1.04-2.32-2.31s1.04-2.31,2.32-2.31h53.15c1.28,0,2.31,1.04,2.31,2.31s-1.04,2.31-2.31,2.31
				H653.74z"/>
			<path d="M706.89,148.82h-53.15c-2.94,0-5.31,2.38-5.31,5.31l0,0c0,2.94,2.38,5.31,5.31,5.31h53.15c2.94,0,5.31-2.38,5.31-5.31
				l0,0C712.2,151.2,709.83,148.82,706.89,148.82L706.89,148.82z"/>
		</g>
		<g id="_x36_248">
			<path d="M653.74,273.38c-1.28,0-2.31-1.04-2.31-2.31s1.04-2.31,2.31-2.31h53.15c1.28,0,2.31,1.04,2.31,2.31s-1.04,2.31-2.31,2.31
				H653.74z"/>
			<path d="M706.89,265.75h-53.15c-2.94,0-5.31,2.38-5.31,5.31l0,0c0,2.94,2.38,5.31,5.31,5.31h53.15c2.94,0,5.31-2.38,5.31-5.31
				l0,0C712.2,268.13,709.83,265.75,706.89,265.75L706.89,265.75z"/>
		</g>
		<g id="_x35_044">
			<path d="M770.67,363.73c-1.28,0-2.32-1.04-2.32-2.31s1.04-2.31,2.32-2.31h53.15c1.28,0,2.31,1.04,2.31,2.31s-1.04,2.31-2.31,2.31
				H770.67z"/>
			<path d="M823.82,356.1h-53.15c-2.94,0-5.31,2.38-5.31,5.31l0,0c0,2.94,2.38,5.31,5.31,5.31h53.15c2.94,0,5.31-2.38,5.31-5.31l0,0
				C829.13,358.48,826.75,356.1,823.82,356.1L823.82,356.1z"/>
		</g>
		<g id="_x35_045">
			<path d="M861.02,470.03c-1.28,0-2.32-1.04-2.32-2.31s1.04-2.31,2.32-2.31h63.78c1.28,0,2.32,1.04,2.32,2.31s-1.04,2.31-2.32,2.31
				H861.02z"/>
			<path d="M924.8,462.4h-63.78c-2.94,0-5.32,2.38-5.32,5.31c0,2.94,2.38,5.31,5.32,5.31h63.78c2.94,0,5.32-2.38,5.32-5.31
				C930.12,464.78,927.74,462.4,924.8,462.4L924.8,462.4z"/>
		</g>
		<g id="_x35_047">
			<path d="M807.87,634.79c-1.28,0-2.32-1.04-2.32-2.31s1.04-2.32,2.32-2.32h31.89c1.28,0,2.31,1.04,2.31,2.32s-1.04,2.31-2.31,2.31
				H807.87z"/>
			<path d="M839.76,627.17h-31.89c-2.94,0-5.31,2.38-5.31,5.31l0,0c0,2.94,2.38,5.31,5.31,5.31h31.89c2.94,0,5.31-2.38,5.31-5.31
				l0,0C845.08,629.54,842.7,627.17,839.76,627.17L839.76,627.17z"/>
		</g>
		<g id="_x36_854">
			<path d="M706.89,719.84c-1.28,0-2.32-1.04-2.32-2.32s1.04-2.31,2.32-2.31h53.15c1.28,0,2.32,1.04,2.32,2.31s-1.04,2.32-2.32,2.32
				H706.89z"/>
			<path d="M760.04,712.2h-53.15c-2.94,0-5.31,2.38-5.31,5.31l0,0c0,2.94,2.38,5.31,5.31,5.31h53.15c2.94,0,5.32-2.38,5.32-5.31l0,0
				C765.35,714.58,762.97,712.2,760.04,712.2L760.04,712.2z"/>
		</g>
		<g id="_x35_046">
			<path d="M807.87,889.91c-1.28,0-2.32-1.04-2.32-2.31s1.04-2.32,2.32-2.32h42.52c1.28,0,2.31,1.04,2.31,2.32s-1.04,2.31-2.31,2.31
				H807.87z"/>
			<path d="M850.39,882.28h-42.52c-2.94,0-5.31,2.38-5.31,5.31l0,0c0,2.94,2.38,5.31,5.31,5.31h42.52c2.94,0,5.31-2.38,5.31-5.31
				l0,0C855.71,884.66,853.33,882.28,850.39,882.28L850.39,882.28z"/>
		</g>
		<g id="_x35_051">
			<path d="M637.8,661.37c-1.28,0-2.31-1.04-2.31-2.32s1.04-2.31,2.31-2.31h10.63c1.28,0,2.32,1.04,2.32,2.31s-1.04,2.32-2.32,2.32
				H637.8z"/>
			<path d="M648.43,653.74H637.8c-2.94,0-5.31,2.38-5.31,5.31s2.38,5.31,5.31,5.31h10.63c2.94,0,5.31-2.38,5.31-5.31
				S651.36,653.74,648.43,653.74L648.43,653.74z"/>
		</g>
		<g id="_x35_048">
			<path d="M589.96,523.18c-1.28,0-2.31-1.04-2.31-2.31s1.04-2.31,2.31-2.31h42.52c1.28,0,2.31,1.04,2.31,2.31s-1.04,2.31-2.31,2.31
				H589.96z"/>
			<path d="M632.48,515.55h-42.52c-2.94,0-5.31,2.38-5.31,5.32s2.38,5.31,5.31,5.31h42.52c2.94,0,5.31-2.38,5.31-5.31
				S635.42,515.55,632.48,515.55L632.48,515.55z"/>
		</g>
	</g>
	<g id="Labels">
		<text transform="matrix(1 0 0 1 31.8898 111.6142)" class="st13 st14">Quad</text>
		<text transform="matrix(1 0 0 1 21.0041 271.0632)" class="st13 st14">Radcliffe</text>
		<text transform="matrix(1 0 0 1 31.0341 285.4632)" class="st13 st14">Yard</text>
		<text transform="matrix(1 0 0 1 15.945 377.362)" class="st13 st14">Mass Ave</text>
		<text transform="matrix(1 0 0 1 26.575 600.5906)" class="st13 st14">Harvard Square (S)</text>
		<text transform="matrix(1 0 0 1 21.2598 680.3152)" class="st13 st14">Kennedy School (S)</text>
		<text transform="matrix(1 0 0 1 15.9451 829.134)" class="st13 st14">Harvard Stadium (S)</text>
		<text transform="matrix(1 0 0 1 175.3937 680.3151)" class="st13 st14">Kennedy School (N) </text>
		<text transform="matrix(1 0 0 1 170.0787 829.1337)" class="st13 st14">Harvard Stadium (N)</text>
		<text transform="matrix(1 0 0 1 186.0236 919.4883)" class="st13 st14">Barry’s Corner (N)</text>
		<text transform="matrix(1 0 0 1 175.3937 988.5825)" class="st13 st14">SEC</text>
		<text transform="matrix(1 0 0 1 31.8897 919.4883)" class="st13 st14">Barry’s Corner (S)</text>
		<text transform="matrix(1 0 0 1 175.3937 600.5904)" class="st13 st14">Harvard Square (N)</text>
		<text transform="matrix(1 0 0 1 510.727 276.3781)" class="st13 st14">Law</text>
		<text transform="matrix(1 0 0 1 503.887 290.7781)" class="st13 st14">School</text>
		<text transform="matrix(1 0 0 1 718.0321 148.8187)" class="st13 st14">Maxwell</text>
		<text transform="matrix(1 0 0 1 721.9821 163.2187)" class="st13 st14">Dorkin</text>
		<text transform="matrix(1 0 0 1 602.7705 265.7481)" class="st13 st14">Science</text>
		<text transform="matrix(1 0 0 1 605.0805 280.1481)" class="st13 st14">Center</text>
		<text transform="matrix(1 0 0 1 510.2359 520.8662)" class="st13 st14">Widener Gate</text>
		<text transform="matrix(1 0 0 1 656.5189 659.0547)" class="st13 st14">Winthrop</text>
		<text transform="matrix(1 0 0 1 664.4189 673.4547)" class="st13 st14">House</text>
		<text transform="matrix(1 0 0 1 932.0403 462.4016)" class="st13 st14">Lamont</text>
		<text transform="matrix(1 0 0 1 934.0903 476.8016)" class="st13 st14">Library</text>
		<text transform="matrix(1 0 0 1 850.3933 632.4802)" class="st13 st14">The Inn</text>
		<text transform="matrix(1 0 0 1 654.3303 717.5197)" class="st13 st14">Leverett</text>
		<text transform="matrix(1 0 0 1 659.1104 731.9197)" class="st13 st14">House</text>
		<text transform="matrix(1 0 0 1 857.853 882.2833)" class="st15 st14">Mather</text>
		<text transform="matrix(1 0 0 1 860.643 896.6833)" class="st15 st14">House</text>
		<g>
			<path d="M925.09,986.1v0.7l-3.39,7.1h-1.09l3.38-6.9v-0.02h-3.81v-0.88L925.09,986.1L925.09,986.1z"/>
			<path d="M926.09,991.92c0-0.98,0.59-1.68,1.55-2.09l-0.01-0.04c-0.86-0.41-1.24-1.08-1.24-1.75c0-1.24,1.04-2.08,2.41-2.08
				c1.51,0,2.27,0.95,2.27,1.92c0,0.66-0.32,1.37-1.28,1.82v0.04c0.97,0.38,1.57,1.07,1.57,2.01c0,1.36-1.16,2.27-2.65,2.27
				C927.07,994.03,926.09,993.06,926.09,991.92z M930.29,991.87c0-0.95-0.66-1.4-1.72-1.7c-0.91,0.26-1.4,0.86-1.4,1.61
				c-0.04,0.79,0.56,1.49,1.56,1.49C929.67,993.26,930.29,992.67,930.29,991.87z M927.38,987.97c0,0.78,0.59,1.2,1.49,1.44
				c0.67-0.23,1.19-0.71,1.19-1.42c0-0.62-0.37-1.27-1.32-1.27C927.86,986.73,927.38,987.3,927.38,987.97z"/>
			<path d="M935.6,993.9v-2.12h-3.62v-0.7l3.48-4.98h1.14v4.85h1.09v0.83h-1.09v2.12H935.6z M935.6,990.95v-2.6
				c0-0.41,0.01-0.82,0.04-1.22h-0.04c-0.24,0.46-0.43,0.79-0.65,1.15l-1.91,2.65v0.02L935.6,990.95L935.6,990.95z"/>
			<path d="M948.22,990.35c-0.06-1.13-0.13-2.48-0.12-3.49h-0.04c-0.28,0.95-0.61,1.96-1.02,3.07l-1.43,3.92h-0.79l-1.31-3.85
				c-0.38-1.14-0.71-2.18-0.94-3.14h-0.02c-0.02,1.01-0.08,2.36-0.16,3.57l-0.22,3.47h-1l0.56-8.08h1.33l1.38,3.91
				c0.34,1,0.61,1.88,0.82,2.72h0.04c0.2-0.82,0.49-1.7,0.85-2.72l1.44-3.91h1.33l0.5,8.08h-1.02L948.22,990.35z"/>
			<path d="M951.68,991.19c0.02,1.43,0.94,2.01,1.99,2.01c0.75,0,1.21-0.13,1.61-0.3l0.18,0.76c-0.37,0.17-1.01,0.36-1.93,0.36
				c-1.79,0-2.85-1.17-2.85-2.93c0-1.75,1.03-3.13,2.72-3.13c1.9,0,2.4,1.67,2.4,2.73c0,0.22-0.02,0.38-0.04,0.49h-4.08V991.19z
				 M954.78,990.43c0.01-0.67-0.28-1.71-1.46-1.71c-1.07,0-1.54,0.98-1.62,1.71H954.78z"/>
			<path d="M957.11,989.66c0-0.6-0.01-1.09-0.05-1.57h0.92l0.05,0.94h0.04c0.32-0.55,0.86-1.07,1.82-1.07
				c0.79,0,1.39,0.48,1.64,1.16h0.02c0.18-0.32,0.41-0.58,0.65-0.75c0.35-0.26,0.73-0.41,1.28-0.41c0.77,0,1.91,0.5,1.91,2.52v3.42
				h-1.03v-3.29c0-1.12-0.41-1.79-1.26-1.79c-0.6,0-1.07,0.44-1.25,0.96c-0.05,0.14-0.08,0.34-0.08,0.53v3.59h-1.03v-3.48
				c0-0.92-0.41-1.6-1.21-1.6c-0.66,0-1.14,0.53-1.31,1.06c-0.06,0.16-0.08,0.34-0.08,0.52v3.5h-1.03L957.11,989.66L957.11,989.66z"
				/>
			<path d="M972.37,990.95c0,2.15-1.49,3.08-2.89,3.08c-1.57,0-2.78-1.15-2.78-2.99c0-1.94,1.27-3.08,2.88-3.08
				C971.24,987.96,972.37,989.17,972.37,990.95z M967.76,991.01c0,1.27,0.73,2.23,1.76,2.23c1.01,0,1.76-0.95,1.76-2.25
				c0-0.98-0.49-2.23-1.74-2.23S967.76,989.9,967.76,991.01z"/>
			<path d="M973.7,989.9c0-0.68-0.01-1.27-0.05-1.81h0.92l0.04,1.14h0.05c0.26-0.78,0.9-1.27,1.61-1.27c0.12,0,0.2,0.01,0.3,0.04v1
				c-0.11-0.02-0.22-0.04-0.36-0.04c-0.74,0-1.27,0.56-1.42,1.36c-0.02,0.14-0.05,0.31-0.05,0.49v3.09h-1.04V989.9z"/>
			<path d="M978.85,986.46c0.01,0.36-0.25,0.65-0.67,0.65c-0.37,0-0.64-0.29-0.64-0.65c0-0.37,0.28-0.66,0.66-0.66
				C978.6,985.8,978.85,986.09,978.85,986.46z M977.67,993.9v-5.8h1.06v5.8H977.67z"/>
			<path d="M983.7,993.9l-0.08-0.73h-0.04c-0.32,0.46-0.95,0.86-1.78,0.86c-1.17,0-1.77-0.83-1.77-1.67c0-1.4,1.25-2.17,3.49-2.16
				v-0.12c0-0.48-0.13-1.34-1.32-1.34c-0.54,0-1.1,0.17-1.51,0.43l-0.24-0.7c0.48-0.31,1.18-0.52,1.91-0.52
				c1.78,0,2.21,1.21,2.21,2.38v2.17c0,0.5,0.02,1,0.1,1.39h-0.97L983.7,993.9L983.7,993.9z M983.54,990.94
				c-1.15-0.02-2.46,0.18-2.46,1.31c0,0.68,0.46,1.01,1,1.01c0.75,0,1.24-0.48,1.4-0.97c0.04-0.11,0.06-0.23,0.06-0.34V990.94z"/>
			<path d="M986.27,985.38h1.06v8.51h-1.06V985.38z"/>
		</g>
		<text transform="matrix(1 0 0 1 409.2522 999.2122)" class="st13 st14">One Western Ave</text>
		<text transform="matrix(1 0 0 1 223.2282 382.6772)" class="st13 st14">Cambridge</text>
		<text transform="matrix(1 0 0 1 223.2282 397.0772)" class="st13 st14">Commons</text>
		<text transform="matrix(1 0 0 1 690.9453 361.4171)" class="st13 st14">Memorial Hall</text>
	</g>
	<g id="Stop_IDs">
		<text transform="matrix(1 0 0 1 33.151 100.9849)" class="st13 st14">5049</text>
		<text transform="matrix(1 0 0 1 28.3912 260.4339)" class="st13 st14">23509</text>
		<text transform="matrix(1 0 0 1 17.2062 366.7327)" class="st13 st14">5050</text>
		<text transform="matrix(1 0 0 1 27.8361 589.9614)" class="st13 st14">58344</text>
		<text transform="matrix(1 0 0 1 22.521 669.686)" class="st13 st14">5054</text>
		<text transform="matrix(1 0 0 1 17.2062 818.5047)" class="st13 st14">23930</text>
		<text transform="matrix(1 0 0 1 176.6548 669.6859)" class="st13 st14">5040 </text>
		<text transform="matrix(1 0 0 1 171.3399 818.5043)" class="st13 st14">5039</text>
		<text transform="matrix(1 0 0 1 187.2848 908.8591)" class="st13 st14">63189</text>
		<text transform="matrix(1 0 0 1 176.6549 977.9532)" class="st13 st14">58343</text>
		<text transform="matrix(1 0 0 1 33.1508 908.8591)" class="st13 st14">63190</text>
		<text transform="matrix(1 0 0 1 176.6548 589.9611)" class="st13 st14">5041</text>
		<text transform="matrix(1 0 0 1 509.8162 265.7488)" class="st13 st14">5042</text>
		<text transform="matrix(1 0 0 1 727.7292 138.1894)" class="st13 st14">5043</text>
		<text transform="matrix(1 0 0 1 610.7998 255.1188)" class="st13 st14">6248</text>
		<text transform="matrix(1 0 0 1 511.497 510.2369)" class="st13 st14">5048</text>
		<text transform="matrix(1 0 0 1 669.2644 648.4255)" class="st13 st14">5051</text>
		<text transform="matrix(1 0 0 1 940.3279 451.7723)" class="st13 st14">5045</text>
		<text transform="matrix(1 0 0 1 851.6544 621.8509)" class="st13 st14">5047</text>
		<text transform="matrix(1 0 0 1 663.9495 706.8904)" class="st13 st14">6854</text>
		<text transform="matrix(1 0 0 1 863.4999 871.654)" class="st15 st14">5046</text>
		<text transform="matrix(1 0 0 1 224.4893 372.0479)" class="st13 st14">132600</text>
		<text transform="matrix(1 0 0 1 692.2064 350.7878)" class="st13 st14">5044</text>
		<text transform="matrix(1 0 0 1 935.4326 977.9523)" class="st13 st14">58381</text>
		<text transform="matrix(1 0 0 1 430.5116 988.5825)" class="st13 st14">5036</text>
	</g>
</g>
</svg>
