<?xml version="1.0" encoding="utf-8"?>
<!-- Generator: Adobe Illustrator 28.3.0, SVG Export Plug-In . SVG Version: 6.00 Build 0)  -->
<svg version="1.0" xmlns="http://www.w3.org/2000/svg" xmlns:xlink="http://www.w3.org/1999/xlink" x="0px" y="0px"
	 viewBox="0 0 1147.13 1169.29" style="enable-background:new 0 0 1147.13 1169.29;" xml:space="preserve">
<style type="text/css">
	.st0{fill:#0077AA;}
	.st1{fill:none;stroke:#231F20;stroke-width:9;}
	.st2{fill:none;stroke:#C945E5;stroke-width:6;stroke-miterlimit:10;}
	.st3{fill:none;stroke:#C1272D;stroke-width:6;stroke-miterlimit:10;}
	.st4{fill:none;stroke:#DD1F95;stroke-width:6;stroke-miterlimit:10;}
	.st5{fill:none;stroke:#475AC6;stroke-width:6;stroke-miterlimit:10;}
	.st6{fill:none;stroke:#0000FF;stroke-width:6;stroke-miterlimit:10;}
	.st7{fill:none;stroke:#2AB74B;stroke-width:6;stroke-miterlimit:10;}
	.st8{fill:none;stroke:#ED1C24;stroke-width:6;stroke-miterlimit:10;}
	.st9{fill:none;stroke:#11C7F2;stroke-width:6;stroke-miterlimit:10;}
	.st10{fill:none;stroke:#11C7F2;stroke-width:6.5227;stroke-miterlimit:10;}
	.st11{fill:none;stroke:#EAD61C;stroke-width:6;stroke-miterlimit:10;}
	.st12{fill:none;stroke:#F7EA08;stroke-width:6;stroke-miterlimit:10;}
	.st13{font-family:'ArialMT';}
	.st14{font-size:12px;}
	.st15{font-family:'Niramit-Regular';}
	.st16{font-family:'TrebuchetMS';}
</style>
<g id="Decors">
	<polygon class="st0" points="558.07,835.83 558.07,995.28 722.83,995.28 722.83,1154.73 669.68,1154.73 669.68,1048.43 
		504.92,1048.43 504.92,888.98 37.2,887.67 37.2,834.45 	"/>
</g>
<g id="Routes">
	<g id="Quad_SEC_Direct">
		<g id="Connections">
			<g>
				<line class="st1" x1="207.28" y1="770.67" x2="207.28" y2="919.49"/>
				<line class="st1" x1="207.28" y1="1009.84" x2="207.28" y2="919.49"/>
				<polyline class="st1" points="281.69,1078.94 281.69,1100.2 207.28,1100.2 207.28,1009.84 				"/>
				<polyline class="st1" points="361.42,1009.84 361.42,1036.42 281.69,1036.42 281.69,1078.94 				"/>
				<line class="st1" x1="361.42" y1="919.49" x2="361.42" y2="1009.84"/>
				<line class="st1" x1="361.42" y1="919.49" x2="361.42" y2="770.67"/>
				<line class="st1" x1="361.42" y1="690.94" x2="361.42" y2="770.67"/>
				<polyline class="st1" points="207.28,201.97 207.28,159.45 563.39,159.45 563.39,372.05 				"/>
				<polyline class="st1" points="563.39,366.73 563.39,653.74 361.42,653.74 361.42,690.94 				"/>
				
					<line id="_x35_049to23509_x5F_01_00000178896851158066948640000015560635354304859532_" class="st1" x1="207.28" y1="361.42" x2="207.28" y2="207.28"/>
				<line class="st1" x1="207.28" y1="462.4" x2="207.28" y2="366.73"/>
				<line class="st1" x1="207.28" y1="690.94" x2="207.28" y2="467.72"/>
				<line class="st1" x1="207.28" y1="770.67" x2="207.28" y2="690.94"/>
				<path class="st1" d="M292.32,1015.16"/>
				<path class="st1" d="M239.17,1009.84"/>
			</g>
			<g>
				<line class="st2" x1="207.28" y1="770.67" x2="207.28" y2="919.49"/>
				<line class="st2" x1="207.28" y1="1009.84" x2="207.28" y2="919.49"/>
				<polyline class="st2" points="281.69,1078.94 281.69,1100.2 207.28,1100.2 207.28,1009.84 				"/>
				<polyline class="st2" points="361.42,1009.84 361.42,1036.42 281.69,1036.42 281.69,1078.94 				"/>
				<line class="st2" x1="361.42" y1="919.49" x2="361.42" y2="1009.84"/>
				<line class="st2" x1="361.42" y1="919.49" x2="361.42" y2="770.67"/>
				<line class="st2" x1="361.42" y1="690.94" x2="361.42" y2="770.67"/>
				<polyline class="st2" points="207.28,201.97 207.28,159.45 563.39,159.45 563.39,372.05 				"/>
				<polyline class="st2" points="563.39,366.73 563.39,653.74 361.42,653.74 361.42,690.94 				"/>
				
					<line id="_x35_049to23509_x5F_01_00000129886215791333930090000000841367431536079778_" class="st2" x1="207.28" y1="361.42" x2="207.28" y2="207.28"/>
				<line class="st2" x1="207.28" y1="462.4" x2="207.28" y2="366.73"/>
				<line class="st2" x1="207.28" y1="690.94" x2="207.28" y2="467.72"/>
				<line class="st2" x1="207.28" y1="770.67" x2="207.28" y2="690.94"/>
				<path class="st2" d="M292.32,1015.16"/>
				<path class="st2" d="M239.17,1009.84"/>
			</g>
		</g>
	</g>
	<g id="Allston_Loop">
		<g id="Connections_00000075883866712509860230000010570915475464463779_">
			<g>
				<polyline class="st1" points="292.32,1078.94 292.32,1100.2 531.5,1100.2 				"/>
				<polyline class="st1" points="372.05,1009.84 372.05,1047.05 292.32,1047.05 292.32,1078.94 				"/>
				<line class="st1" x1="372.05" y1="919.49" x2="372.05" y2="1009.84"/>
				<line class="st1" x1="372.05" y1="919.49" x2="372.05" y2="765.35"/>
				<line class="st1" x1="372.05" y1="770.67" x2="372.05" y2="685.63"/>
				<polyline class="st1" points="574.02,372.05 574.02,664.37 372.05,664.37 372.05,690.94 				"/>
				<polyline class="st1" points="733.46,244.49 733.46,228.54 574.02,228.54 574.02,372.05 				"/>
				<line class="st1" x1="733.46" y1="244.49" x2="733.46" y2="361.42"/>
				<polyline class="st1" points="733.46,361.42 733.46,430.51 850.39,430.51 850.39,451.77 				"/>
				<polyline class="st1" points="940.75,558.07 940.75,504.92 850.39,504.92 850.39,451.77 				"/>
				<polyline class="st1" points="839.76,813.19 839.76,621.85 940.75,621.85 940.75,558.07 				"/>
				<polyline class="st1" points="531.5,1100.2 839.76,1100.2 839.76,813.19 				"/>
				<path class="st1" d="M376.19,1063.03"/>
				<path class="st1" d="M529.67,1009.65"/>
				<path class="st1" d="M765.35,372.05"/>
				<path class="st1" d="M361.42,664.37"/>
			</g>
			<g>
				<polyline class="st3" points="292.32,1078.94 292.32,1100.2 531.5,1100.2 				"/>
				<polyline class="st3" points="372.05,1009.84 372.05,1047.05 292.32,1047.05 292.32,1078.94 				"/>
				<line class="st3" x1="372.05" y1="919.49" x2="372.05" y2="1009.84"/>
				<line class="st3" x1="372.05" y1="919.49" x2="372.05" y2="765.35"/>
				<line class="st3" x1="372.05" y1="770.67" x2="372.05" y2="685.63"/>
				<polyline class="st3" points="574.02,372.05 574.02,664.37 372.05,664.37 372.05,690.94 				"/>
				<polyline class="st3" points="733.46,244.49 733.46,228.54 574.02,228.54 574.02,372.05 				"/>
				<line class="st3" x1="733.46" y1="244.49" x2="733.46" y2="361.42"/>
				<polyline class="st3" points="733.46,361.42 733.46,430.51 850.39,430.51 850.39,451.77 				"/>
				<polyline class="st3" points="940.75,558.07 940.75,504.92 850.39,504.92 850.39,451.77 				"/>
				<polyline class="st3" points="839.76,813.19 839.76,621.85 940.75,621.85 940.75,558.07 				"/>
				<polyline class="st3" points="531.5,1100.2 839.76,1100.2 839.76,813.19 				"/>
				<path class="st3" d="M376.19,1063.03"/>
				<path class="st3" d="M529.67,1009.65"/>
				<path class="st3" d="M765.35,372.05"/>
				<path class="st3" d="M361.42,664.37"/>
			</g>
		</g>
	</g>
	<g id="Mather_Express">
		<g id="Connections_00000165933145928840793960000005240245280742489523_">
			<g>
				<polyline class="st1" points="887.6,733.46 887.6,547.44 552.76,547.44 552.76,377.36 				"/>
				<polyline class="st1" points="744.09,239.17 744.09,217.91 552.76,217.91 552.76,372.05 				"/>
				<line class="st1" x1="754.72" y1="260.43" x2="754.72" y2="361.42"/>
				<polyline class="st1" points="744.09,361.42 744.09,419.88 861.02,419.88 861.02,451.77 				"/>
				<polyline class="st1" points="861.02,451.77 861.02,494.29 951.38,494.29 951.38,558.07 				"/>
				<polyline class="st1" points="951.38,552.76 951.38,632.48 829.13,632.48 829.13,813.19 				"/>
				<polyline class="st1" points="829.13,813.19 829.13,999.21 887.6,999.21 887.6,728.15 				"/>
				<line class="st1" x1="744.09" y1="239.17" x2="744.09" y2="361.42"/>
				<path class="st1" d="M855.71,712.2"/>
				<path class="st1" d="M887.6,728.15"/>
			</g>
			<g>
				<polyline class="st4" points="887.6,733.46 887.6,547.44 552.76,547.44 552.76,377.36 				"/>
				<polyline class="st4" points="744.09,239.17 744.09,217.91 552.76,217.91 552.76,372.05 				"/>
				<line class="st4" x1="754.72" y1="260.43" x2="754.72" y2="361.42"/>
				<polyline class="st4" points="744.09,361.42 744.09,419.88 861.02,419.88 861.02,451.77 				"/>
				<polyline class="st4" points="861.02,451.77 861.02,494.29 951.38,494.29 951.38,558.07 				"/>
				<polyline class="st4" points="951.38,552.76 951.38,632.48 829.13,632.48 829.13,813.19 				"/>
				<polyline class="st4" points="829.13,813.19 829.13,999.21 887.6,999.21 887.6,728.15 				"/>
				<line class="st4" x1="744.09" y1="239.17" x2="744.09" y2="361.42"/>
				<path class="st4" d="M855.71,712.2"/>
				<path class="st4" d="M887.6,728.15"/>
			</g>
		</g>
	</g>
	<g id="Quad_Express">
		<g id="Connections_00000005234672524359849940000006617707159109608335_">
			<g>
				
					<line id="_x35_049to23509_x5F_01_00000007393191437662624650000014002773739171397300_" class="st1" x1="196.65" y1="356.1" x2="196.65" y2="207.28"/>
				<line class="st1" x1="196.65" y1="366.73" x2="196.65" y2="462.4"/>
				<polyline class="st1" points="542.13,372.05 542.13,526.18 196.65,526.18 196.65,467.72 				"/>
				<polyline class="st1" points="196.65,196.65 196.65,148.82 478.35,148.82 478.35,467.72 664.37,467.72 664.37,526.18 
					871.65,526.18 871.65,451.77 				"/>
				<polyline class="st1" points="542.13,372.05 542.13,207.28 754.72,207.28 754.72,239.17 				"/>
				<line class="st1" x1="754.72" y1="361.42" x2="754.72" y2="239.17"/>
				<polyline class="st1" points="754.72,361.42 754.72,409.25 871.65,409.25 871.65,451.77 				"/>
				<path class="st1" d="M467.72,308.27"/>
			</g>
			<g>
				
					<line id="_x35_049to23509_x5F_01_00000130642013551274402960000008411783175610693024_" class="st5" x1="196.65" y1="356.1" x2="196.65" y2="207.28"/>
				<line class="st5" x1="196.65" y1="366.73" x2="196.65" y2="462.4"/>
				<polyline class="st5" points="542.13,372.05 542.13,526.18 196.65,526.18 196.65,467.72 				"/>
				<polyline class="st5" points="196.65,196.65 196.65,148.82 478.35,148.82 478.35,467.72 664.37,467.72 664.37,526.18 
					871.65,526.18 871.65,451.77 				"/>
				<polyline class="st5" points="542.13,372.05 542.13,207.28 754.72,207.28 754.72,239.17 				"/>
				<line class="st5" x1="754.72" y1="361.42" x2="754.72" y2="239.17"/>
				<polyline class="st5" points="754.72,361.42 754.72,409.25 871.65,409.25 871.65,451.77 				"/>
				<path class="st5" d="M467.72,308.27"/>
			</g>
		</g>
	</g>
	<g id="Quad_Stadium_Express">
		<g id="Connections_00000062900159522537297690000006150731245249459622_">
			<g>
				<line class="st1" x1="217.91" y1="467.72" x2="217.91" y2="361.42"/>
				<polyline class="st1" points="217.91,467.72 217.91,515.55 435.83,515.55 435.83,106.3 1004.53,106.3 1004.53,558.07 				"/>
				<polyline class="st1" points="717.52,749.41 717.52,685.63 1004.53,685.63 1004.53,558.07 				"/>
				<polyline class="st1" points="930.12,972.64 930.12,1041.73 786.61,1041.73 786.61,813.19 				"/>
				<polyline class="st1" points="717.52,749.41 717.52,786.61 786.61,786.61 786.61,813.19 				"/>
				<polyline class="st1" points="382.68,919.49 382.68,956.69 930.12,956.69 930.12,972.64 				"/>
				<line class="st1" x1="382.68" y1="765.35" x2="382.68" y2="690.94"/>
				<line class="st1" x1="382.68" y1="765.35" x2="382.68" y2="919.49"/>
				<polyline class="st1" points="382.68,690.94 382.68,675 276.38,675 276.38,170.08 217.91,170.08 217.91,201.97 				"/>
				<path class="st1" d="M387.99,781.3"/>
				<line class="st1" x1="217.91" y1="361.42" x2="217.91" y2="201.97"/>
			</g>
			<g>
				<line class="st6" x1="217.91" y1="467.72" x2="217.91" y2="361.42"/>
				<polyline class="st6" points="217.91,467.72 217.91,515.55 435.83,515.55 435.83,106.3 1004.53,106.3 1004.53,558.07 				"/>
				<polyline class="st6" points="717.52,749.41 717.52,685.63 1004.53,685.63 1004.53,558.07 				"/>
				<polyline class="st6" points="930.12,972.64 930.12,1041.73 786.61,1041.73 786.61,813.19 				"/>
				<polyline class="st6" points="717.52,749.41 717.52,786.61 786.61,786.61 786.61,813.19 				"/>
				<polyline class="st6" points="382.68,919.49 382.68,956.69 930.12,956.69 930.12,972.64 				"/>
				<line class="st6" x1="382.68" y1="765.35" x2="382.68" y2="690.94"/>
				<line class="st6" x1="382.68" y1="765.35" x2="382.68" y2="919.49"/>
				<polyline class="st6" points="382.68,690.94 382.68,675 276.38,675 276.38,170.08 217.91,170.08 217.91,201.97 				"/>
				<path class="st6" d="M387.99,781.3"/>
				<line class="st6" x1="217.91" y1="361.42" x2="217.91" y2="201.97"/>
			</g>
		</g>
	</g>
	<g id="Quad_Yard_Express">
		<g id="Connections_00000067214389350451797780000013732721897712994729_">
			<g>
				<line class="st1" x1="164.76" y1="356.1" x2="164.76" y2="207.28"/>
				<line class="st1" x1="164.76" y1="462.4" x2="164.76" y2="366.73"/>
				<polyline class="st1" points="164.76,473.03 164.76,558.07 446.46,558.07 446.46,116.93 993.9,116.93 993.9,558.07 				"/>
				<polyline class="st1" points="680.31,605.91 680.31,675 993.9,675 993.9,558.07 				"/>
				<polyline class="st1" points="393.31,478.35 393.31,579.33 680.31,579.33 680.31,605.91 				"/>
				<polyline class="st1" points="393.31,473.03 393.31,116.93 164.76,116.93 164.76,196.65 				"/>
			</g>
			<g>
				<line class="st7" x1="164.76" y1="356.1" x2="164.76" y2="207.28"/>
				<line class="st7" x1="164.76" y1="462.4" x2="164.76" y2="366.73"/>
				<polyline class="st7" points="164.76,473.03 164.76,558.07 446.46,558.07 446.46,116.93 993.9,116.93 993.9,558.07 				"/>
				<polyline class="st7" points="680.31,605.91 680.31,675 993.9,675 993.9,558.07 				"/>
				<polyline class="st7" points="393.31,478.35 393.31,579.33 680.31,579.33 680.31,605.91 				"/>
				<polyline class="st7" points="393.31,473.03 393.31,116.93 164.76,116.93 164.76,196.65 				"/>
			</g>
		</g>
	</g>
	<g id="Crimson_Cruiser">
		<g id="Connections_00000121966445311389274800000013852891330534931589_">
			<g>
				<polyline class="st1" points="807.87,807.87 807.87,653.74 972.64,653.74 972.64,558.07 				"/>
				<polyline class="st1" points="908.86,728.15 908.86,568.7 701.57,568.7 701.57,611.22 				"/>
				<polyline class="st1" points="382.68,478.35 382.68,627.17 701.57,627.17 701.57,611.22 				"/>
				<polyline class="st1" points="175.39,196.65 175.39,127.56 382.68,127.56 382.68,478.35 				"/>
				<path class="st1" d="M175.39,207.28"/>
				<polyline class="st1" points="175.39,473.03 175.39,547.44 520.87,547.44 520.87,372.05 				"/>
				<polyline class="st1" points="775.98,239.17 775.98,186.02 520.87,186.02 520.87,372.05 				"/>
				<line class="st1" x1="775.98" y1="239.17" x2="775.98" y2="361.42"/>
				<line class="st1" x1="908.86" y1="977.95" x2="908.86" y2="728.15"/>
				
					<line id="_x35_049to23509_x5F_01_00000050660757950403412230000005450238925502899132_" class="st1" x1="175.39" y1="356.1" x2="175.39" y2="207.28"/>
				
					<line id="_x32_3509to5050_x5F_01_00000139287604836562458380000001820487026865251230_" class="st1" x1="175.39" y1="467.72" x2="175.39" y2="361.42"/>
				<polyline class="st1" points="775.98,361.42 775.98,387.99 892.91,387.99 892.91,451.77 				"/>
				<polyline class="st1" points="892.91,451.77 892.91,473.03 972.64,473.03 972.64,558.07 				"/>
				<polyline class="st1" points="908.86,972.64 908.86,1020.47 807.87,1020.47 807.87,813.19 				"/>
			</g>
			<g>
				<polyline class="st8" points="807.87,807.87 807.87,653.74 972.64,653.74 972.64,558.07 				"/>
				<polyline class="st8" points="908.86,728.15 908.86,568.7 701.57,568.7 701.57,611.22 				"/>
				<polyline class="st8" points="382.68,478.35 382.68,627.17 701.57,627.17 701.57,611.22 				"/>
				<polyline class="st8" points="175.39,196.65 175.39,127.56 382.68,127.56 382.68,478.35 				"/>
				<path class="st8" d="M175.39,207.28"/>
				<polyline class="st8" points="175.39,473.03 175.39,547.44 520.87,547.44 520.87,372.05 				"/>
				<polyline class="st8" points="775.98,239.17 775.98,186.02 520.87,186.02 520.87,372.05 				"/>
				<line class="st8" x1="775.98" y1="239.17" x2="775.98" y2="361.42"/>
				<line class="st8" x1="908.86" y1="977.95" x2="908.86" y2="728.15"/>
				
					<line id="_x35_049to23509_x5F_01_00000050651883187038479050000007056207391994131629_" class="st8" x1="175.39" y1="356.1" x2="175.39" y2="207.28"/>
				
					<line id="_x32_3509to5050_x5F_01_00000111876675380326370700000006230428166908632985_" class="st8" x1="175.39" y1="467.72" x2="175.39" y2="361.42"/>
				<polyline class="st8" points="775.98,361.42 775.98,387.99 892.91,387.99 892.91,451.77 				"/>
				<polyline class="st8" points="892.91,451.77 892.91,473.03 972.64,473.03 972.64,558.07 				"/>
				<polyline class="st8" points="908.86,972.64 908.86,1020.47 807.87,1020.47 807.87,813.19 				"/>
			</g>
		</g>
	</g>
	<g id="_x31_636_x27_er">
		<g id="Connections_00000123437167232906839730000015407020479262319781_">
			<g>
				<line class="st1" x1="186.02" y1="356.1" x2="186.02" y2="207.28"/>
				<line class="st1" x1="186.02" y1="467.72" x2="186.02" y2="361.42"/>
				<polyline class="st1" points="186.02,467.72 186.02,536.81 531.5,536.81 531.5,372.05 				"/>
				<polyline class="st1" points="765.35,244.49 765.35,196.65 531.5,196.65 531.5,372.05 				"/>
				<line class="st1" x1="765.35" y1="361.42" x2="765.35" y2="239.17"/>
				<polyline class="st1" points="818.5,813.19 818.5,643.11 962.01,643.11 962.01,558.07 				"/>
				<polyline class="st1" points="898.23,728.15 898.23,579.33 712.2,579.33 712.2,611.22 				"/>
				<polyline class="st1" points="372.05,478.35 372.05,637.8 712.2,637.8 712.2,611.22 				"/>
				<polyline class="st1" points="372.05,478.35 372.05,138.19 186.02,138.19 186.02,201.97 				"/>
				<polyline class="st1" points="898.23,977.95 898.23,1009.84 818.5,1009.84 818.5,813.19 				"/>
				<polyline class="st1" points="882.28,451.77 882.28,483.66 962.01,483.66 962.01,558.07 				"/>
				<polyline class="st1" points="882.28,451.77 882.28,398.62 765.35,398.62 765.35,356.1 				"/>
				<line class="st1" x1="898.23" y1="728.15" x2="898.23" y2="977.95"/>
			</g>
			<g>
				<line class="st9" x1="186.02" y1="356.1" x2="186.02" y2="207.28"/>
				<line class="st9" x1="186.02" y1="467.72" x2="186.02" y2="361.42"/>
				<polyline class="st9" points="186.02,467.72 186.02,536.81 531.5,536.81 531.5,372.05 				"/>
				<polyline class="st9" points="765.35,244.49 765.35,196.65 531.5,196.65 531.5,372.05 				"/>
				<line class="st9" x1="765.35" y1="361.42" x2="765.35" y2="239.17"/>
				<polyline class="st9" points="818.5,813.19 818.5,643.11 962.01,643.11 962.01,558.07 				"/>
				<polyline class="st9" points="898.23,728.15 898.23,579.33 712.2,579.33 712.2,611.22 				"/>
				<polyline class="st9" points="372.05,478.35 372.05,637.8 712.2,637.8 712.2,611.22 				"/>
				<polyline class="st9" points="372.05,478.35 372.05,138.19 186.02,138.19 186.02,201.97 				"/>
				<polyline class="st9" points="898.23,977.95 898.23,1009.84 818.5,1009.84 818.5,813.19 				"/>
				<polyline class="st10" points="882.28,451.77 882.28,483.66 962.01,483.66 962.01,558.07 				"/>
				<polyline class="st9" points="882.28,451.77 882.28,398.62 765.35,398.62 765.35,356.1 				"/>
				<line class="st9" x1="898.23" y1="728.15" x2="898.23" y2="977.95"/>
			</g>
		</g>
	</g>
	<g id="HUIT_Route">
		<g id="Connections_00000020399184246613370060000016137604236843476658_">
			<g>
				<polyline class="st1" points="669.68,611.22 669.68,1084.25 988.58,1084.25 				"/>
				<path class="st1" d="M696.26,706.89"/>
			</g>
			<g>
				<polyline class="st11" points="669.68,611.22 669.68,1084.25 988.58,1084.25 				"/>
				<path class="st11" d="M696.26,706.89"/>
			</g>
		</g>
	</g>
	<g id="Overnight">
		<g id="Connections_00000062194632396488075190000002147496796735448505_">
			<g>
				<polyline class="st1" points="797.24,807.87 797.24,775.98 728.15,775.98 728.15,749.41 				"/>
				<polyline class="st1" points="919.49,972.64 919.49,1031.1 797.24,1031.1 797.24,813.19 				"/>
				<polyline class="st1" points="154.23,202.06 154.13,106.3 403.94,106.3 403.94,589.96 690.94,589.96 690.94,611.22 				"/>
				<line class="st1" x1="154.13" y1="361.42" x2="154.13" y2="201.97"/>
				<line class="st1" x1="154.13" y1="356.1" x2="154.13" y2="467.72"/>
				<polyline class="st1" points="510.24,372.05 510.24,175.39 786.61,175.39 786.61,244.49 				"/>
				<line class="st1" x1="786.61" y1="361.42" x2="786.61" y2="244.49"/>
				<polyline class="st1" points="903.54,451.77 903.54,462.4 983.27,462.4 983.27,558.07 				"/>
				<polyline class="st1" points="690.94,611.22 690.94,696.26 919.49,696.26 919.49,728.15 				"/>
				<line class="st1" x1="919.49" y1="728.15" x2="919.49" y2="972.64"/>
				<polyline class="st1" points="510.24,372.05 510.24,568.7 154.13,568.7 154.13,467.72 				"/>
				<polyline class="st1" points="786.61,361.42 786.61,377.36 903.54,377.36 903.54,451.77 				"/>
				<polyline class="st1" points="983.27,558.07 983.27,664.37 728.15,664.37 728.15,749.41 				"/>
			</g>
			<g>
				<polyline class="st12" points="797.24,807.87 797.24,775.98 728.15,775.98 728.15,749.41 				"/>
				<polyline class="st12" points="919.49,972.64 919.49,1031.1 797.24,1031.1 797.24,813.19 				"/>
				<polyline class="st12" points="154.23,202.06 154.13,106.3 403.94,106.3 403.94,589.96 690.94,589.96 690.94,611.22 				"/>
				<line class="st12" x1="154.13" y1="361.42" x2="154.13" y2="201.97"/>
				<line class="st12" x1="154.13" y1="356.1" x2="154.13" y2="467.72"/>
				<polyline class="st12" points="510.24,372.05 510.24,175.39 786.61,175.39 786.61,244.49 				"/>
				<line class="st12" x1="786.61" y1="361.42" x2="786.61" y2="244.49"/>
				<polyline class="st12" points="903.54,451.77 903.54,462.4 983.27,462.4 983.27,558.07 				"/>
				<polyline class="st12" points="690.94,611.22 690.94,696.26 919.49,696.26 919.49,728.15 				"/>
				<line class="st12" x1="919.49" y1="728.15" x2="919.49" y2="972.64"/>
				<polyline class="st12" points="510.24,372.05 510.24,568.7 154.13,568.7 154.13,467.72 				"/>
				<polyline class="st12" points="786.61,361.42 786.61,377.36 903.54,377.36 903.54,451.77 				"/>
				<polyline class="st12" points="983.27,558.07 983.27,664.37 728.15,664.37 728.15,749.41 				"/>
			</g>
		</g>
	</g>
</g>
<g id="Stops">
	<g id="_x32_3509">
		<path d="M154.13,363.73c-1.28,0-2.31-1.04-2.31-2.31s1.04-2.31,2.31-2.31h63.78c1.28,0,2.31,1.04,2.31,2.31s-1.04,2.31-2.31,2.31
			H154.13z"/>
		<path d="M217.91,356.1h-63.78c-2.94,0-5.31,2.38-5.31,5.31v0c0,2.94,2.38,5.31,5.31,5.31h63.78c2.94,0,5.31-2.38,5.31-5.31v0
			C223.23,358.48,220.85,356.1,217.91,356.1L217.91,356.1z"/>
	</g>
	<g id="_x35_050">
		<path d="M154.13,470.03c-1.28,0-2.31-1.04-2.31-2.31s1.04-2.31,2.31-2.31h63.78c1.28,0,2.31,1.04,2.31,2.31s-1.04,2.31-2.31,2.31
			H154.13z"/>
		<path d="M217.91,462.4h-63.78c-2.94,0-5.31,2.38-5.31,5.31s2.38,5.31,5.31,5.31h63.78c2.94,0,5.31-2.38,5.31-5.31
			S220.85,462.4,217.91,462.4L217.91,462.4z"/>
	</g>
	<g id="_x35_049">
		<path d="M154.13,204.28c-1.28,0-2.31-1.04-2.31-2.31s1.04-2.31,2.31-2.31h63.78c1.28,0,2.31,1.04,2.31,2.31s-1.04,2.31-2.31,2.31
			H154.13z"/>
		<path d="M217.91,196.65h-63.78c-2.94,0-5.31,2.38-5.31,5.31s2.38,5.31,5.31,5.31h63.78c2.94,0,5.31-2.38,5.31-5.31
			S220.85,196.65,217.91,196.65L217.91,196.65z"/>
	</g>
	<g id="_x35_040">
		<path d="M361.42,772.98c-1.28,0-2.31-1.04-2.31-2.32s1.04-2.31,2.31-2.31h21.26c1.28,0,2.31,1.04,2.31,2.31s-1.04,2.32-2.31,2.32
			H361.42z"/>
		<path d="M382.68,765.35h-21.26c-2.94,0-5.31,2.38-5.31,5.31c0,2.94,2.38,5.32,5.31,5.32h21.26c2.94,0,5.32-2.38,5.32-5.32
			C387.99,767.73,385.61,765.35,382.68,765.35L382.68,765.35z"/>
	</g>
	<g id="_x35_039">
		<path d="M361.42,922c-1.38,0-2.51-1.12-2.51-2.51s1.13-2.51,2.51-2.51h21.26c1.38,0,2.51,1.12,2.51,2.51s-1.13,2.51-2.51,2.51
			H361.42z"/>
		<path d="M382.68,914.17h-21.26c-2.94,0-5.31,2.38-5.31,5.31s2.38,5.31,5.31,5.31h21.26c2.94,0,5.32-2.38,5.32-5.31
			S385.61,914.17,382.68,914.17L382.68,914.17z"/>
	</g>
	<g id="_x36_3189">
		<path d="M361.42,1012.16c-1.28,0-2.31-1.04-2.31-2.31s1.04-2.32,2.31-2.32h10.63c1.28,0,2.31,1.04,2.31,2.32s-1.04,2.31-2.31,2.31
			H361.42z"/>
		<path d="M372.05,1004.53h-10.63c-2.94,0-5.31,2.38-5.31,5.31v0c0,2.94,2.38,5.31,5.31,5.31h10.63c2.94,0,5.31-2.38,5.31-5.31v0
			C377.36,1006.91,374.98,1004.53,372.05,1004.53L372.05,1004.53z"/>
	</g>
	<g id="_x35_8343">
		<path d="M281.69,1081.25c-1.28,0-2.31-1.04-2.31-2.31s1.04-2.32,2.31-2.32h10.63c1.28,0,2.31,1.04,2.31,2.32s-1.04,2.31-2.31,2.31
			H281.69z"/>
		<path d="M292.32,1073.62h-10.63c-2.94,0-5.31,2.38-5.31,5.31v0c0,2.94,2.38,5.31,5.31,5.31h10.63c2.94,0,5.31-2.38,5.31-5.31v0
			C297.64,1076,295.26,1073.62,292.32,1073.62L292.32,1073.62z"/>
	</g>
	<g id="_x35_041">
		<path d="M361.42,693.26c-1.28,0-2.31-1.04-2.31-2.31s1.04-2.32,2.31-2.32h21.26c1.28,0,2.31,1.04,2.31,2.32s-1.04,2.31-2.31,2.31
			H361.42z"/>
		<path d="M382.68,685.63h-21.26c-2.94,0-5.31,2.38-5.31,5.32s2.38,5.31,5.31,5.31h21.26c2.94,0,5.32-2.38,5.32-5.31
			S385.61,685.63,382.68,685.63L382.68,685.63z"/>
	</g>
	<g id="_x35_036">
		<path d="M531.57,1102.51c-1.32,0-2.39-1.07-2.39-2.39s1.07-2.39,2.39-2.39c1.32,0,2.39,1.07,2.39,2.39
			S532.89,1102.51,531.57,1102.51z"/>
		<path d="M531.57,1094.74c-2.98,0-5.39,2.41-5.39,5.39c0,2.98,2.41,5.39,5.39,5.39s5.39-2.41,5.39-5.39
			C536.96,1097.15,534.54,1094.74,531.57,1094.74L531.57,1094.74z"/>
	</g>
	<g id="_x35_054">
		<path d="M207.21,773.13c-1.32,0-2.39-1.07-2.39-2.39s1.07-2.39,2.39-2.39c1.32,0,2.39,1.07,2.39,2.39S208.53,773.13,207.21,773.13
			z"/>
		<path d="M207.21,765.35c-2.98,0-5.39,2.41-5.39,5.39s2.41,5.39,5.39,5.39s5.39-2.41,5.39-5.39S210.19,765.35,207.21,765.35
			L207.21,765.35z"/>
	</g>
	<g id="_x32_3930">
		<path d="M207.36,921.8c-1.32,0-2.39-1.07-2.39-2.39c0-1.32,1.07-2.39,2.39-2.39c1.32,0,2.39,1.07,2.39,2.39
			C209.74,920.73,208.67,921.8,207.36,921.8z"/>
		<path d="M207.36,914.03c-2.98,0-5.39,2.41-5.39,5.39v0c0,2.98,2.41,5.39,5.39,5.39s5.39-2.41,5.39-5.39v0
			C212.74,916.44,210.33,914.03,207.36,914.03L207.36,914.03z"/>
	</g>
	<g id="_x36_3190">
		<path d="M207.36,1012.16c-1.32,0-2.39-1.07-2.39-2.39s1.07-2.39,2.39-2.39c1.32,0,2.39,1.07,2.39,2.39
			S208.67,1012.16,207.36,1012.16z"/>
		<path d="M207.36,1004.38c-2.98,0-5.39,2.41-5.39,5.39s2.41,5.39,5.39,5.39s5.39-2.41,5.39-5.39S210.33,1004.38,207.36,1004.38
			L207.36,1004.38z"/>
	</g>
	<g id="_x31_32600">
		<path d="M372.05,481.74c-1.87,0-3.39-1.52-3.39-3.39s1.52-3.39,3.39-3.39h31.89c1.87,0,3.39,1.52,3.39,3.39s-1.52,3.39-3.39,3.39
			H372.05z"/>
		<path d="M403.94,476.88c0.81,0,1.47,0.66,1.47,1.47c0,0.81-0.66,1.47-1.47,1.47h-31.89c-0.81,0-1.47-0.66-1.47-1.47
			c0-0.81,0.66-1.47,1.47-1.47H403.94 M403.94,473.03h-31.89c-2.94,0-5.31,2.38-5.31,5.31v0c0,2.94,2.38,5.31,5.31,5.31h31.89
			c2.94,0,5.31-2.38,5.31-5.31v0C409.25,475.41,406.87,473.03,403.94,473.03L403.94,473.03z"/>
	</g>
	<g id="_x35_8381">
		<circle cx="988.66" cy="1084.32" r="3.36"/>
		<path d="M988.66,1082.99c0.73,0,1.33,0.6,1.33,1.33c0,0.74-0.6,1.33-1.33,1.33c-0.74,0-1.33-0.6-1.33-1.33
			C987.32,1083.59,987.92,1082.99,988.66,1082.99 M988.66,1078.94c-2.98,0-5.39,2.41-5.39,5.39c0,2.98,2.41,5.39,5.39,5.39
			c2.98,0,5.39-2.41,5.39-5.39C994.04,1081.35,991.63,1078.94,988.66,1078.94L988.66,1078.94z"/>
	</g>
	<g id="_x35_8344">
		<path d="M207.21,693.41c-1.32,0-2.39-1.07-2.39-2.39c0-1.32,1.07-2.39,2.39-2.39c1.32,0,2.39,1.07,2.39,2.39
			C209.6,692.33,208.53,693.41,207.21,693.41z"/>
		<path d="M207.21,685.63c-2.98,0-5.39,2.41-5.39,5.39s2.41,5.39,5.39,5.39s5.39-2.41,5.39-5.39S210.19,685.63,207.21,685.63
			L207.21,685.63z"/>
	</g>
	<g id="_x35_042">
		<path d="M510.24,374.36c-1.28,0-2.31-1.04-2.31-2.31s1.04-2.31,2.31-2.31h63.78c1.28,0,2.32,1.04,2.32,2.31s-1.04,2.31-2.32,2.31
			H510.24z"/>
		<path d="M574.02,366.73h-63.78c-2.94,0-5.31,2.38-5.31,5.31s2.38,5.31,5.31,5.31h63.78c2.94,0,5.31-2.38,5.31-5.31
			S576.95,366.73,574.02,366.73L574.02,366.73z"/>
	</g>
	<g id="_x35_043">
		<path d="M733.46,246.8c-1.28,0-2.32-1.04-2.32-2.31s1.04-2.31,2.32-2.31h53.15c1.28,0,2.31,1.04,2.31,2.31s-1.04,2.31-2.31,2.31
			H733.46z"/>
		<path d="M786.61,239.17h-53.15c-2.94,0-5.31,2.38-5.31,5.31v0c0,2.94,2.38,5.31,5.31,5.31h53.15c2.94,0,5.31-2.38,5.31-5.31v0
			C791.93,241.55,789.55,239.17,786.61,239.17L786.61,239.17z"/>
	</g>
	<g id="_x36_248">
		<path d="M733.46,363.73c-1.28,0-2.31-1.04-2.31-2.31s1.04-2.31,2.31-2.31h53.15c1.28,0,2.31,1.04,2.31,2.31s-1.04,2.31-2.31,2.31
			H733.46z"/>
		<path d="M786.61,356.1h-53.15c-2.94,0-5.31,2.38-5.31,5.31v0c0,2.94,2.38,5.31,5.31,5.31h53.15c2.94,0,5.31-2.38,5.31-5.31v0
			C791.93,358.48,789.55,356.1,786.61,356.1L786.61,356.1z"/>
	</g>
	<g id="_x35_044">
		<path d="M850.39,454.09c-1.28,0-2.32-1.04-2.32-2.31s1.04-2.31,2.32-2.31h53.15c1.28,0,2.31,1.04,2.31,2.31s-1.04,2.31-2.31,2.31
			H850.39z"/>
		<path d="M903.54,446.46h-53.15c-2.94,0-5.31,2.38-5.31,5.31v0c0,2.94,2.38,5.31,5.31,5.31h53.15c2.94,0,5.31-2.38,5.31-5.31v0
			C908.86,448.84,906.48,446.46,903.54,446.46L903.54,446.46z"/>
	</g>
	<g id="_x35_045">
		<path d="M940.75,560.39c-1.28,0-2.32-1.04-2.32-2.31s1.04-2.31,2.32-2.31h63.78c1.28,0,2.32,1.04,2.32,2.31s-1.04,2.31-2.32,2.31
			H940.75z"/>
		<path d="M1004.53,552.76h-63.78c-2.94,0-5.32,2.38-5.32,5.32c0,2.94,2.38,5.31,5.32,5.31h63.78c2.94,0,5.32-2.38,5.32-5.31
			C1009.84,555.14,1007.46,552.76,1004.53,552.76L1004.53,552.76z"/>
	</g>
	<g id="_x35_047">
		<path d="M887.6,725.15c-1.28,0-2.32-1.04-2.32-2.31s1.04-2.32,2.32-2.32h31.89c1.28,0,2.31,1.04,2.31,2.32s-1.04,2.31-2.31,2.31
			H887.6z"/>
		<path d="M919.49,717.52H887.6c-2.94,0-5.31,2.38-5.31,5.31v0c0,2.94,2.38,5.31,5.31,5.31h31.89c2.94,0,5.31-2.38,5.31-5.31v0
			C924.8,719.9,922.42,717.52,919.49,717.52L919.49,717.52z"/>
	</g>
	<g id="_x36_854">
		<path d="M786.61,810.19c-1.28,0-2.32-1.04-2.32-2.32s1.04-2.31,2.32-2.31h53.15c1.28,0,2.32,1.04,2.32,2.31s-1.04,2.32-2.32,2.32
			H786.61z"/>
		<path d="M839.76,802.56h-53.15c-2.94,0-5.31,2.38-5.31,5.31v0c0,2.94,2.38,5.31,5.31,5.31h53.15c2.94,0,5.32-2.38,5.32-5.31v0
			C845.08,804.94,842.7,802.56,839.76,802.56L839.76,802.56z"/>
	</g>
	<g id="_x35_046">
		<path d="M887.6,980.27c-1.28,0-2.32-1.04-2.32-2.31s1.04-2.32,2.32-2.32h42.52c1.28,0,2.31,1.04,2.31,2.32s-1.04,2.31-2.31,2.31
			H887.6z"/>
		<path d="M930.12,972.64H887.6c-2.94,0-5.31,2.38-5.31,5.31v0c0,2.94,2.38,5.31,5.31,5.31h42.52c2.94,0,5.31-2.38,5.31-5.31v0
			C935.43,975.02,933.05,972.64,930.12,972.64L930.12,972.64z"/>
	</g>
	<g id="_x35_051">
		<path d="M717.52,751.72c-1.28,0-2.31-1.04-2.31-2.32s1.04-2.31,2.31-2.31h10.63c1.28,0,2.32,1.04,2.32,2.31s-1.04,2.32-2.32,2.32
			H717.52z"/>
		<path d="M728.15,744.09h-10.63c-2.94,0-5.31,2.38-5.31,5.31s2.38,5.31,5.31,5.31h10.63c2.94,0,5.31-2.38,5.31-5.31
			S731.08,744.09,728.15,744.09L728.15,744.09z"/>
	</g>
	<g id="_x35_048">
		<path d="M669.68,613.54c-1.28,0-2.31-1.04-2.31-2.31s1.04-2.31,2.31-2.31h42.52c1.28,0,2.31,1.04,2.31,2.31s-1.04,2.31-2.31,2.31
			H669.68z"/>
		<path d="M712.2,605.91h-42.52c-2.94,0-5.31,2.38-5.31,5.32s2.38,5.31,5.31,5.31h42.52c2.94,0,5.31-2.38,5.31-5.31
			S715.14,605.91,712.2,605.91L712.2,605.91z"/>
	</g>
</g>
<g id="Labels">
	<g id="Stop_IDs">
		
			<text id="id_00000026146056914025059470000008635052343894204605_" transform="matrix(1 0 0 1 111.6139 191.3388)" class="st13 st14">5049</text>
		
			<text id="id_00000125591403964218869830000006741277625542006935_" transform="matrix(1 0 0 1 106.2994 345.4724)" class="st13 st14">23509</text>
		
			<text id="id_00000159456321593000925920000007982833177717284497_" transform="matrix(1 0 0 1 111.614 451.7716)" class="st13 st14">5050</text>
		
			<text id="id_00000083807890302618313850000006208512013518452633_" transform="matrix(1 0 0 1 127.5589 675.0002)" class="st13 st14">58344</text>
		
			<text id="id_00000138541222383510760000000010453606564128042409_" transform="matrix(1 0 0 1 127.5592 754.7245)" class="st13 st14">5054</text>
		
			<text id="id_00000091011977759907132080000006531991853800686013_" transform="matrix(1 0 0 1 111.614 935.4326)" class="st13 st14">23930</text>
		
			<text id="id_00000153701847218922144740000001781748892142680751_" transform="matrix(1 0 0 1 292.323 786.6143)" class="st13 st14">5040 </text>
		
			<text id="id_00000107549607127437053410000009949756733877679253_" transform="matrix(1 0 0 1 281.6931 935.4332)" class="st13 st14">5039</text>
		
			<text id="id_00000067202328549708750220000004393485971187570855_" transform="matrix(1 0 0 1 276.3777 1025.7878)" class="st13 st14">63189</text>
		
			<text id="id_00000158023844628501770780000006100639142213409719_" transform="matrix(1 0 0 1 239.173 1062.9919)" class="st13 st14">58343</text>
		
			<text id="id_00000022531103954911652960000000344992840240117394_" transform="matrix(1 0 0 1 116.9292 1025.7878)" class="st13 st14">63190</text>
		
			<text id="id_00000003095275200444144620000008050150812115124926_" transform="matrix(1 0 0 1 287.008 706.8896)" class="st13 st14">5041</text>
		
			<text id="id_00000140713732733467510760000000649222243330046643_" transform="matrix(1 0 0 1 589.9604 350.7874)" class="st13 st14">5042</text>
		
			<text id="id_00000152974570658933404830000018399185622384698254_" transform="matrix(1 0 0 1 802.5588 228.5435)" class="st13 st14">5043</text>
		
			<text id="id_00000083087391652731076440000013298644731357394107_" transform="matrix(1 0 0 1 690.9449 340.1573)" class="st13 st14">6248</text>
		
			<text id="id_00000078758023362363626490000007132130801249681280_" transform="matrix(1 0 0 1 744.0944 627.1655)" class="st13 st14">5048</text>
		
			<text id="id_00000044141794854813522820000016508123987379900329_" transform="matrix(1 0 0 1 749.4093 733.4649)" class="st13 st14">5051</text>
		
			<text id="id_00000017503557416873374940000000126821484751571126_" transform="matrix(1 0 0 1 1020.4724 542.126)" class="st13 st14">5045</text>
		
			<text id="id_00000057840356029311640350000012448810628219255725_" transform="matrix(1 0 0 1 940.7483 712.2047)" class="st13 st14">5047</text>
		
			<text id="id_00000083082166680890190130000009254546931927295139_" transform="matrix(1 0 0 1 701.5746 813.1898)" class="st13 st14">6854</text>
		
			<text id="id_00000158023231034649181150000016875129423766430911_" transform="matrix(1 0 0 1 946.0631 956.6933)" class="st15 st14">5046</text>
		
			<text id="id_00000108283130278174458960000002432300366696034707_" transform="matrix(1 0 0 1 313.5829 457.0864)" class="st13 st14">132600</text>
		
			<text id="id_00000180340323969998467150000006938155007162486974_" transform="matrix(1 0 0 1 797.2446 467.7165)" class="st13 st14">5044</text>
		
			<text id="id_00000177460819801156206950000004449633632656487073_" transform="matrix(1 0 0 1 1020.4727 1073.6219)" class="st13 st14">58381</text>
		<text id="id" transform="matrix(1 0 0 1 515.5511 1078.9373)" class="st13 st14">5036</text>
	</g>
	<g id="Stop_Names">
		
			<text id="name_00000106108798927668291540000008793005903925107590_" transform="matrix(1 0 0 1 111.6144 201.969)" class="st16 st14">Quad</text>
		<text id="name_00000062894851165649989820000004598897709134617779_" transform="matrix(1 0 0 1 98.0979 361.4181)"><tspan x="0" y="0" class="st16 st14">Radcliffe</tspan><tspan x="11.9" y="14.4" class="st16 st14">Yard</tspan></text>
		
			<text id="name_00000008841714154028618770000018002407104882871984_" transform="matrix(1 0 0 1 95.6696 467.7173)" class="st16 st14">Mass Ave</text>
		
			<text id="name_00000182517994679622149940000005396929252583780794_" transform="matrix(1 0 0 1 90.3545 690.9449)" class="st16 st14">Harvard Square (S)</text>
		
			<text id="name_00000128470579499962068320000005732190714232665001_" transform="matrix(1 0 0 1 90.3543 770.6691)" class="st16 st14">Kennedy School (S)</text>
		
			<text id="name_00000073715427062170598430000016230642715349426863_" transform="matrix(1 0 0 1 85.0392 919.4879)" class="st16 st14">Harvard Stadium (S)</text>
		
			<text id="name_00000110468072546247731180000013201542303979913884_" transform="matrix(1 0 0 1 393.3072 770.6689)" class="st16 st14">Kennedy School (N) </text>
		
			<text id="name_00000102532319318107418860000005115666522304696470_" transform="matrix(1 0 0 1 239.1734 919.4886)" class="st16 st14">Harvard Stadium (N)</text>
		
			<text id="name_00000119090239140111366440000006160579903009305513_" transform="matrix(1 0 0 1 255.1179 1009.8421)" class="st16 st14">Barry’s Corner (N)</text>
		
			<text id="name_00000018921079991457622920000003480153214266897071_" transform="matrix(1 0 0 1 249.8034 1078.937)" class="st16 st14">SEC</text>
		
			<text id="name_00000091718397308794252140000010494441624058868645_" transform="matrix(1 0 0 1 100.9843 1009.8421)" class="st16 st14">Barry’s Corner (S)</text>
		
			<text id="name_00000140722146959545423370000011074618282988582273_" transform="matrix(1 0 0 1 393.3071 690.9446)" class="st16 st14">Harvard Square (N)</text>
		<text id="name_00000151516727096385326950000002473034176003654821_" transform="matrix(1 0 0 1 589.936 366.7331)"><tspan x="0" y="0" class="st16 st14">Law</tspan><tspan x="-6.69" y="14.4" class="st16 st14">School</tspan></text>
		<text id="name_00000159436699935494376220000007979574557456058766_" transform="matrix(1 0 0 1 796.8129 239.1737)"><tspan x="0" y="0" class="st16 st14">Maxwell</tspan><tspan x="4.44" y="14.4" class="st16 st14">Dorkin</tspan></text>
		<text id="name_00000170258441361950869310000005786953966412995494_" transform="matrix(1 0 0 1 681.2135 356.103)"><tspan x="0" y="0" class="st16 st14">Science</tspan><tspan x="2.24" y="14.4" class="st16 st14">Center</tspan></text>
		
			<text id="name_00000131339274807341834050000008617012975810737593_" transform="matrix(1 0 0 1 722.8342 611.2205)" class="st16 st14">Widener Gate</text>
		<text id="name_00000088120869448349274150000010053164541903707013_" transform="matrix(1 0 0 1 740.7014 744.0941)"><tspan x="0" y="0" class="st16 st14">Winthrop</tspan><tspan x="8.53" y="14.4" class="st16 st14">House</tspan></text>
		<text id="name_00000035511323875288658790000012088093694405844137_" transform="matrix(1 0 0 1 1011.055 552.7566)"><tspan x="0" y="0" class="st16 st14">Lamont</tspan><tspan x="1.18" y="14.4" class="st16 st14">Library</tspan></text>
		
			<text id="name_00000001658634740819985140000015125859504994624914_" transform="matrix(1 0 0 1 930.118 722.8351)" class="st16 st14">The Inn</text>
		<text id="name_00000081640045910194769010000000778339824332069513_" transform="matrix(1 0 0 1 731.8405 807.8738)"><tspan x="0" y="0" class="st16 st14">Leverett</tspan><tspan x="6.76" y="14.4" class="st16 st14">House</tspan></text>
		<text id="name_00000156584326350422402920000012358364235568418716_" transform="matrix(1 0 0 1 943.337 972.6374)"><tspan x="0" y="0" class="st16 st14">Mather</tspan><tspan x="2.55" y="14.4" class="st16 st14">House</tspan></text>
		
			<text id="name_00000018219584443513241840000015752464267380035233_" transform="matrix(1 0 0 1 488.9769 1089.5671)" class="st16 st14">One Western Ave</text>
		<text id="name_00000181782911087665174850000007381480695916328082_" transform="matrix(1 0 0 1 302.9529 473.0322)"><tspan x="0" y="0" class="st16 st14">Cambridge</tspan><tspan x="0" y="14.4" class="st16 st14">Commons</tspan></text>
		
			<text id="name_00000027603494829078945550000012660668931227156644_" transform="matrix(1 0 0 1 765.3544 451.7719)" class="st16 st14">Memorial Hall</text>
		<text id="name" transform="matrix(1 0 0 1 1005.7913 1089.5667)" class="st16 st14">784 Memorial</text>
	</g>
</g>
</svg>
