<?xml version="1.0" encoding="utf-8"?>
<!-- Generator: Adobe Illustrator 28.3.0, SVG Export Plug-In . SVG Version: 6.00 Build 0)  -->
<svg version="1.0" id="Layer_1" xmlns="http://www.w3.org/2000/svg" xmlns:xlink="http://www.w3.org/1999/xlink" x="0px" y="0px"
	 viewBox="0 0 1000 1100" style="enable-background:new 0 0 1000 1100;" xml:space="preserve">
<style type="text/css">
	.st0{fill:#0077AA;}
	.st1{fill:none;stroke:#231F20;stroke-width:9;}
	.st2{fill:none;stroke:#C945E5;stroke-width:6;stroke-miterlimit:10;}
	.st3{fill:none;stroke:#C1272D;stroke-width:6;stroke-miterlimit:10;}
	.st4{fill:none;stroke:#DD1F95;stroke-width:6;stroke-miterlimit:10;}
	.st5{fill:none;stroke:#475AC6;stroke-width:6;stroke-miterlimit:10;}
	.st6{fill:none;stroke:#0000FF;stroke-width:6;stroke-miterlimit:10;}
	.st7{fill:none;stroke:#2AB74B;stroke-width:6;stroke-miterlimit:10;}
	.st8{fill:none;stroke:#ED1C24;stroke-width:6;stroke-miterlimit:10;}
	.st9{fill:none;stroke:#11C7F2;stroke-width:6;stroke-miterlimit:10;}
	.st10{fill:none;stroke:#11C7F2;stroke-width:6.5227;stroke-miterlimit:10;}
	.st11{fill:none;stroke:#EAD61C;stroke-width:6;stroke-miterlimit:10;}
	.st12{fill:none;stroke:#F7EA08;stroke-width:6;stroke-miterlimit:10;}
	.st13{font-family:'ArialMT';}
	.st14{font-size:12px;}
	.st15{font-family:'Niramit-Regular';}
</style>
<g id="Decors">
	<polygon class="st0" points="520.87,770.57 520.87,930.02 685.63,930.02 685.63,1089.47 632.48,1089.47 632.48,983.17 
		467.72,983.17 467.72,823.72 0,822.41 0,769.19 	"/>
</g>
<g id="Routes">
	<g id="Quad_SEC_Direct">
		<g id="Connections">
			<g>
				<line class="st1" x1="127.56" y1="722.73" x2="127.56" y2="871.55"/>
				<line class="st1" x1="127.56" y1="961.91" x2="127.56" y2="871.55"/>
				<polyline class="st1" points="201.97,1031 201.97,1052.26 127.56,1052.26 127.56,961.91 				"/>
				<polyline class="st1" points="281.69,961.91 281.69,988.48 201.97,988.48 201.97,1031 				"/>
				<line class="st1" x1="281.69" y1="871.55" x2="281.69" y2="961.91"/>
				<line class="st1" x1="281.69" y1="871.55" x2="281.69" y2="722.73"/>
				<line class="st1" x1="281.69" y1="643.01" x2="281.69" y2="722.73"/>
				<polyline class="st1" points="127.56,154.03 127.56,111.51 483.66,111.51 483.66,324.11 				"/>
				<polyline class="st1" points="483.66,318.8 483.66,605.81 281.69,605.81 281.69,643.01 				"/>
				<line class="st1" x1="127.56" y1="313.48" x2="127.56" y2="159.35"/>
				<line class="st1" x1="127.56" y1="414.47" x2="127.56" y2="318.8"/>
				<line class="st1" x1="127.56" y1="643.01" x2="127.56" y2="419.78"/>
				<line class="st1" x1="127.56" y1="722.73" x2="127.56" y2="643.01"/>
				<path class="st1" d="M212.6,967.22"/>
				<path class="st1" d="M159.45,961.91"/>
			</g>
			<g>
				<line class="st2" x1="127.56" y1="722.73" x2="127.56" y2="871.55"/>
				<line class="st2" x1="127.56" y1="961.91" x2="127.56" y2="871.55"/>
				<polyline class="st2" points="201.97,1031 201.97,1052.26 127.56,1052.26 127.56,961.91 				"/>
				<polyline class="st2" points="281.69,961.91 281.69,988.48 201.97,988.48 201.97,1031 				"/>
				<line class="st2" x1="281.69" y1="871.55" x2="281.69" y2="961.91"/>
				<line class="st2" x1="281.69" y1="871.55" x2="281.69" y2="722.73"/>
				<line class="st2" x1="281.69" y1="643.01" x2="281.69" y2="722.73"/>
				<polyline class="st2" points="127.56,154.03 127.56,111.51 483.66,111.51 483.66,324.11 				"/>
				<polyline class="st2" points="483.66,318.8 483.66,605.81 281.69,605.81 281.69,643.01 				"/>
				<line class="st2" x1="127.56" y1="313.48" x2="127.56" y2="159.35"/>
				<line class="st2" x1="127.56" y1="414.47" x2="127.56" y2="318.8"/>
				<line class="st2" x1="127.56" y1="643.01" x2="127.56" y2="419.78"/>
				<line class="st2" x1="127.56" y1="722.73" x2="127.56" y2="643.01"/>
				<path class="st2" d="M212.6,967.22"/>
				<path class="st2" d="M159.45,961.91"/>
			</g>
		</g>
	</g>
	<g id="Allston_Loop">
		<g id="Connections_00000075883866712509860230000010570915475464463779_">
			<g>
				<polyline class="st1" points="212.6,1031 212.6,1052.26 451.77,1052.26 				"/>
				<polyline class="st1" points="292.32,961.91 292.32,999.11 212.6,999.11 212.6,1031 				"/>
				<line class="st1" x1="292.32" y1="871.55" x2="292.32" y2="961.91"/>
				<line class="st1" x1="292.32" y1="871.55" x2="292.32" y2="717.42"/>
				<line class="st1" x1="292.32" y1="722.73" x2="292.32" y2="637.7"/>
				<polyline class="st1" points="494.29,324.11 494.29,616.44 292.32,616.44 292.32,643.01 				"/>
				<polyline class="st1" points="653.74,196.55 653.74,180.61 494.29,180.61 494.29,324.11 				"/>
				<line class="st1" x1="653.74" y1="196.55" x2="653.74" y2="313.48"/>
				<polyline class="st1" points="653.74,313.48 653.74,382.58 770.67,382.58 770.67,403.84 				"/>
				<polyline class="st1" points="861.02,510.14 861.02,456.99 770.67,456.99 770.67,403.84 				"/>
				<polyline class="st1" points="760.04,765.25 760.04,573.92 861.02,573.92 861.02,510.14 				"/>
				<polyline class="st1" points="451.77,1052.26 760.04,1052.26 760.04,765.25 				"/>
				<path class="st1" d="M296.47,1015.1"/>
				<path class="st1" d="M449.95,961.72"/>
				<path class="st1" d="M685.63,324.11"/>
				<path class="st1" d="M281.69,616.44"/>
			</g>
			<g>
				<polyline class="st3" points="212.6,1031 212.6,1052.26 451.77,1052.26 				"/>
				<polyline class="st3" points="292.32,961.91 292.32,999.11 212.6,999.11 212.6,1031 				"/>
				<line class="st3" x1="292.32" y1="871.55" x2="292.32" y2="961.91"/>
				<line class="st3" x1="292.32" y1="871.55" x2="292.32" y2="717.42"/>
				<line class="st3" x1="292.32" y1="722.73" x2="292.32" y2="637.7"/>
				<polyline class="st3" points="494.29,324.11 494.29,616.44 292.32,616.44 292.32,643.01 				"/>
				<polyline class="st3" points="653.74,196.55 653.74,180.61 494.29,180.61 494.29,324.11 				"/>
				<line class="st3" x1="653.74" y1="196.55" x2="653.74" y2="313.48"/>
				<polyline class="st3" points="653.74,313.48 653.74,382.58 770.67,382.58 770.67,403.84 				"/>
				<polyline class="st3" points="861.02,510.14 861.02,456.99 770.67,456.99 770.67,403.84 				"/>
				<polyline class="st3" points="760.04,765.25 760.04,573.92 861.02,573.92 861.02,510.14 				"/>
				<polyline class="st3" points="451.77,1052.26 760.04,1052.26 760.04,765.25 				"/>
				<path class="st3" d="M296.47,1015.1"/>
				<path class="st3" d="M449.95,961.72"/>
				<path class="st3" d="M685.63,324.11"/>
				<path class="st3" d="M281.69,616.44"/>
			</g>
		</g>
	</g>
	<g id="Mather_Express">
		<g id="Connections_00000152244156535240068250000010794124120955076491_">
			<g>
				<polyline class="st1" points="807.87,680.22 807.87,494.19 473.03,494.19 473.03,324.11 				"/>
				<polyline class="st1" points="664.37,191.24 664.37,169.98 473.03,169.98 473.03,324.11 				"/>
				<polyline class="st1" points="664.37,313.48 664.37,371.95 781.3,371.95 781.3,403.84 				"/>
				<polyline class="st1" points="781.3,403.84 781.3,446.36 871.65,446.36 871.65,510.14 				"/>
				<polyline class="st1" points="871.65,504.82 871.65,584.55 749.41,584.55 749.41,765.25 				"/>
				<polyline class="st1" points="749.41,765.25 749.41,951.28 807.87,951.28 807.87,680.22 				"/>
				<line class="st1" x1="664.37" y1="191.24" x2="664.37" y2="313.48"/>
				<path class="st1" d="M775.98,664.27"/>
				<path class="st1" d="M807.87,680.22"/>
			</g>
			<g>
				<polyline class="st4" points="807.87,680.22 807.87,494.19 473.03,494.19 473.03,324.11 				"/>
				<polyline class="st4" points="664.37,191.24 664.37,169.98 473.03,169.98 473.03,324.11 				"/>
				<polyline class="st4" points="664.37,313.48 664.37,371.95 781.3,371.95 781.3,403.84 				"/>
				<polyline class="st4" points="781.3,403.84 781.3,446.36 871.65,446.36 871.65,510.14 				"/>
				<polyline class="st4" points="871.65,504.82 871.65,584.55 749.41,584.55 749.41,765.25 				"/>
				<polyline class="st4" points="749.41,765.25 749.41,951.28 807.87,951.28 807.87,680.22 				"/>
				<line class="st4" x1="664.37" y1="191.24" x2="664.37" y2="313.48"/>
				<path class="st4" d="M775.98,664.27"/>
				<path class="st4" d="M807.87,680.22"/>
			</g>
		</g>
	</g>
	<g id="Quad_Express">
		<g id="Connections_00000005234672524359849940000006617707159109608335_">
			<g>
				<line class="st1" x1="116.93" y1="308.17" x2="116.93" y2="159.35"/>
				<line class="st1" x1="116.93" y1="318.8" x2="116.93" y2="414.47"/>
				<polyline class="st1" points="462.4,324.11 462.4,478.25 116.93,478.25 116.93,419.78 				"/>
				<polyline class="st1" points="116.93,148.72 116.93,100.88 398.62,100.88 398.62,419.78 584.65,419.78 584.65,478.25 
					791.93,478.25 791.93,403.84 				"/>
				<polyline class="st1" points="462.4,324.11 462.4,159.35 675,159.35 675,191.24 				"/>
				<line class="st1" x1="675" y1="313.48" x2="675" y2="191.24"/>
				<polyline class="st1" points="675,313.48 675,361.32 791.93,361.32 791.93,403.84 				"/>
				<path class="st1" d="M387.99,260.33"/>
			</g>
			<g>
				<line class="st5" x1="116.93" y1="308.17" x2="116.93" y2="159.35"/>
				<line class="st5" x1="116.93" y1="318.8" x2="116.93" y2="414.47"/>
				<polyline class="st5" points="462.4,324.11 462.4,478.25 116.93,478.25 116.93,419.78 				"/>
				<polyline class="st5" points="116.93,148.72 116.93,100.88 398.62,100.88 398.62,419.78 584.65,419.78 584.65,478.25 
					791.93,478.25 791.93,403.84 				"/>
				<polyline class="st5" points="462.4,324.11 462.4,159.35 675,159.35 675,191.24 				"/>
				<line class="st5" x1="675" y1="313.48" x2="675" y2="191.24"/>
				<polyline class="st5" points="675,313.48 675,361.32 791.93,361.32 791.93,403.84 				"/>
				<path class="st5" d="M387.99,260.33"/>
			</g>
		</g>
	</g>
	<g id="Quad_Stadium_Express">
		<g id="Connections_00000062900159522537297690000006150731245249459622_">
			<g>
				<line class="st1" x1="138.19" y1="419.78" x2="138.19" y2="313.48"/>
				<polyline class="st1" points="138.19,419.78 138.19,467.62 356.1,467.62 356.1,58.36 924.8,58.36 924.8,510.14 				"/>
				<polyline class="st1" points="637.8,701.48 637.8,637.7 924.8,637.7 924.8,510.14 				"/>
				<polyline class="st1" points="850.39,924.7 850.39,993.8 706.89,993.8 706.89,765.25 				"/>
				<polyline class="st1" points="637.8,701.48 637.8,738.68 706.89,738.68 706.89,765.25 				"/>
				<polyline class="st1" points="302.95,871.55 302.95,908.76 850.39,908.76 850.39,924.7 				"/>
				<line class="st1" x1="302.95" y1="717.42" x2="302.95" y2="643.01"/>
				<line class="st1" x1="302.95" y1="717.42" x2="302.95" y2="871.55"/>
				<polyline class="st1" points="138.19,180.61 138.19,122.14 196.65,122.14 196.65,627.07 302.95,627.07 302.95,643.01 				"/>
				<path class="st1" d="M308.27,733.36"/>
				<line class="st1" x1="138.19" y1="313.48" x2="138.19" y2="154.03"/>
			</g>
			<g>
				<line class="st6" x1="138.19" y1="419.78" x2="138.19" y2="313.48"/>
				<polyline class="st6" points="138.19,419.78 138.19,467.62 356.1,467.62 356.1,58.36 924.8,58.36 924.8,510.14 				"/>
				<polyline class="st6" points="637.8,701.48 637.8,637.7 924.8,637.7 924.8,510.14 				"/>
				<polyline class="st6" points="850.39,924.7 850.39,993.8 706.89,993.8 706.89,765.25 				"/>
				<polyline class="st6" points="637.8,701.48 637.8,738.68 706.89,738.68 706.89,765.25 				"/>
				<polyline class="st6" points="302.95,871.55 302.95,908.76 850.39,908.76 850.39,924.7 				"/>
				<line class="st6" x1="302.95" y1="717.42" x2="302.95" y2="643.01"/>
				<line class="st6" x1="302.95" y1="717.42" x2="302.95" y2="871.55"/>
				<polyline class="st6" points="138.19,180.61 138.19,122.14 196.65,122.14 196.65,627.07 302.95,627.07 302.95,643.01 				"/>
				<path class="st6" d="M308.27,733.36"/>
				<line class="st6" x1="138.19" y1="313.48" x2="138.19" y2="154.03"/>
			</g>
		</g>
	</g>
	<g id="Quad_Yard_Express">
		<g id="Connections_00000067214389350451797780000013732721897712994729_">
			<g>
				<line class="st1" x1="85.04" y1="308.17" x2="85.04" y2="159.35"/>
				<line class="st1" x1="85.04" y1="414.47" x2="85.04" y2="318.8"/>
				<polyline class="st1" points="85.04,425.1 85.04,510.14 366.73,510.14 366.73,68.99 914.17,68.99 914.17,510.14 				"/>
				<polyline class="st1" points="600.59,557.97 600.59,627.07 914.17,627.07 914.17,510.14 				"/>
				<polyline class="st1" points="313.58,430.41 313.58,531.4 600.59,531.4 600.59,557.97 				"/>
				<polyline class="st1" points="313.58,425.1 313.58,68.99 85.04,68.99 85.04,148.72 				"/>
			</g>
			<g>
				<line class="st7" x1="85.04" y1="308.17" x2="85.04" y2="159.35"/>
				<line class="st7" x1="85.04" y1="414.47" x2="85.04" y2="318.8"/>
				<polyline class="st7" points="85.04,425.1 85.04,510.14 366.73,510.14 366.73,68.99 914.17,68.99 914.17,510.14 				"/>
				<polyline class="st7" points="600.59,557.97 600.59,627.07 914.17,627.07 914.17,510.14 				"/>
				<polyline class="st7" points="313.58,430.41 313.58,531.4 600.59,531.4 600.59,557.97 				"/>
				<polyline class="st7" points="313.58,425.1 313.58,68.99 85.04,68.99 85.04,148.72 				"/>
			</g>
		</g>
	</g>
	<g id="Crimson_Cruiser">
		<g id="Connections_00000121966445311389274800000013852891330534931589_">
			<g>
				<polyline class="st1" points="728.15,759.94 728.15,605.81 892.91,605.81 892.91,510.14 				"/>
				<polyline class="st1" points="829.13,680.22 829.13,520.77 621.85,520.77 621.85,563.29 				"/>
				<polyline class="st1" points="302.95,430.41 302.95,579.23 621.85,579.23 621.85,563.29 				"/>
				<polyline class="st1" points="95.67,148.72 95.67,79.62 302.95,79.62 302.95,430.41 				"/>
				<path class="st1" d="M95.67,159.35"/>
				<polyline class="st1" points="95.67,425.1 95.67,499.51 441.14,499.51 441.14,324.11 				"/>
				<polyline class="st1" points="696.26,191.24 696.26,138.09 441.14,138.09 441.14,324.11 				"/>
				<line class="st1" x1="696.26" y1="191.24" x2="696.26" y2="313.48"/>
				<line class="st1" x1="829.13" y1="930.02" x2="829.13" y2="680.22"/>
				<line class="st1" x1="95.67" y1="308.17" x2="95.67" y2="159.35"/>
				<line class="st1" x1="95.67" y1="419.78" x2="95.67" y2="313.48"/>
				<polyline class="st1" points="696.26,313.48 696.26,340.06 813.19,340.06 813.19,403.84 				"/>
				<polyline class="st1" points="813.19,403.84 813.19,425.1 892.91,425.1 892.91,510.14 				"/>
				<polyline class="st1" points="829.13,924.7 829.13,972.54 728.15,972.54 728.15,765.25 				"/>
			</g>
			<g>
				<polyline class="st8" points="728.15,759.94 728.15,605.81 892.91,605.81 892.91,510.14 				"/>
				<polyline class="st8" points="829.13,680.22 829.13,520.77 621.85,520.77 621.85,563.29 				"/>
				<polyline class="st8" points="302.95,430.41 302.95,579.23 621.85,579.23 621.85,563.29 				"/>
				<polyline class="st8" points="95.67,148.72 95.67,79.62 302.95,79.62 302.95,430.41 				"/>
				<path class="st8" d="M95.67,159.35"/>
				<polyline class="st8" points="95.67,425.1 95.67,499.51 441.14,499.51 441.14,324.11 				"/>
				<polyline class="st8" points="696.26,191.24 696.26,138.09 441.14,138.09 441.14,324.11 				"/>
				<line class="st8" x1="696.26" y1="191.24" x2="696.26" y2="313.48"/>
				<line class="st8" x1="829.13" y1="930.02" x2="829.13" y2="680.22"/>
				<line class="st8" x1="95.67" y1="308.17" x2="95.67" y2="159.35"/>
				<line class="st8" x1="95.67" y1="419.78" x2="95.67" y2="313.48"/>
				<polyline class="st8" points="696.26,313.48 696.26,340.06 813.19,340.06 813.19,403.84 				"/>
				<polyline class="st8" points="813.19,403.84 813.19,425.1 892.91,425.1 892.91,510.14 				"/>
				<polyline class="st8" points="829.13,924.7 829.13,972.54 728.15,972.54 728.15,765.25 				"/>
			</g>
		</g>
	</g>
	<g id="_x31_636_x27_er">
		<g id="Connections_00000123437167232906839730000015407020479262319781_">
			<g>
				<line class="st1" x1="106.3" y1="308.17" x2="106.3" y2="159.35"/>
				<line class="st1" x1="106.3" y1="419.78" x2="106.3" y2="313.48"/>
				<polyline class="st1" points="106.3,419.78 106.3,488.88 451.77,488.88 451.77,324.11 				"/>
				<polyline class="st1" points="685.63,196.55 685.63,148.72 451.77,148.72 451.77,324.11 				"/>
				<line class="st1" x1="685.63" y1="313.48" x2="685.63" y2="191.24"/>
				<polyline class="st1" points="738.78,765.25 738.78,595.18 882.28,595.18 882.28,510.14 				"/>
				<polyline class="st1" points="818.5,680.22 818.5,531.4 632.48,531.4 632.48,563.29 				"/>
				<polyline class="st1" points="292.32,430.41 292.32,589.86 632.48,589.86 632.48,563.29 				"/>
				<polyline class="st1" points="292.32,430.41 292.32,90.25 106.3,90.25 106.3,154.03 				"/>
				<polyline class="st1" points="818.5,930.02 818.5,961.91 738.78,961.91 738.78,765.25 				"/>
				<polyline class="st1" points="802.56,403.84 802.56,435.73 882.28,435.73 882.28,510.14 				"/>
				<polyline class="st1" points="802.56,403.84 802.56,350.69 685.63,350.69 685.63,308.17 				"/>
				<line class="st1" x1="818.5" y1="680.22" x2="818.5" y2="930.02"/>
			</g>
			<g>
				<line class="st9" x1="106.3" y1="308.17" x2="106.3" y2="159.35"/>
				<line class="st9" x1="106.3" y1="419.78" x2="106.3" y2="313.48"/>
				<polyline class="st9" points="106.3,419.78 106.3,488.88 451.77,488.88 451.77,324.11 				"/>
				<polyline class="st9" points="685.63,196.55 685.63,148.72 451.77,148.72 451.77,324.11 				"/>
				<line class="st9" x1="685.63" y1="313.48" x2="685.63" y2="191.24"/>
				<polyline class="st9" points="738.78,765.25 738.78,595.18 882.28,595.18 882.28,510.14 				"/>
				<polyline class="st9" points="818.5,680.22 818.5,531.4 632.48,531.4 632.48,563.29 				"/>
				<polyline class="st9" points="292.32,430.41 292.32,589.86 632.48,589.86 632.48,563.29 				"/>
				<polyline class="st9" points="292.32,430.41 292.32,90.25 106.3,90.25 106.3,154.03 				"/>
				<polyline class="st9" points="818.5,930.02 818.5,961.91 738.78,961.91 738.78,765.25 				"/>
				<polyline class="st10" points="802.56,403.84 802.56,435.73 882.28,435.73 882.28,510.14 				"/>
				<polyline class="st9" points="802.56,403.84 802.56,350.69 685.63,350.69 685.63,308.17 				"/>
				<line class="st9" x1="818.5" y1="680.22" x2="818.5" y2="930.02"/>
			</g>
		</g>
	</g>
	<g id="HUIT_Route">
		<g id="Connections_00000020399184246613370060000016137604236843476658_">
			<g>
				<polyline class="st1" points="589.96,563.29 589.96,1036.32 908.86,1036.32 				"/>
				<path class="st1" d="M616.54,658.96"/>
			</g>
			<g>
				<polyline class="st11" points="589.96,563.29 589.96,1036.32 908.86,1036.32 				"/>
				<path class="st11" d="M616.54,658.96"/>
			</g>
		</g>
	</g>
	<g id="Overnight">
		<g id="Connections_00000062194632396488075190000002147496796735448505_">
			<g>
				<polyline class="st1" points="717.52,759.94 717.52,728.05 648.43,728.05 648.43,701.48 				"/>
				<polyline class="st1" points="839.76,924.7 839.76,983.17 717.52,983.17 717.52,765.25 				"/>
				<polyline class="st1" points="74.51,154.13 74.41,58.36 324.21,58.36 324.21,542.03 611.22,542.03 611.22,563.29 				"/>
				<line class="st1" x1="74.41" y1="313.48" x2="74.41" y2="154.03"/>
				<line class="st1" x1="74.41" y1="308.17" x2="74.41" y2="419.78"/>
				<polyline class="st1" points="430.51,324.11 430.51,127.46 706.89,127.46 706.89,196.55 				"/>
				<line class="st1" x1="706.89" y1="313.48" x2="706.89" y2="196.55"/>
				<polyline class="st1" points="823.82,403.84 823.82,414.47 903.54,414.47 903.54,510.14 				"/>
				<polyline class="st1" points="611.22,563.29 611.22,648.33 839.76,648.33 839.76,680.22 				"/>
				<line class="st1" x1="839.76" y1="680.22" x2="839.76" y2="924.7"/>
				<polyline class="st1" points="430.51,324.11 430.51,520.77 74.41,520.77 74.41,419.78 				"/>
				<polyline class="st1" points="706.89,313.48 706.89,329.43 823.82,329.43 823.82,403.84 				"/>
				<polyline class="st1" points="903.54,510.14 903.54,616.44 648.43,616.44 648.43,701.48 				"/>
			</g>
			<g>
				<polyline class="st12" points="717.52,759.94 717.52,728.05 648.43,728.05 648.43,701.48 				"/>
				<polyline class="st12" points="839.76,924.7 839.76,983.17 717.52,983.17 717.52,765.25 				"/>
				<polyline class="st12" points="74.51,154.13 74.41,58.36 324.21,58.36 324.21,542.03 611.22,542.03 611.22,563.29 				"/>
				<line class="st12" x1="74.41" y1="313.48" x2="74.41" y2="154.03"/>
				<line class="st12" x1="74.41" y1="308.17" x2="74.41" y2="419.78"/>
				<polyline class="st12" points="430.51,324.11 430.51,127.46 706.89,127.46 706.89,196.55 				"/>
				<line class="st12" x1="706.89" y1="313.48" x2="706.89" y2="196.55"/>
				<polyline class="st12" points="823.82,403.84 823.82,414.47 903.54,414.47 903.54,510.14 				"/>
				<polyline class="st12" points="611.22,563.29 611.22,648.33 839.76,648.33 839.76,680.22 				"/>
				<line class="st12" x1="839.76" y1="680.22" x2="839.76" y2="924.7"/>
				<polyline class="st12" points="430.51,324.11 430.51,520.77 74.41,520.77 74.41,419.78 				"/>
				<polyline class="st12" points="706.89,313.48 706.89,329.43 823.82,329.43 823.82,403.84 				"/>
				<polyline class="st12" points="903.54,510.14 903.54,616.44 648.43,616.44 648.43,701.48 				"/>
			</g>
		</g>
	</g>
</g>
<g id="Labels_and_Stops">
	<g id="Stops">
		<g id="_x32_3509">
			<path d="M74.41,315.8c-1.28,0-2.31-1.04-2.31-2.31s1.04-2.31,2.31-2.31h63.78c1.28,0,2.31,1.04,2.31,2.31s-1.04,2.31-2.31,2.31
				H74.41z"/>
			<path d="M138.19,308.17H74.41c-2.94,0-5.31,2.38-5.31,5.31l0,0c0,2.94,2.38,5.31,5.31,5.31h63.78c2.94,0,5.31-2.38,5.31-5.31l0,0
				C143.5,310.55,141.12,308.17,138.19,308.17L138.19,308.17z"/>
		</g>
		<g id="_x35_050">
			<path d="M74.41,422.1c-1.28,0-2.31-1.04-2.31-2.31s1.04-2.31,2.31-2.31h63.78c1.28,0,2.31,1.04,2.31,2.31s-1.04,2.31-2.31,2.31
				H74.41z"/>
			<path d="M138.19,414.47H74.41c-2.94,0-5.31,2.38-5.31,5.31s2.38,5.31,5.31,5.31h63.78c2.94,0,5.31-2.38,5.31-5.31
				S141.12,414.47,138.19,414.47L138.19,414.47z"/>
		</g>
		<g id="_x35_049">
			<path d="M74.41,156.35c-1.28,0-2.31-1.04-2.31-2.31s1.04-2.31,2.31-2.31h63.78c1.28,0,2.31,1.04,2.31,2.31s-1.04,2.31-2.31,2.31
				H74.41z"/>
			<path d="M138.19,148.72H74.41c-2.94,0-5.31,2.38-5.31,5.31s2.38,5.31,5.31,5.31h63.78c2.94,0,5.31-2.38,5.31-5.31
				S141.12,148.72,138.19,148.72L138.19,148.72z"/>
		</g>
		<g id="_x35_040">
			<path d="M281.69,725.05c-1.28,0-2.31-1.04-2.31-2.32s1.04-2.31,2.31-2.31h21.26c1.28,0,2.31,1.04,2.31,2.31s-1.04,2.32-2.31,2.32
				H281.69z"/>
			<path d="M302.95,717.42h-21.26c-2.94,0-5.31,2.38-5.31,5.31c0,2.94,2.38,5.32,5.31,5.32h21.26c2.94,0,5.32-2.38,5.32-5.32
				C308.27,719.8,305.89,717.42,302.95,717.42L302.95,717.42z"/>
		</g>
		<g id="_x35_039">
			<path d="M281.69,874.06c-1.38,0-2.51-1.12-2.51-2.51s1.13-2.51,2.51-2.51h21.26c1.38,0,2.51,1.12,2.51,2.51s-1.13,2.51-2.51,2.51
				H281.69z"/>
			<path d="M302.95,866.24h-21.26c-2.94,0-5.31,2.38-5.31,5.31s2.38,5.31,5.31,5.31h21.26c2.94,0,5.32-2.38,5.32-5.31
				S305.89,866.24,302.95,866.24L302.95,866.24z"/>
		</g>
		<g id="_x36_3189">
			<path d="M281.69,964.22c-1.28,0-2.31-1.04-2.31-2.31s1.04-2.32,2.31-2.32h10.63c1.28,0,2.31,1.04,2.31,2.32s-1.04,2.31-2.31,2.31
				H281.69z"/>
			<path d="M292.32,956.59h-10.63c-2.94,0-5.31,2.38-5.31,5.31l0,0c0,2.94,2.38,5.31,5.31,5.31h10.63c2.94,0,5.31-2.38,5.31-5.31
				l0,0C297.64,958.97,295.26,956.59,292.32,956.59L292.32,956.59z"/>
		</g>
		<g id="_x35_8343">
			<path d="M201.97,1033.32c-1.28,0-2.31-1.04-2.31-2.31s1.04-2.32,2.31-2.32h10.63c1.28,0,2.31,1.04,2.31,2.32
				s-1.04,2.31-2.31,2.31H201.97z"/>
			<path d="M212.6,1025.69h-10.63c-2.94,0-5.31,2.38-5.31,5.31l0,0c0,2.94,2.38,5.31,5.31,5.31h10.63c2.94,0,5.31-2.38,5.31-5.31
				l0,0C217.91,1028.07,215.53,1025.69,212.6,1025.69L212.6,1025.69z"/>
		</g>
		<g id="_x35_041">
			<path d="M281.69,645.33c-1.28,0-2.31-1.04-2.31-2.31s1.04-2.32,2.31-2.32h21.26c1.28,0,2.31,1.04,2.31,2.32s-1.04,2.31-2.31,2.31
				H281.69z"/>
			<path d="M302.95,637.7h-21.26c-2.94,0-5.31,2.38-5.31,5.32s2.38,5.31,5.31,5.31h21.26c2.94,0,5.32-2.38,5.32-5.31
				S305.89,637.7,302.95,637.7L302.95,637.7z"/>
		</g>
		<g id="_x35_036">
			<path d="M451.84,1054.58c-1.32,0-2.39-1.07-2.39-2.39c0-1.32,1.07-2.39,2.39-2.39s2.39,1.07,2.39,2.39
				S453.16,1054.58,451.84,1054.58z"/>
			<path d="M451.84,1046.8c-2.98,0-5.39,2.41-5.39,5.39s2.41,5.39,5.39,5.39s5.39-2.41,5.39-5.39
				C457.23,1049.21,454.82,1046.8,451.84,1046.8L451.84,1046.8z"/>
		</g>
		<g id="_x35_054">
			<path d="M127.49,725.2c-1.32,0-2.39-1.07-2.39-2.39s1.07-2.39,2.39-2.39s2.39,1.07,2.39,2.39S128.8,725.2,127.49,725.2z"/>
			<path d="M127.49,717.42c-2.98,0-5.39,2.41-5.39,5.39s2.41,5.39,5.39,5.39c2.98,0,5.39-2.41,5.39-5.39
				S130.46,717.42,127.49,717.42L127.49,717.42z"/>
		</g>
		<g id="_x32_3930">
			<path d="M127.63,873.87c-1.32,0-2.39-1.07-2.39-2.39s1.07-2.39,2.39-2.39s2.39,1.07,2.39,2.39S128.95,873.87,127.63,873.87z"/>
			<path d="M127.63,866.09c-2.98,0-5.39,2.41-5.39,5.39l0,0c0,2.98,2.41,5.39,5.39,5.39c2.98,0,5.39-2.41,5.39-5.39l0,0
				C133.02,868.51,130.61,866.09,127.63,866.09L127.63,866.09z"/>
		</g>
		<g id="_x36_3190">
			<path d="M127.63,964.22c-1.32,0-2.39-1.07-2.39-2.39s1.07-2.39,2.39-2.39s2.39,1.07,2.39,2.39S128.95,964.22,127.63,964.22z"/>
			<path d="M127.63,956.45c-2.98,0-5.39,2.41-5.39,5.39s2.41,5.39,5.39,5.39c2.98,0,5.39-2.41,5.39-5.39
				S130.61,956.45,127.63,956.45L127.63,956.45z"/>
		</g>
		<g id="_x31_32600">
			<path d="M292.32,433.8c-1.87,0-3.39-1.52-3.39-3.39s1.52-3.39,3.39-3.39h31.89c1.87,0,3.39,1.52,3.39,3.39s-1.52,3.39-3.39,3.39
				H292.32z"/>
			<path d="M324.21,428.94c0.81,0,1.47,0.66,1.47,1.47s-0.66,1.47-1.47,1.47h-31.89c-0.81,0-1.47-0.66-1.47-1.47
				s0.66-1.47,1.47-1.47H324.21 M324.21,425.1h-31.89c-2.94,0-5.31,2.38-5.31,5.31l0,0c0,2.94,2.38,5.31,5.31,5.31h31.89
				c2.94,0,5.31-2.38,5.31-5.31l0,0C329.53,427.48,327.15,425.1,324.21,425.1L324.21,425.1z"/>
		</g>
		<g id="_x35_8381">
			<circle cx="908.93" cy="1036.39" r="3.36"/>
			<path d="M908.93,1035.06c0.73,0,1.33,0.6,1.33,1.33s-0.6,1.33-1.33,1.33c-0.74,0-1.33-0.6-1.33-1.33
				S908.2,1035.06,908.93,1035.06 M908.93,1031c-2.98,0-5.39,2.41-5.39,5.39s2.41,5.39,5.39,5.39c2.98,0,5.39-2.41,5.39-5.39
				S911.91,1031,908.93,1031L908.93,1031z"/>
		</g>
		<g id="_x35_8344">
			<path d="M127.49,645.47c-1.32,0-2.39-1.07-2.39-2.39s1.07-2.39,2.39-2.39s2.39,1.07,2.39,2.39
				C129.87,644.4,128.8,645.47,127.49,645.47z"/>
			<path d="M127.49,637.7c-2.98,0-5.39,2.41-5.39,5.39s2.41,5.39,5.39,5.39c2.98,0,5.39-2.41,5.39-5.39S130.46,637.7,127.49,637.7
				L127.49,637.7z"/>
		</g>
		<g id="_x35_042">
			<path d="M430.51,326.43c-1.28,0-2.31-1.04-2.31-2.31s1.04-2.31,2.31-2.31h63.78c1.28,0,2.32,1.04,2.32,2.31s-1.04,2.31-2.32,2.31
				H430.51z"/>
			<path d="M494.29,318.8h-63.78c-2.94,0-5.31,2.38-5.31,5.31s2.38,5.31,5.31,5.31h63.78c2.94,0,5.31-2.38,5.31-5.31
				S497.23,318.8,494.29,318.8L494.29,318.8z"/>
		</g>
		<g id="_x35_043">
			<path d="M653.74,198.87c-1.28,0-2.32-1.04-2.32-2.31s1.04-2.31,2.32-2.31h53.15c1.28,0,2.31,1.04,2.31,2.31s-1.04,2.31-2.31,2.31
				H653.74z"/>
			<path d="M706.89,191.24h-53.15c-2.94,0-5.31,2.38-5.31,5.31l0,0c0,2.94,2.38,5.31,5.31,5.31h53.15c2.94,0,5.31-2.38,5.31-5.31
				l0,0C712.2,193.62,709.83,191.24,706.89,191.24L706.89,191.24z"/>
		</g>
		<g id="_x36_248">
			<path d="M653.74,315.8c-1.28,0-2.31-1.04-2.31-2.31s1.04-2.31,2.31-2.31h53.15c1.28,0,2.31,1.04,2.31,2.31s-1.04,2.31-2.31,2.31
				H653.74z"/>
			<path d="M706.89,308.17h-53.15c-2.94,0-5.31,2.38-5.31,5.31l0,0c0,2.94,2.38,5.31,5.31,5.31h53.15c2.94,0,5.31-2.38,5.31-5.31
				l0,0C712.2,310.55,709.83,308.17,706.89,308.17L706.89,308.17z"/>
		</g>
		<g id="_x35_044">
			<path d="M770.67,406.15c-1.28,0-2.32-1.04-2.32-2.31s1.04-2.31,2.32-2.31h53.15c1.28,0,2.31,1.04,2.31,2.31s-1.04,2.31-2.31,2.31
				H770.67z"/>
			<path d="M823.82,398.52h-53.15c-2.94,0-5.31,2.38-5.31,5.31l0,0c0,2.94,2.38,5.31,5.31,5.31h53.15c2.94,0,5.31-2.38,5.31-5.31
				l0,0C829.13,400.9,826.75,398.52,823.82,398.52L823.82,398.52z"/>
		</g>
		<g id="_x35_045">
			<path d="M861.02,512.45c-1.28,0-2.32-1.04-2.32-2.31s1.04-2.31,2.32-2.31h63.78c1.28,0,2.32,1.04,2.32,2.31s-1.04,2.31-2.32,2.31
				H861.02z"/>
			<path d="M924.8,504.82h-63.78c-2.94,0-5.32,2.38-5.32,5.31c0,2.94,2.38,5.31,5.32,5.31h63.78c2.94,0,5.32-2.38,5.32-5.31
				C930.12,507.2,927.74,504.82,924.8,504.82L924.8,504.82z"/>
		</g>
		<g id="_x35_047">
			<path d="M807.87,677.21c-1.28,0-2.32-1.04-2.32-2.31s1.04-2.32,2.32-2.32h31.89c1.28,0,2.31,1.04,2.31,2.32s-1.04,2.31-2.31,2.31
				H807.87z"/>
			<path d="M839.76,669.59h-31.89c-2.94,0-5.31,2.38-5.31,5.31l0,0c0,2.94,2.38,5.31,5.31,5.31h31.89c2.94,0,5.31-2.38,5.31-5.31
				l0,0C845.08,671.96,842.7,669.59,839.76,669.59L839.76,669.59z"/>
		</g>
		<g id="_x36_854">
			<path d="M706.89,762.26c-1.28,0-2.32-1.04-2.32-2.32s1.04-2.31,2.32-2.31h53.15c1.28,0,2.32,1.04,2.32,2.31s-1.04,2.32-2.32,2.32
				H706.89z"/>
			<path d="M760.04,754.62h-53.15c-2.94,0-5.31,2.38-5.31,5.31l0,0c0,2.94,2.38,5.31,5.31,5.31h53.15c2.94,0,5.32-2.38,5.32-5.31
				l0,0C765.35,757,762.97,754.62,760.04,754.62L760.04,754.62z"/>
		</g>
		<g id="_x35_046">
			<path d="M807.87,932.33c-1.28,0-2.32-1.04-2.32-2.31s1.04-2.32,2.32-2.32h42.52c1.28,0,2.31,1.04,2.31,2.32s-1.04,2.31-2.31,2.31
				H807.87z"/>
			<path d="M850.39,924.7h-42.52c-2.94,0-5.31,2.38-5.31,5.31l0,0c0,2.94,2.38,5.31,5.31,5.31h42.52c2.94,0,5.31-2.38,5.31-5.31l0,0
				C855.71,927.08,853.33,924.7,850.39,924.7L850.39,924.7z"/>
		</g>
		<g id="_x35_051">
			<path d="M637.8,703.79c-1.28,0-2.31-1.04-2.31-2.32s1.04-2.31,2.31-2.31h10.63c1.28,0,2.32,1.04,2.32,2.31s-1.04,2.32-2.32,2.32
				H637.8z"/>
			<path d="M648.43,696.16H637.8c-2.94,0-5.31,2.38-5.31,5.31s2.38,5.31,5.31,5.31h10.63c2.94,0,5.31-2.38,5.31-5.31
				S651.36,696.16,648.43,696.16L648.43,696.16z"/>
		</g>
		<g id="_x35_048">
			<path d="M589.96,565.6c-1.28,0-2.31-1.04-2.31-2.31s1.04-2.31,2.31-2.31h42.52c1.28,0,2.31,1.04,2.31,2.31s-1.04,2.31-2.31,2.31
				H589.96z"/>
			<path d="M632.48,557.97h-42.52c-2.94,0-5.31,2.38-5.31,5.32s2.38,5.31,5.31,5.31h42.52c2.94,0,5.31-2.38,5.31-5.31
				S635.42,557.97,632.48,557.97L632.48,557.97z"/>
		</g>
	</g>
	<g id="Labels">
		<text transform="matrix(1 0 0 1 30.7927 156.8798)" class="st13 st14">Quad</text>
		<text transform="matrix(1 0 0 1 19.907 316.3288)" class="st13 st14">Radcliffe</text>
		<text transform="matrix(1 0 0 1 29.937 330.7289)" class="st13 st14">Yard</text>
		<text transform="matrix(1 0 0 1 14.8479 422.6277)" class="st13 st14">Mass Ave</text>
		<text transform="matrix(1 0 0 1 15.9453 648.3265)" class="st13 st14">Harvard Square (S)</text>
		<text transform="matrix(1 0 0 1 10.6301 728.0511)" class="st13 st14">Kennedy School (S)</text>
		<text transform="matrix(1 0 0 1 10.6304 871.5552)" class="st13 st14">Harvard Stadium (S)</text>
		<text transform="matrix(1 0 0 1 164.764 728.051)" class="st13 st14">Kennedy School (N) </text>
		<text transform="matrix(1 0 0 1 164.764 871.5549)" class="st13 st14">Harvard Stadium (N)</text>
		<text transform="matrix(1 0 0 1 175.3934 961.9099)" class="st13 st14">Barry’s Corner (N)</text>
		<text transform="matrix(1 0 0 1 164.764 1031.0037)" class="st13 st14">SEC</text>
		<text transform="matrix(1 0 0 1 21.2594 961.9099)" class="st13 st14">Barry’s Corner (S)</text>
		<text transform="matrix(1 0 0 1 164.764 648.3263)" class="st13 st14">Harvard Square (N)</text>
		<text transform="matrix(1 0 0 1 509.6299 321.6437)" class="st13 st14">Law</text>
		<text transform="matrix(1 0 0 1 502.7899 336.0437)" class="st13 st14">School</text>
		<text transform="matrix(1 0 0 1 716.9351 194.0843)" class="st13 st14">Maxwell</text>
		<text transform="matrix(1 0 0 1 720.8851 208.4843)" class="st13 st14">Dorkin</text>
		<text transform="matrix(1 0 0 1 601.6735 311.0137)" class="st13 st14">Science</text>
		<text transform="matrix(1 0 0 1 603.9835 325.4137)" class="st13 st14">Center</text>
		<text transform="matrix(1 0 0 1 509.1389 566.1318)" class="st13 st14">Widener Gate</text>
		<text transform="matrix(1 0 0 1 655.4219 704.3203)" class="st13 st14">Winthrop</text>
		<text transform="matrix(1 0 0 1 663.3218 718.7203)" class="st13 st14">House</text>
		<text transform="matrix(1 0 0 1 938.6985 510.1377)" class="st13 st14">Lamont</text>
		<text transform="matrix(1 0 0 1 940.7485 524.5377)" class="st13 st14">Library</text>
		<text transform="matrix(1 0 0 1 855.7094 680.2169)" class="st13 st14">The Inn</text>
		<text transform="matrix(1 0 0 1 653.2333 762.7853)" class="st13 st14">Leverett</text>
		<text transform="matrix(1 0 0 1 658.0134 777.1853)" class="st13 st14">House</text>
		<text transform="matrix(1 0 0 1 866.339 930.0195)" class="st15 st14">Mather</text>
		<text transform="matrix(1 0 0 1 866.3389 940.6496)" class="st15 st14">House</text>
		<g>
			<path d="M926.34,1028.38v0.7l-3.39,7.1h-1.09l3.38-6.9v-0.02h-3.81v-0.88L926.34,1028.38L926.34,1028.38z"/>
			<path d="M927.34,1034.2c0-0.98,0.59-1.68,1.55-2.09l-0.01-0.04c-0.86-0.41-1.24-1.08-1.24-1.75c0-1.24,1.04-2.08,2.41-2.08
				c1.51,0,2.27,0.95,2.27,1.92c0,0.66-0.32,1.37-1.28,1.82v0.04c0.97,0.38,1.57,1.07,1.57,2.01c0,1.36-1.16,2.27-2.65,2.27
				C928.32,1036.32,927.34,1035.34,927.34,1034.2z M931.54,1034.15c0-0.95-0.66-1.4-1.72-1.7c-0.91,0.26-1.4,0.86-1.4,1.61
				c-0.04,0.79,0.56,1.49,1.56,1.49C930.92,1035.54,931.54,1034.95,931.54,1034.15z M928.63,1030.25c0,0.78,0.59,1.2,1.49,1.44
				c0.67-0.23,1.19-0.71,1.19-1.42c0-0.62-0.37-1.27-1.32-1.27C929.11,1029.01,928.63,1029.58,928.63,1030.25z"/>
			<path d="M936.85,1036.19v-2.12h-3.62v-0.7l3.48-4.98h1.14v4.85h1.09v0.83h-1.09v2.12H936.85z M936.85,1033.23v-2.6
				c0-0.41,0.01-0.82,0.04-1.22h-0.04c-0.24,0.46-0.43,0.79-0.65,1.15l-1.91,2.65v0.02L936.85,1033.23L936.85,1033.23z"/>
			<path d="M949.47,1032.63c-0.06-1.13-0.13-2.48-0.12-3.49h-0.04c-0.28,0.95-0.61,1.96-1.02,3.07l-1.43,3.92h-0.79l-1.31-3.85
				c-0.38-1.14-0.71-2.18-0.94-3.14h-0.02c-0.02,1.01-0.08,2.36-0.16,3.57l-0.22,3.47h-1l0.56-8.08h1.33l1.38,3.91
				c0.34,1,0.61,1.88,0.82,2.72h0.04c0.2-0.82,0.49-1.7,0.85-2.72l1.44-3.91h1.33l0.5,8.08h-1.02L949.47,1032.63z"/>
			<path d="M952.93,1033.47c0.02,1.43,0.94,2.01,1.99,2.01c0.75,0,1.21-0.13,1.61-0.3l0.18,0.76c-0.37,0.17-1.01,0.36-1.93,0.36
				c-1.79,0-2.85-1.17-2.85-2.93c0-1.75,1.03-3.13,2.72-3.13c1.9,0,2.4,1.67,2.4,2.73c0,0.22-0.02,0.38-0.04,0.49h-4.08V1033.47z
				 M956.03,1032.71c0.01-0.67-0.28-1.71-1.46-1.71c-1.07,0-1.54,0.98-1.62,1.71H956.03z"/>
			<path d="M958.36,1031.94c0-0.6-0.01-1.09-0.05-1.57h0.92l0.05,0.94h0.04c0.32-0.55,0.86-1.07,1.82-1.07
				c0.79,0,1.39,0.48,1.64,1.16h0.02c0.18-0.32,0.41-0.58,0.65-0.75c0.35-0.26,0.73-0.41,1.28-0.41c0.77,0,1.91,0.5,1.91,2.52v3.42
				h-1.03v-3.29c0-1.12-0.41-1.79-1.26-1.79c-0.6,0-1.07,0.44-1.25,0.96c-0.05,0.14-0.08,0.34-0.08,0.53v3.59h-1.03v-3.48
				c0-0.92-0.41-1.6-1.21-1.6c-0.66,0-1.14,0.53-1.31,1.06c-0.06,0.16-0.08,0.34-0.08,0.52v3.5h-1.03L958.36,1031.94L958.36,1031.94
				z"/>
			<path d="M973.62,1033.23c0,2.15-1.49,3.08-2.89,3.08c-1.57,0-2.78-1.15-2.78-2.99c0-1.94,1.27-3.08,2.88-3.08
				C972.49,1030.25,973.62,1031.45,973.62,1033.23z M969.01,1033.29c0,1.27,0.73,2.23,1.76,2.23c1.01,0,1.76-0.95,1.76-2.25
				c0-0.98-0.49-2.23-1.74-2.23S969.01,1032.19,969.01,1033.29z"/>
			<path d="M974.95,1032.19c0-0.68-0.01-1.27-0.05-1.81h0.92l0.04,1.14h0.05c0.26-0.78,0.9-1.27,1.61-1.27c0.12,0,0.2,0.01,0.3,0.04
				v1c-0.11-0.02-0.22-0.04-0.36-0.04c-0.74,0-1.27,0.56-1.42,1.36c-0.02,0.14-0.05,0.31-0.05,0.49v3.09h-1.04V1032.19z"/>
			<path d="M980.1,1028.75c0.01,0.36-0.25,0.65-0.67,0.65c-0.37,0-0.64-0.29-0.64-0.65c0-0.37,0.28-0.66,0.66-0.66
				C979.85,1028.08,980.1,1028.38,980.1,1028.75z M978.92,1036.19v-5.8h1.06v5.8H978.92z"/>
			<path d="M984.95,1036.19l-0.08-0.73h-0.04c-0.32,0.46-0.95,0.86-1.78,0.86c-1.17,0-1.77-0.83-1.77-1.67
				c0-1.4,1.25-2.17,3.49-2.16v-0.12c0-0.48-0.13-1.34-1.32-1.34c-0.54,0-1.1,0.17-1.51,0.43l-0.24-0.7
				c0.48-0.31,1.18-0.52,1.91-0.52c1.78,0,2.21,1.21,2.21,2.38v2.17c0,0.5,0.02,1,0.1,1.39L984.95,1036.19L984.95,1036.19
				L984.95,1036.19z M984.79,1033.22c-1.15-0.02-2.46,0.18-2.46,1.31c0,0.68,0.46,1.01,1,1.01c0.75,0,1.24-0.48,1.4-0.97
				c0.04-0.11,0.06-0.23,0.06-0.34V1033.22z"/>
			<path d="M987.52,1027.66h1.06v8.51h-1.06V1027.66z"/>
		</g>
		<text transform="matrix(1 0 0 1 409.2521 1041.6334)" class="st13 st14">One Western Ave</text>
		<text transform="matrix(1 0 0 1 222.1311 427.9428)" class="st13 st14">Cambridge</text>
		<text transform="matrix(1 0 0 1 222.1311 442.3428)" class="st13 st14">Commons</text>
		<text transform="matrix(1 0 0 1 689.8483 406.6827)" class="st13 st14">Memorial Hall</text>
	</g>
	<g id="Stop_IDs">
		<text transform="matrix(1 0 0 1 33.151 143.4036)" class="st13 st14">5049</text>
		<text transform="matrix(1 0 0 1 28.3912 302.8526)" class="st13 st14">23509</text>
		<text transform="matrix(1 0 0 1 17.2062 409.1513)" class="st13 st14">5050</text>
		<text transform="matrix(1 0 0 1 27.8361 632.3801)" class="st13 st14">58344</text>
		<text transform="matrix(1 0 0 1 22.521 712.1046)" class="st13 st14">5054</text>
		<text transform="matrix(1 0 0 1 17.2062 860.9233)" class="st13 st14">23930</text>
		<text transform="matrix(1 0 0 1 176.6548 712.1046)" class="st13 st14">5040 </text>
		<text transform="matrix(1 0 0 1 171.3399 860.9229)" class="st13 st14">5039</text>
		<text transform="matrix(1 0 0 1 187.2848 951.2777)" class="st13 st14">63189</text>
		<text transform="matrix(1 0 0 1 176.6549 1020.3718)" class="st13 st14">58343</text>
		<text transform="matrix(1 0 0 1 33.1508 951.2777)" class="st13 st14">63190</text>
		<text transform="matrix(1 0 0 1 176.6548 632.3798)" class="st13 st14">5041</text>
		<text transform="matrix(1 0 0 1 509.8162 308.1674)" class="st13 st14">5042</text>
		<text transform="matrix(1 0 0 1 727.7292 180.608)" class="st13 st14">5043</text>
		<text transform="matrix(1 0 0 1 610.7998 297.5374)" class="st13 st14">6248</text>
		<text transform="matrix(1 0 0 1 511.497 552.6556)" class="st13 st14">5048</text>
		<text transform="matrix(1 0 0 1 669.2644 690.8441)" class="st13 st14">5051</text>
		<text transform="matrix(1 0 0 1 940.3279 494.191)" class="st13 st14">5045</text>
		<text transform="matrix(1 0 0 1 851.6544 664.2695)" class="st13 st14">5047</text>
		<text transform="matrix(1 0 0 1 663.9495 749.309)" class="st13 st14">6854</text>
		<text transform="matrix(1 0 0 1 863.4999 914.0726)" class="st15 st14">5046</text>
		<text transform="matrix(1 0 0 1 224.4893 414.4666)" class="st13 st14">132600</text>
		<text transform="matrix(1 0 0 1 692.2064 393.2065)" class="st13 st14">5044</text>
		<text transform="matrix(1 0 0 1 935.4326 1020.3709)" class="st13 st14">58381</text>
		<text transform="matrix(1 0 0 1 430.5116 1031.0012)" class="st13 st14">5036</text>
	</g>
</g>
</svg>
