<?xml version="1.0" encoding="utf-8"?>
<!-- Generator: Adobe Illustrator 28.3.0, SVG Export Plug-In . SVG Version: 6.00 Build 0)  -->
<svg version="1.0" xmlns="http://www.w3.org/2000/svg" xmlns:xlink="http://www.w3.org/1999/xlink" x="0px" y="0px"
	 viewBox="0 0 1147.13 1169.29" style="enable-background:new 0 0 1147.13 1169.29;" xml:space="preserve">
<style type="text/css">
	.st0{fill:none;stroke:#231F20;stroke-width:9;}
	.st1{fill:none;stroke:#C945E5;stroke-width:6;stroke-miterlimit:10;}
	.st2{fill:none;stroke:#C1272D;stroke-width:6;stroke-miterlimit:10;}
	.st3{fill:none;stroke:#DD1F95;stroke-width:6;stroke-miterlimit:10;}
	.st4{fill:none;stroke:#475AC6;stroke-width:6;stroke-miterlimit:10;}
	.st5{fill:none;stroke:#0000FF;stroke-width:6;stroke-miterlimit:10;}
	.st6{fill:none;stroke:#2AB74B;stroke-width:6;stroke-miterlimit:10;}
	.st7{fill:none;stroke:#ED1C24;stroke-width:6;stroke-miterlimit:10;}
	.st8{fill:none;stroke:#11C7F2;stroke-width:6;stroke-miterlimit:10;}
	.st9{fill:none;stroke:#11C7F2;stroke-width:6.5227;stroke-miterlimit:10;}
	.st10{fill:none;stroke:#EAD61C;stroke-width:6;stroke-miterlimit:10;}
	.st11{fill:none;stroke:#F7EA08;stroke-width:6;stroke-miterlimit:10;}
	.st12{font-family:'MyriadPro-Regular';}
	.st13{font-size:12px;}
	.st14{font-family:'Niramit-Regular';}
	.st15{display:none;}
	.st16{display:inline;}
</style>
<g id="Quad_SEC_Direct_00000075163491271362017740000011431334734917048740_">
	<g id="Connections">
		<g>
			<line class="st0" x1="207.28" y1="770.67" x2="207.28" y2="919.49"/>
			<line class="st0" x1="207.28" y1="1009.84" x2="207.28" y2="919.49"/>
			<polyline class="st0" points="281.69,1078.94 281.69,1100.2 207.28,1100.2 207.28,1009.84 			"/>
			<polyline class="st0" points="361.42,1009.84 361.42,1036.42 281.69,1036.42 281.69,1078.94 			"/>
			<line class="st0" x1="361.42" y1="919.49" x2="361.42" y2="1009.84"/>
			<line class="st0" x1="361.42" y1="919.49" x2="361.42" y2="770.67"/>
			<line class="st0" x1="361.42" y1="690.94" x2="361.42" y2="770.67"/>
			<polyline class="st0" points="207.28,201.97 207.28,159.45 563.39,159.45 563.39,372.05 			"/>
			<polyline class="st0" points="563.39,366.73 563.39,653.74 361.42,653.74 361.42,690.94 			"/>
			<line class="st0" x1="207.28" y1="361.42" x2="207.28" y2="207.28"/>
			<line class="st0" x1="207.28" y1="462.4" x2="207.28" y2="366.73"/>
			<line class="st0" x1="207.28" y1="690.94" x2="207.28" y2="467.72"/>
			<line class="st0" x1="207.28" y1="770.67" x2="207.28" y2="690.94"/>
			<path class="st0" d="M292.32,1015.16"/>
			<path class="st0" d="M239.17,1009.84"/>
		</g>
		<g>
			<line class="st1" x1="207.28" y1="770.67" x2="207.28" y2="919.49"/>
			<line class="st1" x1="207.28" y1="1009.84" x2="207.28" y2="919.49"/>
			<polyline class="st1" points="281.69,1078.94 281.69,1100.2 207.28,1100.2 207.28,1009.84 			"/>
			<polyline class="st1" points="361.42,1009.84 361.42,1036.42 281.69,1036.42 281.69,1078.94 			"/>
			<line class="st1" x1="361.42" y1="919.49" x2="361.42" y2="1009.84"/>
			<line class="st1" x1="361.42" y1="919.49" x2="361.42" y2="770.67"/>
			<line class="st1" x1="361.42" y1="690.94" x2="361.42" y2="770.67"/>
			<polyline class="st1" points="207.28,201.97 207.28,159.45 563.39,159.45 563.39,372.05 			"/>
			<polyline class="st1" points="563.39,366.73 563.39,653.74 361.42,653.74 361.42,690.94 			"/>
			<line class="st1" x1="207.28" y1="361.42" x2="207.28" y2="207.28"/>
			<line class="st1" x1="207.28" y1="462.4" x2="207.28" y2="366.73"/>
			<line class="st1" x1="207.28" y1="690.94" x2="207.28" y2="467.72"/>
			<line class="st1" x1="207.28" y1="770.67" x2="207.28" y2="690.94"/>
			<path class="st1" d="M292.32,1015.16"/>
			<path class="st1" d="M239.17,1009.84"/>
		</g>
	</g>
</g>
<g id="Allston_Loop_00000070110590923347169080000012890165838060479915_">
	<g id="Connections_00000075883866712509860230000010570915475464463779_">
		<g>
			<polyline class="st0" points="292.32,1078.94 292.32,1100.2 531.5,1100.2 			"/>
			<polyline class="st0" points="372.05,1009.84 372.05,1047.05 292.32,1047.05 292.32,1078.94 			"/>
			<line class="st0" x1="372.05" y1="919.49" x2="372.05" y2="1009.84"/>
			<line class="st0" x1="372.05" y1="919.49" x2="372.05" y2="765.35"/>
			<line class="st0" x1="372.05" y1="770.67" x2="372.05" y2="685.63"/>
			<polyline class="st0" points="574.02,372.05 574.02,664.37 372.05,664.37 372.05,690.94 			"/>
			<polyline class="st0" points="733.46,244.49 733.46,228.54 574.02,228.54 574.02,372.05 			"/>
			<line class="st0" x1="733.46" y1="244.49" x2="733.46" y2="361.42"/>
			<polyline class="st0" points="733.46,361.42 733.46,430.51 850.39,430.51 850.39,451.77 			"/>
			<polyline class="st0" points="940.75,558.07 940.75,504.92 850.39,504.92 850.39,451.77 			"/>
			<polyline class="st0" points="839.76,813.19 839.76,621.85 940.75,621.85 940.75,558.07 			"/>
			<polyline class="st0" points="531.5,1100.2 839.76,1100.2 839.76,813.19 			"/>
			<path class="st0" d="M376.19,1063.03"/>
			<path class="st0" d="M529.67,1009.65"/>
			<path class="st0" d="M765.35,372.05"/>
			<path class="st0" d="M361.42,664.37"/>
		</g>
		<g>
			<polyline class="st2" points="292.32,1078.94 292.32,1100.2 531.5,1100.2 			"/>
			<polyline class="st2" points="372.05,1009.84 372.05,1047.05 292.32,1047.05 292.32,1078.94 			"/>
			<line class="st2" x1="372.05" y1="919.49" x2="372.05" y2="1009.84"/>
			<line class="st2" x1="372.05" y1="919.49" x2="372.05" y2="765.35"/>
			<line class="st2" x1="372.05" y1="770.67" x2="372.05" y2="685.63"/>
			<polyline class="st2" points="574.02,372.05 574.02,664.37 372.05,664.37 372.05,690.94 			"/>
			<polyline class="st2" points="733.46,244.49 733.46,228.54 574.02,228.54 574.02,372.05 			"/>
			<line class="st2" x1="733.46" y1="244.49" x2="733.46" y2="361.42"/>
			<polyline class="st2" points="733.46,361.42 733.46,430.51 850.39,430.51 850.39,451.77 			"/>
			<polyline class="st2" points="940.75,558.07 940.75,504.92 850.39,504.92 850.39,451.77 			"/>
			<polyline class="st2" points="839.76,813.19 839.76,621.85 940.75,621.85 940.75,558.07 			"/>
			<polyline class="st2" points="531.5,1100.2 839.76,1100.2 839.76,813.19 			"/>
			<path class="st2" d="M376.19,1063.03"/>
			<path class="st2" d="M529.67,1009.65"/>
			<path class="st2" d="M765.35,372.05"/>
			<path class="st2" d="M361.42,664.37"/>
		</g>
	</g>
</g>
<g id="Mather_Express">
	<g id="Connections_00000165933145928840793960000005240245280742489523_">
		<g>
			<polyline class="st0" points="887.6,728.15 887.6,542.13 552.76,542.13 552.76,372.05 			"/>
			<polyline class="st0" points="744.09,239.17 744.09,217.91 552.76,217.91 552.76,372.05 			"/>
			<line class="st0" x1="754.72" y1="260.43" x2="754.72" y2="361.42"/>
			<polyline class="st0" points="744.09,361.42 744.09,419.88 861.02,419.88 861.02,451.77 			"/>
			<polyline class="st0" points="861.02,451.77 861.02,494.29 951.38,494.29 951.38,558.07 			"/>
			<polyline class="st0" points="951.38,552.76 951.38,632.48 829.13,632.48 829.13,813.19 			"/>
			<polyline class="st0" points="829.13,813.19 829.13,999.21 887.6,999.21 887.6,728.15 			"/>
			<line class="st0" x1="744.09" y1="239.17" x2="744.09" y2="361.42"/>
			<path class="st0" d="M855.71,712.2"/>
			<path class="st0" d="M887.6,728.15"/>
		</g>
		<g>
			<polyline class="st3" points="887.6,728.15 887.6,542.13 552.76,542.13 552.76,372.05 			"/>
			<polyline class="st3" points="744.09,239.17 744.09,217.91 552.76,217.91 552.76,372.05 			"/>
			<line class="st3" x1="754.72" y1="260.43" x2="754.72" y2="361.42"/>
			<polyline class="st3" points="744.09,361.42 744.09,419.88 861.02,419.88 861.02,451.77 			"/>
			<polyline class="st3" points="861.02,451.77 861.02,494.29 951.38,494.29 951.38,558.07 			"/>
			<polyline class="st3" points="951.38,552.76 951.38,632.48 829.13,632.48 829.13,813.19 			"/>
			<polyline class="st3" points="829.13,813.19 829.13,999.21 887.6,999.21 887.6,728.15 			"/>
			<line class="st3" x1="744.09" y1="239.17" x2="744.09" y2="361.42"/>
			<path class="st3" d="M855.71,712.2"/>
			<path class="st3" d="M887.6,728.15"/>
		</g>
	</g>
</g>
<g id="Quad_Express">
	<g id="Connections_00000005234672524359849940000006617707159109608335_">
		<g>
			<line class="st0" x1="196.65" y1="356.1" x2="196.65" y2="207.28"/>
			<line class="st0" x1="196.65" y1="366.73" x2="196.65" y2="462.4"/>
			<polyline class="st0" points="542.13,372.05 542.13,526.18 196.65,526.18 196.65,467.72 			"/>
			<polyline class="st0" points="196.65,196.65 196.65,148.82 478.35,148.82 478.35,467.72 664.37,467.72 664.37,526.18 
				871.65,526.18 871.65,451.77 			"/>
			<polyline class="st0" points="542.13,372.05 542.13,207.28 754.72,207.28 754.72,239.17 			"/>
			<line class="st0" x1="754.72" y1="361.42" x2="754.72" y2="239.17"/>
			<polyline class="st0" points="754.72,361.42 754.72,409.25 871.65,409.25 871.65,451.77 			"/>
			<path class="st0" d="M467.72,308.27"/>
		</g>
		<g>
			<line class="st4" x1="196.65" y1="356.1" x2="196.65" y2="207.28"/>
			<line class="st4" x1="196.65" y1="366.73" x2="196.65" y2="462.4"/>
			<polyline class="st4" points="542.13,372.05 542.13,526.18 196.65,526.18 196.65,467.72 			"/>
			<polyline class="st4" points="196.65,196.65 196.65,148.82 478.35,148.82 478.35,467.72 664.37,467.72 664.37,526.18 
				871.65,526.18 871.65,451.77 			"/>
			<polyline class="st4" points="542.13,372.05 542.13,207.28 754.72,207.28 754.72,239.17 			"/>
			<line class="st4" x1="754.72" y1="361.42" x2="754.72" y2="239.17"/>
			<polyline class="st4" points="754.72,361.42 754.72,409.25 871.65,409.25 871.65,451.77 			"/>
			<path class="st4" d="M467.72,308.27"/>
		</g>
	</g>
</g>
<g id="Quad_Stadium_Express">
	<g id="Connections_00000062900159522537297690000006150731245249459622_">
		<g>
			<line class="st0" x1="217.91" y1="467.72" x2="217.91" y2="361.42"/>
			<polyline class="st0" points="217.91,467.72 217.91,515.55 435.83,515.55 435.83,106.3 1004.53,106.3 1004.53,558.07 			"/>
			<polyline class="st0" points="717.52,749.41 717.52,685.63 1004.53,685.63 1004.53,558.07 			"/>
			<polyline class="st0" points="930.12,972.64 930.12,1041.73 786.61,1041.73 786.61,813.19 			"/>
			<polyline class="st0" points="717.52,749.41 717.52,786.61 786.61,786.61 786.61,813.19 			"/>
			<polyline class="st0" points="382.68,919.49 382.68,956.69 930.12,956.69 930.12,972.64 			"/>
			<line class="st0" x1="382.68" y1="765.35" x2="382.68" y2="690.94"/>
			<line class="st0" x1="382.68" y1="765.35" x2="382.68" y2="919.49"/>
			<polyline class="st0" points="217.91,228.54 217.91,170.08 276.38,170.08 276.38,675 382.68,675 382.68,690.94 			"/>
			<path class="st0" d="M387.99,781.3"/>
			<line class="st0" x1="217.91" y1="361.42" x2="217.91" y2="201.97"/>
		</g>
		<g>
			<line class="st5" x1="217.91" y1="467.72" x2="217.91" y2="361.42"/>
			<polyline class="st5" points="217.91,467.72 217.91,515.55 435.83,515.55 435.83,106.3 1004.53,106.3 1004.53,558.07 			"/>
			<polyline class="st5" points="717.52,749.41 717.52,685.63 1004.53,685.63 1004.53,558.07 			"/>
			<polyline class="st5" points="930.12,972.64 930.12,1041.73 786.61,1041.73 786.61,813.19 			"/>
			<polyline class="st5" points="717.52,749.41 717.52,786.61 786.61,786.61 786.61,813.19 			"/>
			<polyline class="st5" points="382.68,919.49 382.68,956.69 930.12,956.69 930.12,972.64 			"/>
			<line class="st5" x1="382.68" y1="765.35" x2="382.68" y2="690.94"/>
			<line class="st5" x1="382.68" y1="765.35" x2="382.68" y2="919.49"/>
			<polyline class="st5" points="217.91,228.54 217.91,170.08 276.38,170.08 276.38,675 382.68,675 382.68,690.94 			"/>
			<path class="st5" d="M387.99,781.3"/>
			<line class="st5" x1="217.91" y1="361.42" x2="217.91" y2="201.97"/>
		</g>
	</g>
</g>
<g id="Quad_Yard_Express">
	<g id="Connections_00000067214389350451797780000013732721897712994729_">
		<g>
			<line class="st0" x1="164.76" y1="356.1" x2="164.76" y2="207.28"/>
			<line class="st0" x1="164.76" y1="462.4" x2="164.76" y2="366.73"/>
			<polyline class="st0" points="164.76,473.03 164.76,558.07 446.46,558.07 446.46,116.93 993.9,116.93 993.9,558.07 			"/>
			<polyline class="st0" points="680.31,605.91 680.31,675 993.9,675 993.9,558.07 			"/>
			<polyline class="st0" points="393.31,478.35 393.31,579.33 680.31,579.33 680.31,605.91 			"/>
			<polyline class="st0" points="393.31,473.03 393.31,116.93 164.76,116.93 164.76,196.65 			"/>
		</g>
		<g>
			<line class="st6" x1="164.76" y1="356.1" x2="164.76" y2="207.28"/>
			<line class="st6" x1="164.76" y1="462.4" x2="164.76" y2="366.73"/>
			<polyline class="st6" points="164.76,473.03 164.76,558.07 446.46,558.07 446.46,116.93 993.9,116.93 993.9,558.07 			"/>
			<polyline class="st6" points="680.31,605.91 680.31,675 993.9,675 993.9,558.07 			"/>
			<polyline class="st6" points="393.31,478.35 393.31,579.33 680.31,579.33 680.31,605.91 			"/>
			<polyline class="st6" points="393.31,473.03 393.31,116.93 164.76,116.93 164.76,196.65 			"/>
		</g>
	</g>
</g>
<g id="Crimson_Cruiser">
	<g id="Connections_00000121966445311389274800000013852891330534931589_">
		<g>
			<polyline class="st0" points="807.87,807.87 807.87,653.74 972.64,653.74 972.64,558.07 			"/>
			<polyline class="st0" points="908.86,728.15 908.86,568.7 701.57,568.7 701.57,611.22 			"/>
			<polyline class="st0" points="382.68,478.35 382.68,627.17 701.57,627.17 701.57,611.22 			"/>
			<polyline class="st0" points="175.39,196.65 175.39,127.56 382.68,127.56 382.68,478.35 			"/>
			<path class="st0" d="M175.39,207.28"/>
			<polyline class="st0" points="175.39,473.03 175.39,547.44 520.87,547.44 520.87,372.05 			"/>
			<polyline class="st0" points="775.98,239.17 775.98,186.02 520.87,186.02 520.87,372.05 			"/>
			<line class="st0" x1="775.98" y1="239.17" x2="775.98" y2="361.42"/>
			<line class="st0" x1="908.86" y1="977.95" x2="908.86" y2="728.15"/>
			<line class="st0" x1="175.39" y1="356.1" x2="175.39" y2="207.28"/>
			<line class="st0" x1="175.39" y1="467.72" x2="175.39" y2="361.42"/>
			<polyline class="st0" points="775.98,361.42 775.98,387.99 892.91,387.99 892.91,451.77 			"/>
			<polyline class="st0" points="892.91,451.77 892.91,473.03 972.64,473.03 972.64,558.07 			"/>
			<polyline class="st0" points="908.86,972.64 908.86,1020.47 807.87,1020.47 807.87,813.19 			"/>
		</g>
		<g>
			<polyline class="st7" points="807.87,807.87 807.87,653.74 972.64,653.74 972.64,558.07 			"/>
			<polyline class="st7" points="908.86,728.15 908.86,568.7 701.57,568.7 701.57,611.22 			"/>
			<polyline class="st7" points="382.68,478.35 382.68,627.17 701.57,627.17 701.57,611.22 			"/>
			<polyline class="st7" points="175.39,196.65 175.39,127.56 382.68,127.56 382.68,478.35 			"/>
			<path class="st7" d="M175.39,207.28"/>
			<polyline class="st7" points="175.39,473.03 175.39,547.44 520.87,547.44 520.87,372.05 			"/>
			<polyline class="st7" points="775.98,239.17 775.98,186.02 520.87,186.02 520.87,372.05 			"/>
			<line class="st7" x1="775.98" y1="239.17" x2="775.98" y2="361.42"/>
			<line class="st7" x1="908.86" y1="977.95" x2="908.86" y2="728.15"/>
			<line class="st7" x1="175.39" y1="356.1" x2="175.39" y2="207.28"/>
			<line class="st7" x1="175.39" y1="467.72" x2="175.39" y2="361.42"/>
			<polyline class="st7" points="775.98,361.42 775.98,387.99 892.91,387.99 892.91,451.77 			"/>
			<polyline class="st7" points="892.91,451.77 892.91,473.03 972.64,473.03 972.64,558.07 			"/>
			<polyline class="st7" points="908.86,972.64 908.86,1020.47 807.87,1020.47 807.87,813.19 			"/>
		</g>
	</g>
</g>
<g id="_x31_636_x27_er">
	<g id="Connections_00000123437167232906839730000015407020479262319781_">
		<g>
			<line class="st0" x1="186.02" y1="356.1" x2="186.02" y2="207.28"/>
			<line class="st0" x1="186.02" y1="467.72" x2="186.02" y2="361.42"/>
			<polyline class="st0" points="186.02,467.72 186.02,536.81 531.5,536.81 531.5,372.05 			"/>
			<polyline class="st0" points="765.35,244.49 765.35,196.65 531.5,196.65 531.5,372.05 			"/>
			<line class="st0" x1="765.35" y1="361.42" x2="765.35" y2="239.17"/>
			<polyline class="st0" points="818.5,813.19 818.5,643.11 962.01,643.11 962.01,558.07 			"/>
			<polyline class="st0" points="898.23,728.15 898.23,579.33 712.2,579.33 712.2,611.22 			"/>
			<polyline class="st0" points="372.05,478.35 372.05,637.8 712.2,637.8 712.2,611.22 			"/>
			<polyline class="st0" points="372.05,478.35 372.05,138.19 186.02,138.19 186.02,201.97 			"/>
			<polyline class="st0" points="898.23,977.95 898.23,1009.84 818.5,1009.84 818.5,813.19 			"/>
			<polyline class="st0" points="882.28,451.77 882.28,483.66 962.01,483.66 962.01,558.07 			"/>
			<polyline class="st0" points="882.28,451.77 882.28,398.62 765.35,398.62 765.35,356.1 			"/>
			<line class="st0" x1="898.23" y1="728.15" x2="898.23" y2="977.95"/>
		</g>
		<g>
			<line class="st8" x1="186.02" y1="356.1" x2="186.02" y2="207.28"/>
			<line class="st8" x1="186.02" y1="467.72" x2="186.02" y2="361.42"/>
			<polyline class="st8" points="186.02,467.72 186.02,536.81 531.5,536.81 531.5,372.05 			"/>
			<polyline class="st8" points="765.35,244.49 765.35,196.65 531.5,196.65 531.5,372.05 			"/>
			<line class="st8" x1="765.35" y1="361.42" x2="765.35" y2="239.17"/>
			<polyline class="st8" points="818.5,813.19 818.5,643.11 962.01,643.11 962.01,558.07 			"/>
			<polyline class="st8" points="898.23,728.15 898.23,579.33 712.2,579.33 712.2,611.22 			"/>
			<polyline class="st8" points="372.05,478.35 372.05,637.8 712.2,637.8 712.2,611.22 			"/>
			<polyline class="st8" points="372.05,478.35 372.05,138.19 186.02,138.19 186.02,201.97 			"/>
			<polyline class="st8" points="898.23,977.95 898.23,1009.84 818.5,1009.84 818.5,813.19 			"/>
			<polyline class="st9" points="882.28,451.77 882.28,483.66 962.01,483.66 962.01,558.07 			"/>
			<polyline class="st8" points="882.28,451.77 882.28,398.62 765.35,398.62 765.35,356.1 			"/>
			<line class="st8" x1="898.23" y1="728.15" x2="898.23" y2="977.95"/>
		</g>
	</g>
</g>
<g id="HUIT_Route">
	<g id="Connections_00000020399184246613370060000016137604236843476658_">
		<g>
			<polyline class="st0" points="669.68,611.22 669.68,1084.25 988.58,1084.25 			"/>
			<path class="st0" d="M696.26,706.89"/>
		</g>
		<g>
			<polyline class="st10" points="669.68,611.22 669.68,1084.25 988.58,1084.25 			"/>
			<path class="st10" d="M696.26,706.89"/>
		</g>
	</g>
</g>
<g id="Overnight">
	<g id="Connections_00000062194632396488075190000002147496796735448505_">
		<g>
			<polyline class="st0" points="797.24,807.87 797.24,775.98 728.15,775.98 728.15,749.41 			"/>
			<polyline class="st0" points="919.49,972.64 919.49,1031.1 797.24,1031.1 797.24,813.19 			"/>
			<polyline class="st0" points="154.23,202.06 154.13,106.3 403.94,106.3 403.94,589.96 690.94,589.96 690.94,611.22 			"/>
			<line class="st0" x1="154.13" y1="361.42" x2="154.13" y2="201.97"/>
			<line class="st0" x1="154.13" y1="356.1" x2="154.13" y2="467.72"/>
			<polyline class="st0" points="510.24,372.05 510.24,175.39 786.61,175.39 786.61,244.49 			"/>
			<line class="st0" x1="786.61" y1="361.42" x2="786.61" y2="244.49"/>
			<polyline class="st0" points="903.54,451.77 903.54,462.4 983.27,462.4 983.27,558.07 			"/>
			<polyline class="st0" points="690.94,611.22 690.94,696.26 919.49,696.26 919.49,728.15 			"/>
			<line class="st0" x1="919.49" y1="728.15" x2="919.49" y2="972.64"/>
			<polyline class="st0" points="510.24,372.05 510.24,568.7 154.13,568.7 154.13,467.72 			"/>
			<polyline class="st0" points="786.61,361.42 786.61,377.36 903.54,377.36 903.54,451.77 			"/>
			<polyline class="st0" points="983.27,558.07 983.27,664.37 728.15,664.37 728.15,749.41 			"/>
		</g>
		<g>
			<polyline class="st11" points="797.24,807.87 797.24,775.98 728.15,775.98 728.15,749.41 			"/>
			<polyline class="st11" points="919.49,972.64 919.49,1031.1 797.24,1031.1 797.24,813.19 			"/>
			<polyline class="st11" points="154.23,202.06 154.13,106.3 403.94,106.3 403.94,589.96 690.94,589.96 690.94,611.22 			"/>
			<line class="st11" x1="154.13" y1="361.42" x2="154.13" y2="201.97"/>
			<line class="st11" x1="154.13" y1="356.1" x2="154.13" y2="467.72"/>
			<polyline class="st11" points="510.24,372.05 510.24,175.39 786.61,175.39 786.61,244.49 			"/>
			<line class="st11" x1="786.61" y1="361.42" x2="786.61" y2="244.49"/>
			<polyline class="st11" points="903.54,451.77 903.54,462.4 983.27,462.4 983.27,558.07 			"/>
			<polyline class="st11" points="690.94,611.22 690.94,696.26 919.49,696.26 919.49,728.15 			"/>
			<line class="st11" x1="919.49" y1="728.15" x2="919.49" y2="972.64"/>
			<polyline class="st11" points="510.24,372.05 510.24,568.7 154.13,568.7 154.13,467.72 			"/>
			<polyline class="st11" points="786.61,361.42 786.61,377.36 903.54,377.36 903.54,451.77 			"/>
			<polyline class="st11" points="983.27,558.07 983.27,664.37 728.15,664.37 728.15,749.41 			"/>
		</g>
	</g>
</g>
<g id="Stops_00000146484137833953801480000014619733039039634614_">
	<g id="_x32_3509">
		<path d="M154.13,363.73c-1.28,0-2.31-1.04-2.31-2.31s1.04-2.31,2.31-2.31h63.78c1.28,0,2.31,1.04,2.31,2.31s-1.04,2.31-2.31,2.31
			H154.13z"/>
		<path d="M217.91,356.1h-63.78c-2.94,0-5.31,2.38-5.31,5.31v0c0,2.94,2.38,5.31,5.31,5.31h63.78c2.94,0,5.31-2.38,5.31-5.31v0
			C223.23,358.48,220.85,356.1,217.91,356.1L217.91,356.1z"/>
	</g>
	<g id="_x35_050">
		<path d="M154.13,470.03c-1.28,0-2.31-1.04-2.31-2.31s1.04-2.31,2.31-2.31h63.78c1.28,0,2.31,1.04,2.31,2.31s-1.04,2.31-2.31,2.31
			H154.13z"/>
		<path d="M217.91,462.4h-63.78c-2.94,0-5.31,2.38-5.31,5.31s2.38,5.31,5.31,5.31h63.78c2.94,0,5.31-2.38,5.31-5.31
			S220.85,462.4,217.91,462.4L217.91,462.4z"/>
	</g>
	<g id="_x35_049">
		<path d="M154.13,204.28c-1.28,0-2.31-1.04-2.31-2.31s1.04-2.31,2.31-2.31h63.78c1.28,0,2.31,1.04,2.31,2.31s-1.04,2.31-2.31,2.31
			H154.13z"/>
		<path d="M217.91,196.65h-63.78c-2.94,0-5.31,2.38-5.31,5.31s2.38,5.31,5.31,5.31h63.78c2.94,0,5.31-2.38,5.31-5.31
			S220.85,196.65,217.91,196.65L217.91,196.65z"/>
	</g>
	<g id="_x35_040">
		<path d="M361.42,772.98c-1.28,0-2.31-1.04-2.31-2.32s1.04-2.31,2.31-2.31h21.26c1.28,0,2.31,1.04,2.31,2.31s-1.04,2.32-2.31,2.32
			H361.42z"/>
		<path d="M382.68,765.35h-21.26c-2.94,0-5.31,2.38-5.31,5.31c0,2.94,2.38,5.32,5.31,5.32h21.26c2.94,0,5.32-2.38,5.32-5.32
			C387.99,767.73,385.61,765.35,382.68,765.35L382.68,765.35z"/>
	</g>
	<g id="_x35_039">
		<path d="M361.42,922c-1.38,0-2.51-1.12-2.51-2.51s1.13-2.51,2.51-2.51h21.26c1.38,0,2.51,1.12,2.51,2.51s-1.13,2.51-2.51,2.51
			H361.42z"/>
		<path d="M382.68,914.17h-21.26c-2.94,0-5.31,2.38-5.31,5.31s2.38,5.31,5.31,5.31h21.26c2.94,0,5.32-2.38,5.32-5.31
			S385.61,914.17,382.68,914.17L382.68,914.17z"/>
	</g>
	<g id="_x36_3189">
		<path d="M361.42,1012.16c-1.28,0-2.31-1.04-2.31-2.31s1.04-2.32,2.31-2.32h10.63c1.28,0,2.31,1.04,2.31,2.32s-1.04,2.31-2.31,2.31
			H361.42z"/>
		<path d="M372.05,1004.53h-10.63c-2.94,0-5.31,2.38-5.31,5.31v0c0,2.94,2.38,5.31,5.31,5.31h10.63c2.94,0,5.31-2.38,5.31-5.31v0
			C377.36,1006.91,374.98,1004.53,372.05,1004.53L372.05,1004.53z"/>
	</g>
	<g id="_x35_8343">
		<path d="M281.69,1081.25c-1.28,0-2.31-1.04-2.31-2.31s1.04-2.32,2.31-2.32h10.63c1.28,0,2.31,1.04,2.31,2.32s-1.04,2.31-2.31,2.31
			H281.69z"/>
		<path d="M292.32,1073.62h-10.63c-2.94,0-5.31,2.38-5.31,5.31v0c0,2.94,2.38,5.31,5.31,5.31h10.63c2.94,0,5.31-2.38,5.31-5.31v0
			C297.64,1076,295.26,1073.62,292.32,1073.62L292.32,1073.62z"/>
	</g>
	<g id="_x35_041">
		<path d="M361.42,693.26c-1.28,0-2.31-1.04-2.31-2.31s1.04-2.32,2.31-2.32h21.26c1.28,0,2.31,1.04,2.31,2.32s-1.04,2.31-2.31,2.31
			H361.42z"/>
		<path d="M382.68,685.63h-21.26c-2.94,0-5.31,2.38-5.31,5.32s2.38,5.31,5.31,5.31h21.26c2.94,0,5.32-2.38,5.32-5.31
			S385.61,685.63,382.68,685.63L382.68,685.63z"/>
	</g>
	<g id="_x35_036">
		<path d="M531.57,1102.51c-1.32,0-2.39-1.07-2.39-2.39s1.07-2.39,2.39-2.39c1.32,0,2.39,1.07,2.39,2.39
			S532.89,1102.51,531.57,1102.51z"/>
		<path d="M531.57,1094.74c-2.98,0-5.39,2.41-5.39,5.39c0,2.98,2.41,5.39,5.39,5.39s5.39-2.41,5.39-5.39
			C536.96,1097.15,534.54,1094.74,531.57,1094.74L531.57,1094.74z"/>
	</g>
	<g id="_x35_054">
		<path d="M207.21,773.13c-1.32,0-2.39-1.07-2.39-2.39s1.07-2.39,2.39-2.39c1.32,0,2.39,1.07,2.39,2.39S208.53,773.13,207.21,773.13
			z"/>
		<path d="M207.21,765.35c-2.98,0-5.39,2.41-5.39,5.39s2.41,5.39,5.39,5.39s5.39-2.41,5.39-5.39S210.19,765.35,207.21,765.35
			L207.21,765.35z"/>
	</g>
	<g id="_x32_3930">
		<path d="M207.36,921.8c-1.32,0-2.39-1.07-2.39-2.39c0-1.32,1.07-2.39,2.39-2.39c1.32,0,2.39,1.07,2.39,2.39
			C209.74,920.73,208.67,921.8,207.36,921.8z"/>
		<path d="M207.36,914.03c-2.98,0-5.39,2.41-5.39,5.39v0c0,2.98,2.41,5.39,5.39,5.39s5.39-2.41,5.39-5.39v0
			C212.74,916.44,210.33,914.03,207.36,914.03L207.36,914.03z"/>
	</g>
	<g id="_x36_3190">
		<path d="M207.36,1012.16c-1.32,0-2.39-1.07-2.39-2.39s1.07-2.39,2.39-2.39c1.32,0,2.39,1.07,2.39,2.39
			S208.67,1012.16,207.36,1012.16z"/>
		<path d="M207.36,1004.38c-2.98,0-5.39,2.41-5.39,5.39s2.41,5.39,5.39,5.39s5.39-2.41,5.39-5.39S210.33,1004.38,207.36,1004.38
			L207.36,1004.38z"/>
	</g>
	<g id="_x31_32600">
		<path d="M372.05,481.74c-1.87,0-3.39-1.52-3.39-3.39s1.52-3.39,3.39-3.39h31.89c1.87,0,3.39,1.52,3.39,3.39s-1.52,3.39-3.39,3.39
			H372.05z"/>
		<path d="M403.94,476.88c0.81,0,1.47,0.66,1.47,1.47c0,0.81-0.66,1.47-1.47,1.47h-31.89c-0.81,0-1.47-0.66-1.47-1.47
			c0-0.81,0.66-1.47,1.47-1.47H403.94 M403.94,473.03h-31.89c-2.94,0-5.31,2.38-5.31,5.31v0c0,2.94,2.38,5.31,5.31,5.31h31.89
			c2.94,0,5.31-2.38,5.31-5.31v0C409.25,475.41,406.87,473.03,403.94,473.03L403.94,473.03z"/>
	</g>
	<g id="_x35_8381">
		<circle cx="988.66" cy="1084.32" r="3.36"/>
		<path d="M988.66,1082.99c0.73,0,1.33,0.6,1.33,1.33c0,0.74-0.6,1.33-1.33,1.33c-0.74,0-1.33-0.6-1.33-1.33
			C987.32,1083.59,987.92,1082.99,988.66,1082.99 M988.66,1078.94c-2.98,0-5.39,2.41-5.39,5.39c0,2.98,2.41,5.39,5.39,5.39
			c2.98,0,5.39-2.41,5.39-5.39C994.04,1081.35,991.63,1078.94,988.66,1078.94L988.66,1078.94z"/>
	</g>
	<g id="_x35_8344">
		<path d="M207.21,693.41c-1.32,0-2.39-1.07-2.39-2.39c0-1.32,1.07-2.39,2.39-2.39c1.32,0,2.39,1.07,2.39,2.39
			C209.6,692.33,208.53,693.41,207.21,693.41z"/>
		<path d="M207.21,685.63c-2.98,0-5.39,2.41-5.39,5.39s2.41,5.39,5.39,5.39s5.39-2.41,5.39-5.39S210.19,685.63,207.21,685.63
			L207.21,685.63z"/>
	</g>
	<g id="_x35_042">
		<path d="M510.24,374.36c-1.28,0-2.31-1.04-2.31-2.31s1.04-2.31,2.31-2.31h63.78c1.28,0,2.32,1.04,2.32,2.31s-1.04,2.31-2.32,2.31
			H510.24z"/>
		<path d="M574.02,366.73h-63.78c-2.94,0-5.31,2.38-5.31,5.31s2.38,5.31,5.31,5.31h63.78c2.94,0,5.31-2.38,5.31-5.31
			S576.95,366.73,574.02,366.73L574.02,366.73z"/>
	</g>
	<g id="_x35_043">
		<path d="M733.46,246.8c-1.28,0-2.32-1.04-2.32-2.31s1.04-2.31,2.32-2.31h53.15c1.28,0,2.31,1.04,2.31,2.31s-1.04,2.31-2.31,2.31
			H733.46z"/>
		<path d="M786.61,239.17h-53.15c-2.94,0-5.31,2.38-5.31,5.31v0c0,2.94,2.38,5.31,5.31,5.31h53.15c2.94,0,5.31-2.38,5.31-5.31v0
			C791.93,241.55,789.55,239.17,786.61,239.17L786.61,239.17z"/>
	</g>
	<g id="_x36_248">
		<path d="M733.46,363.73c-1.28,0-2.31-1.04-2.31-2.31s1.04-2.31,2.31-2.31h53.15c1.28,0,2.31,1.04,2.31,2.31s-1.04,2.31-2.31,2.31
			H733.46z"/>
		<path d="M786.61,356.1h-53.15c-2.94,0-5.31,2.38-5.31,5.31v0c0,2.94,2.38,5.31,5.31,5.31h53.15c2.94,0,5.31-2.38,5.31-5.31v0
			C791.93,358.48,789.55,356.1,786.61,356.1L786.61,356.1z"/>
	</g>
	<g id="_x35_044">
		<path d="M850.39,454.09c-1.28,0-2.32-1.04-2.32-2.31s1.04-2.31,2.32-2.31h53.15c1.28,0,2.31,1.04,2.31,2.31s-1.04,2.31-2.31,2.31
			H850.39z"/>
		<path d="M903.54,446.46h-53.15c-2.94,0-5.31,2.38-5.31,5.31v0c0,2.94,2.38,5.31,5.31,5.31h53.15c2.94,0,5.31-2.38,5.31-5.31v0
			C908.86,448.84,906.48,446.46,903.54,446.46L903.54,446.46z"/>
	</g>
	<g id="_x35_045">
		<path d="M940.75,560.39c-1.28,0-2.32-1.04-2.32-2.31s1.04-2.31,2.32-2.31h63.78c1.28,0,2.32,1.04,2.32,2.31s-1.04,2.31-2.32,2.31
			H940.75z"/>
		<path d="M1004.53,552.76h-63.78c-2.94,0-5.32,2.38-5.32,5.32c0,2.94,2.38,5.31,5.32,5.31h63.78c2.94,0,5.32-2.38,5.32-5.31
			C1009.84,555.14,1007.46,552.76,1004.53,552.76L1004.53,552.76z"/>
	</g>
	<g id="_x35_047">
		<path d="M887.6,725.15c-1.28,0-2.32-1.04-2.32-2.31s1.04-2.32,2.32-2.32h31.89c1.28,0,2.31,1.04,2.31,2.32s-1.04,2.31-2.31,2.31
			H887.6z"/>
		<path d="M919.49,717.52H887.6c-2.94,0-5.31,2.38-5.31,5.31v0c0,2.94,2.38,5.31,5.31,5.31h31.89c2.94,0,5.31-2.38,5.31-5.31v0
			C924.8,719.9,922.42,717.52,919.49,717.52L919.49,717.52z"/>
	</g>
	<g id="_x36_854">
		<path d="M786.61,810.19c-1.28,0-2.32-1.04-2.32-2.32s1.04-2.31,2.32-2.31h53.15c1.28,0,2.32,1.04,2.32,2.31s-1.04,2.32-2.32,2.32
			H786.61z"/>
		<path d="M839.76,802.56h-53.15c-2.94,0-5.31,2.38-5.31,5.31v0c0,2.94,2.38,5.31,5.31,5.31h53.15c2.94,0,5.32-2.38,5.32-5.31v0
			C845.08,804.94,842.7,802.56,839.76,802.56L839.76,802.56z"/>
	</g>
	<g id="_x35_046">
		<path d="M887.6,980.27c-1.28,0-2.32-1.04-2.32-2.31s1.04-2.32,2.32-2.32h42.52c1.28,0,2.31,1.04,2.31,2.32s-1.04,2.31-2.31,2.31
			H887.6z"/>
		<path d="M930.12,972.64H887.6c-2.94,0-5.31,2.38-5.31,5.31v0c0,2.94,2.38,5.31,5.31,5.31h42.52c2.94,0,5.31-2.38,5.31-5.31v0
			C935.43,975.02,933.05,972.64,930.12,972.64L930.12,972.64z"/>
	</g>
	<g id="_x35_051">
		<path d="M717.52,751.72c-1.28,0-2.31-1.04-2.31-2.32s1.04-2.31,2.31-2.31h10.63c1.28,0,2.32,1.04,2.32,2.31s-1.04,2.32-2.32,2.32
			H717.52z"/>
		<path d="M728.15,744.09h-10.63c-2.94,0-5.31,2.38-5.31,5.31s2.38,5.31,5.31,5.31h10.63c2.94,0,5.31-2.38,5.31-5.31
			S731.08,744.09,728.15,744.09L728.15,744.09z"/>
	</g>
	<g id="_x35_048">
		<path d="M669.68,613.54c-1.28,0-2.31-1.04-2.31-2.31s1.04-2.31,2.31-2.31h42.52c1.28,0,2.31,1.04,2.31,2.31s-1.04,2.31-2.31,2.31
			H669.68z"/>
		<path d="M712.2,605.91h-42.52c-2.94,0-5.31,2.38-5.31,5.32s2.38,5.31,5.31,5.31h42.52c2.94,0,5.31-2.38,5.31-5.31
			S715.14,605.91,712.2,605.91L712.2,605.91z"/>
	</g>
</g>
<g id="Labels">
	<text transform="matrix(1 0 0 1 111.6142 201.9685)" class="st12 st13">Quad</text>
	<text transform="matrix(1 0 0 1 100.7285 361.4175)"><tspan x="0" y="0" class="st12 st13">Radcliffe</tspan><tspan x="10.03" y="14.4" class="st12 st13">Yard</tspan></text>
	<text transform="matrix(1 0 0 1 95.6694 467.7164)" class="st12 st13">Mass Ave</text>
	<text transform="matrix(1 0 0 1 106.2994 690.9449)" class="st12 st13">Harvard Square (S)</text>
	<text transform="matrix(1 0 0 1 100.9842 770.6696)" class="st12 st13">Kennedy School (S)</text>
	<text transform="matrix(1 0 0 1 95.6695 919.4883)" class="st12 st13">Harvard Stadium (S)</text>
	<text transform="matrix(1 0 0 1 255.1181 770.6694)" class="st12 st13">Kennedy School (N) </text>
	<text transform="matrix(1 0 0 1 249.8031 919.488)" class="st12 st13">Harvard Stadium (N)</text>
	<text transform="matrix(1 0 0 1 265.748 1009.8427)" class="st12 st13">Barry’s Corner (N)</text>
	<text transform="matrix(1 0 0 1 255.1181 1078.9368)" class="st12 st13">SEC</text>
	<text transform="matrix(1 0 0 1 111.6141 1009.8427)" class="st12 st13">Barry’s Corner (S)</text>
	<text transform="matrix(1 0 0 1 255.1181 690.9447)" class="st12 st13">Harvard Square (N)</text>
	<text transform="matrix(1 0 0 1 590.4514 366.7325)"><tspan x="0" y="0" class="st12 st13">Law</tspan><tspan x="-6.84" y="14.4" class="st12 st13">School</tspan></text>
	<text transform="matrix(1 0 0 1 797.7565 239.1731)"><tspan x="0" y="0" class="st12 st13">Maxwell</tspan><tspan x="3.95" y="14.4" class="st12 st13">Dorkin</tspan></text>
	<text transform="matrix(1 0 0 1 682.4949 356.1024)"><tspan x="0" y="0" class="st12 st13">Science</tspan><tspan x="2.31" y="14.4" class="st12 st13">Center</tspan></text>
	<text transform="matrix(1 0 0 1 589.9603 611.2205)" class="st12 st13">Widener Gate</text>
	<text transform="matrix(1 0 0 1 736.2433 749.4091)"><tspan x="0" y="0" class="st12 st13">Winthrop</tspan><tspan x="7.9" y="14.4" class="st12 st13">House</tspan></text>
	<text transform="matrix(1 0 0 1 1011.7646 552.756)"><tspan x="0" y="0" class="st12 st13">Lamont</tspan><tspan x="2.05" y="14.4" class="st12 st13">Library</tspan></text>
	<text transform="matrix(1 0 0 1 930.1177 722.8345)" class="st12 st13">The Inn</text>
	<text transform="matrix(1 0 0 1 734.0547 807.874)"><tspan x="0" y="0" class="st12 st13">Leverett</tspan><tspan x="4.78" y="14.4" class="st12 st13">House</tspan></text>
	<text transform="matrix(1 0 0 1 937.5774 972.6376)"><tspan x="0" y="0" class="st14 st13">Mather</tspan><tspan x="2.79" y="14.4" class="st14 st13">House</tspan></text>
	<g>
		<path d="M1004.81,1076.46v0.7l-3.39,7.1h-1.09l3.38-6.9v-0.02h-3.81v-0.88H1004.81z"/>
		<path d="M1005.81,1082.27c0-0.98,0.59-1.68,1.55-2.09l-0.01-0.04c-0.86-0.41-1.24-1.08-1.24-1.75c0-1.24,1.04-2.08,2.41-2.08
			c1.51,0,2.27,0.95,2.27,1.92c0,0.66-0.32,1.37-1.28,1.82v0.04c0.97,0.38,1.57,1.07,1.57,2.01c0,1.36-1.16,2.27-2.65,2.27
			C1006.79,1084.38,1005.81,1083.41,1005.81,1082.27z M1010.01,1082.23c0-0.95-0.66-1.4-1.72-1.7c-0.91,0.26-1.4,0.86-1.4,1.61
			c-0.04,0.79,0.56,1.49,1.56,1.49C1009.4,1083.62,1010.01,1083.03,1010.01,1082.23z M1007.11,1078.33c0,0.78,0.59,1.2,1.49,1.44
			c0.67-0.23,1.19-0.71,1.19-1.42c0-0.62-0.37-1.27-1.32-1.27C1007.59,1077.08,1007.11,1077.66,1007.11,1078.33z"/>
		<path d="M1015.33,1084.25v-2.12h-3.62v-0.7l3.48-4.98h1.14v4.85h1.09v0.83h-1.09v2.12H1015.33z M1015.33,1081.3v-2.6
			c0-0.41,0.01-0.82,0.04-1.22h-0.04c-0.24,0.46-0.43,0.79-0.65,1.15l-1.91,2.65v0.02H1015.33z"/>
		<path d="M1027.95,1080.7c-0.06-1.13-0.13-2.48-0.12-3.49h-0.04c-0.28,0.95-0.61,1.96-1.02,3.07l-1.43,3.92h-0.79l-1.31-3.85
			c-0.38-1.14-0.71-2.18-0.94-3.14h-0.02c-0.02,1.01-0.08,2.36-0.16,3.57l-0.22,3.47h-1l0.56-8.08h1.33l1.38,3.91
			c0.34,1,0.61,1.88,0.82,2.72h0.04c0.2-0.82,0.49-1.7,0.85-2.72l1.44-3.91h1.33l0.5,8.08h-1.02L1027.95,1080.7z"/>
		<path d="M1031.41,1081.54c0.02,1.43,0.94,2.01,1.99,2.01c0.75,0,1.21-0.13,1.61-0.3l0.18,0.76c-0.37,0.17-1.01,0.36-1.93,0.36
			c-1.79,0-2.85-1.17-2.85-2.93c0-1.75,1.03-3.13,2.72-3.13c1.9,0,2.4,1.67,2.4,2.73c0,0.22-0.02,0.38-0.04,0.49H1031.41z
			 M1034.5,1080.79c0.01-0.67-0.28-1.71-1.46-1.71c-1.07,0-1.54,0.98-1.62,1.71H1034.5z"/>
		<path d="M1036.83,1080.02c0-0.6-0.01-1.09-0.05-1.57h0.92l0.05,0.94h0.04c0.32-0.55,0.86-1.07,1.82-1.07
			c0.79,0,1.39,0.48,1.64,1.16h0.02c0.18-0.32,0.41-0.58,0.65-0.75c0.35-0.26,0.73-0.41,1.28-0.41c0.77,0,1.91,0.5,1.91,2.52v3.42
			h-1.03v-3.29c0-1.12-0.41-1.79-1.26-1.79c-0.6,0-1.07,0.44-1.25,0.96c-0.05,0.14-0.08,0.34-0.08,0.53v3.59h-1.03v-3.48
			c0-0.92-0.41-1.6-1.21-1.6c-0.66,0-1.14,0.53-1.31,1.06c-0.06,0.16-0.08,0.34-0.08,0.52v3.5h-1.03V1080.02z"/>
		<path d="M1052.09,1081.3c0,2.15-1.49,3.08-2.89,3.08c-1.57,0-2.78-1.15-2.78-2.99c0-1.94,1.27-3.08,2.88-3.08
			C1050.96,1078.32,1052.09,1079.53,1052.09,1081.3z M1047.49,1081.36c0,1.27,0.73,2.23,1.76,2.23c1.01,0,1.76-0.95,1.76-2.25
			c0-0.98-0.49-2.23-1.74-2.23S1047.49,1080.26,1047.49,1081.36z"/>
		<path d="M1053.43,1080.26c0-0.68-0.01-1.27-0.05-1.81h0.92l0.04,1.14h0.05c0.26-0.78,0.9-1.27,1.61-1.27c0.12,0,0.2,0.01,0.3,0.04
			v1c-0.11-0.02-0.22-0.04-0.36-0.04c-0.74,0-1.27,0.56-1.42,1.36c-0.02,0.14-0.05,0.31-0.05,0.49v3.09h-1.04V1080.26z"/>
		<path d="M1058.57,1076.82c0.01,0.36-0.25,0.65-0.67,0.65c-0.37,0-0.64-0.29-0.64-0.65c0-0.37,0.28-0.66,0.66-0.66
			C1058.32,1076.16,1058.57,1076.44,1058.57,1076.82z M1057.4,1084.25v-5.8h1.06v5.8H1057.4z"/>
		<path d="M1063.42,1084.25l-0.08-0.73h-0.04c-0.32,0.46-0.95,0.86-1.78,0.86c-1.17,0-1.77-0.83-1.77-1.67
			c0-1.4,1.25-2.17,3.49-2.16v-0.12c0-0.48-0.13-1.34-1.32-1.34c-0.54,0-1.1,0.17-1.51,0.43l-0.24-0.7
			c0.48-0.31,1.18-0.52,1.91-0.52c1.78,0,2.21,1.21,2.21,2.38v2.17c0,0.5,0.02,1,0.1,1.39H1063.42z M1063.26,1081.29
			c-1.15-0.02-2.46,0.18-2.46,1.31c0,0.68,0.46,1.01,1,1.01c0.75,0,1.24-0.48,1.4-0.97c0.04-0.11,0.06-0.23,0.06-0.34V1081.29z"/>
		<path d="M1065.99,1075.74h1.06v8.51h-1.06V1075.74z"/>
	</g>
	<text transform="matrix(1 0 0 1 488.9766 1089.5665)" class="st12 st13">One Western Ave</text>
	<text transform="matrix(1 0 0 1 302.9526 473.0316)"><tspan x="0" y="0" class="st12 st13">Cambridge</tspan><tspan x="0" y="14.4" class="st12 st13">Commons</tspan></text>
	<text transform="matrix(1 0 0 1 770.6697 451.7715)" class="st12 st13">Memorial Hall</text>
</g>
<g id="Labels_copy" class="st15">
	<text transform="matrix(1 0 0 1 112.8754 191.3392)" class="st16 st12 st13">5049</text>
	<text transform="matrix(1 0 0 1 108.1156 350.7882)" class="st16 st12 st13">23509</text>
	<text transform="matrix(1 0 0 1 96.9306 457.0871)" class="st16 st12 st13">5050</text>
	<text transform="matrix(1 0 0 1 107.5605 680.3157)" class="st16 st12 st13">58344</text>
	<text transform="matrix(1 0 0 1 102.2454 760.0403)" class="st16 st12 st13">5054</text>
	<text transform="matrix(1 0 0 1 96.9306 908.859)" class="st16 st12 st13">23930</text>
	<text transform="matrix(1 0 0 1 256.3792 760.0402)" class="st16 st12 st13">5040 </text>
	<text transform="matrix(1 0 0 1 251.0643 908.8586)" class="st16 st12 st13">5039</text>
	<text transform="matrix(1 0 0 1 267.0092 999.2134)" class="st16 st12 st13">63189</text>
	<text transform="matrix(1 0 0 1 256.3793 1068.3075)" class="st16 st12 st13">58343</text>
	<text transform="matrix(1 0 0 1 112.8752 999.2134)" class="st16 st12 st13">63190</text>
	<text transform="matrix(1 0 0 1 256.3792 680.3154)" class="st16 st12 st13">5041</text>
	<text transform="matrix(1 0 0 1 589.5406 356.1031)" class="st16 st12 st13">5042</text>
	<text transform="matrix(1 0 0 1 807.4537 228.5438)" class="st16 st12 st13">5043</text>
	<text transform="matrix(1 0 0 1 690.5242 345.4731)" class="st16 st12 st13">6248</text>
	<text transform="matrix(1 0 0 1 591.2214 600.5912)" class="st16 st12 st13">5048</text>
	<text transform="matrix(1 0 0 1 748.9888 738.7798)" class="st16 st12 st13">5051</text>
	<text transform="matrix(1 0 0 1 1020.0522 542.1266)" class="st16 st12 st13">5045</text>
	<text transform="matrix(1 0 0 1 931.3788 712.2052)" class="st16 st12 st13">5047</text>
	<text transform="matrix(1 0 0 1 743.6738 797.2448)" class="st16 st12 st13">6854</text>
	<text transform="matrix(1 0 0 1 943.2243 962.0083)" class="st16 st14 st13">5046</text>
	<text transform="matrix(1 0 0 1 304.2137 462.4023)" class="st16 st12 st13">132600</text>
	<text transform="matrix(1 0 0 1 771.9308 441.1422)" class="st16 st12 st13">5044</text>
	<text transform="matrix(1 0 0 1 1015.1572 1068.3066)" class="st16 st12 st13">58381</text>
	<text transform="matrix(1 0 0 1 510.236 1078.9368)" class="st16 st12 st13">5036</text>
</g>
</svg>
